<?xml version="1.0" encoding="UTF-8" standalone="yes"?>
<!-- Created with sK1/UniConvertor (http://sk1project.org/) -->
<svg xmlns="http://www.w3.org/2000/svg" xmlns:xlink="http://www.w3.org/1999/xlink"
  width="595.276pt" height="841.89pt" viewBox="0 0 595.276 841.89"
  fill-rule="evenodd">
  <defs> 
	<marker id="ArrowEnd" viewBox="0 0 10 10" refX="0" refY="5" 
		markerUnits="strokeWidth" 
		markerWidth="4" 
		markerHeight="3" 
		orient="auto"> 
		<path d="M 0 0 L 10 5 L 0 10 z" /> 
	</marker>
	<marker id="ArrowStart" viewBox="0 0 10 10" refX="10" refY="5" 
		markerUnits="strokeWidth" 
		markerWidth="4" 
		markerHeight="3" 
		orient="auto"> 
		<path d="M 10 0 L 0 5 L 10 10 z" /> 
	</marker> </defs>
<g>
<g>
<g>
<path style="stroke:none; fill:#d9d9d9" d="M 293.534 136.584C 215.375 136.584 151.786 200.173 151.786 278.335C 151.786 356.497 215.375 420.086 293.534 420.086C 371.696 420.086 435.284 356.497 435.284 278.335C 435.284 200.173 371.696 136.584 293.534 136.584zM 431.819 278.335C 431.819 354.586 369.786 416.62 293.534 416.62C 217.284 416.62 155.249 354.586 155.249 278.335C 155.249 202.084 217.284 140.049 293.534 140.049C 369.786 140.049 431.819 202.084 431.819 278.335z"/>
<path style="stroke:none; fill:#d9d9d9" d="M 293.534 141.871C 218.288 141.871 157.068 203.089 157.068 278.336C 157.068 353.583 218.288 414.801 293.534 414.801C 368.782 414.801 430.001 353.583 430.001 278.336C 430.001 203.089 368.782 141.871 293.534 141.871zM 428.701 278.336C 428.701 352.866 368.066 413.504 293.534 413.504C 219.003 413.504 158.37 352.866 158.37 278.336C 158.37 203.804 219.003 143.17 293.534 143.17C 368.066 143.17 428.701 203.804 428.701 278.336z"/>
<path style="stroke:none; fill:#d9d9d9" d="M 250.442 156.491C 250.25 161.588 254.979 158.911 257.99 158.679C 259.046 158.599 268.564 154.884 267.229 158.795C 266.401 161.226 263.28 160.424 261.348 160.644C 259.04 160.911 256.436 161.747 254.324 162.717C 252.257 163.662 253.797 164.992 255.449 164.578C 256.966 164.193 258.403 164.053 259.973 164.143C 263.724 164.363 267.678 165.45 270.767 167.639C 272.339 168.755 276.826 173.197 273.998 174.541C 272.289 175.352 269.938 172.972 268.717 171.907C 266.75 170.192 265.445 168.673 262.857 167.857C 258.19 166.387 253.429 167.299 249.726 170.503C 246.358 173.423 243.878 176.743 243.091 181.155C 242.766 182.978 241.977 189.526 238.971 187.355C 235.651 184.957 240.384 177.168 241.256 175.782C 241.69 175.091 242.518 174.172 243.406 173.207C 243.981 172.582 245.279 171.06 246.267 169.931C 246.803 169.315 248.566 167.641 249.269 167.085C 250.31 166.264 250.744 164.798 248.808 164.886C 246.978 164.965 246.17 166.053 243.938 166.992C 241.71 167.933 235.983 173.206 234.895 170.083C 233.551 166.216 242.11 164.66 244.429 163.739C 244.966 163.525 245.696 163.273 246.265 163.059C 246.719 162.888 247.32 162.486 247.398 162.382C 247.872 161.754 248.217 160.837 248.03 160.38C 247.558 159.235 246.711 157.816 246.709 156.62C 247.647 155.767 249.445 155.704 250.442 156.491z"/>
<path style="stroke:none; fill:#d9d9d9" d="M 242.883 312.979L 232.865 307.618L 229.539 313.417C 231.939 315.056 233.099 317.536 233.423 320.401L 251.29 329.964L 256.761 320.406L 247.814 315.621L 275.475 264.119C 275.601 263.912 275.549 263.696 275.291 263.55L 271.061 261.292C 270.768 261.155 270.581 261.23 270.461 261.447L 242.883 312.981L 242.883 312.979z"/>
<path style="stroke:none; fill:#d9d9d9" d="M 259.41 316.995L 332.076 316.995C 333.554 316.995 334.762 318.211 334.762 319.696L 334.762 336.403C 334.762 337.893 333.554 339.109 332.076 339.109L 259.41 339.109C 257.93 339.109 256.719 337.893 256.719 336.403L 256.719 319.696C 256.719 318.206 257.93 316.994 259.41 316.994M 260.303 319.346L 330.935 319.346C 331.74 319.346 332.398 320.005 332.398 320.817L 332.398 335.283C 332.398 336.091 331.74 336.757 330.935 336.757L 260.65 336.757C 259.843 336.757 259.182 336.091 259.182 335.283L 259.182 320.462C 259.182 319.85 259.687 319.347 260.297 319.347L 260.303 319.346z"/>
<path style="stroke:none; fill:#d9d9d9" d="M 254.541 239.662L 279.224 239.662L 279.224 234.273L 254.541 234.273L 254.541 239.662z"/>
<path style="stroke:none; fill:#d9d9d9" d="M 254.541 247.862L 279.224 247.862L 279.224 242.472L 254.541 242.472L 254.541 247.862z"/>
<path style="stroke:none; fill:#d9d9d9" d="M 254.541 256.064L 279.224 256.064L 279.224 250.674L 254.541 250.674L 254.541 256.064z"/>
<path style="stroke:none; fill:#d9d9d9" d="M 349.421 286.646L 350.959 286.646C 351.389 286.646 351.735 286.933 351.735 287.264L 351.735 289.04C 352.518 288.602 353.051 287.772 353.051 286.818L 353.051 279.452C 353.051 278.499 352.518 277.661 351.735 277.227L 351.735 278.675C 351.735 279.01 351.385 279.297 350.959 279.297L 349.421 279.297C 348.996 279.297 348.644 279.015 348.644 278.675L 348.644 277.227C 347.861 277.661 347.332 278.496 347.332 279.452L 347.332 286.818C 347.332 287.772 347.863 288.602 348.644 289.04L 348.644 287.264C 348.644 286.927 348.99 286.646 349.421 286.646zM 249.415 265.415C 248.545 265.402 247.723 265.468 247.277 266.169C 245.94 268.282 246.241 274.101 246.241 276.424L 239.894 276.424L 238.312 274.873L 238.312 264.279C 239.847 261.8 243.711 259.955 250.84 259.963L 266.264 259.979C 266.748 259.979 266.93 260.391 266.788 260.654L 258.328 276.406L 249.415 276.424L 249.415 265.41L 249.415 265.415zM 271.424 279.248L 293.94 279.248C 294.704 279.248 295.324 279.874 295.324 280.628L 295.324 282.036C 295.324 282.79 294.697 283.418 293.94 283.418L 269.728 283.418C 271.004 284.446 272.351 286.552 273.014 287.845L 274.871 287.845C 274.871 287.845 278.381 289.919 277.971 292.623C 277.558 295.318 276.727 295.936 274.252 298.011C 271.777 300.091 267.229 304.656 265.374 307.149C 263.515 309.639 263.515 313.373 265.579 313.373L 295.312 313.373L 295.312 313.377L 325.25 313.377C 325.544 313.377 325.79 313.305 326.001 313.167C 327.283 312.348 327.058 309.288 325.459 307.149C 323.598 304.66 319.059 300.091 316.583 298.011C 314.104 295.936 313.279 295.315 312.863 292.623C 312.699 291.529 313.173 290.543 313.8 289.747C 313.812 289.728 313.829 289.707 313.841 289.692L 313.851 289.686C 313.863 289.665 313.876 289.656 313.886 289.639C 313.888 289.639 313.892 289.631 313.892 289.626C 313.906 289.609 313.923 289.591 313.933 289.582C 313.933 289.576 313.933 289.571 313.938 289.571C 313.953 289.555 313.97 289.539 313.984 289.521C 313.986 289.521 313.986 289.515 313.986 289.515C 314.005 289.5 314.017 289.483 314.031 289.462L 314.036 289.462C 314.054 289.445 314.07 289.421 314.089 289.406L 314.089 289.4C 314.109 289.381 314.122 289.358 314.144 289.341L 314.21 289.277C 314.218 289.265 314.234 289.25 314.244 289.231C 315.076 288.374 315.958 287.85 315.968 287.845L 317.826 287.845C 318.836 285.483 320.52 283.565 322.17 282.119C 324.583 280.009 326.91 278.911 326.91 278.911L 332.281 278.911C 336.758 273.774 342.597 271.995 348.65 270.97L 348.65 274.124C 346.544 274.319 344.876 276.105 344.876 278.255L 344.876 288.09C 344.876 290.25 346.544 292.033 348.65 292.226L 348.65 297.713C 346.544 297.899 344.876 299.692 344.876 301.845L 344.876 311.476C 344.876 313.764 346.738 315.625 349.023 315.625L 351.372 315.625C 353.651 315.625 355.52 313.764 355.52 311.476L 355.52 301.845C 355.52 299.692 353.85 297.899 351.747 297.713L 351.747 292.226C 353.852 292.033 355.52 290.25 355.52 288.09L 355.52 278.255C 355.52 276.105 353.85 274.318 351.747 274.124L 351.747 270.497C 352.489 270.396 353.223 270.216 353.969 270.118C 361.728 268.832 361.691 265.941 361.691 266.181L 361.691 260.025L 276.512 260.025L 280.031 261.864C 280.322 261.99 280.511 262.33 280.284 262.698L 271.428 279.242L 271.424 279.248zM 351.739 300.819L 351.739 302.161C 351.739 302.504 351.389 302.786 350.963 302.786L 349.421 302.786C 348.996 302.786 348.644 302.504 348.644 302.161L 348.644 300.819C 347.863 301.248 347.332 302.088 347.332 303.041L 347.332 310.203C 347.332 311.603 348.48 312.746 349.872 312.746L 350.514 312.746C 351.905 312.746 353.053 311.599 353.053 310.203L 353.053 303.041C 353.053 302.088 352.524 301.256 351.739 300.819zM 274.313 304.797L 316.173 304.797C 316.931 304.797 317.561 305.422 317.561 306.181L 317.561 307.587C 317.561 308.347 316.931 308.971 316.173 308.971L 274.313 308.971C 273.552 308.971 272.93 308.347 272.93 307.587L 272.93 306.181C 272.93 305.422 273.552 304.797 274.313 304.797zM 281.667 295.757L 308.821 295.757C 309.583 295.757 310.204 296.387 310.204 297.146L 310.204 298.549C 310.204 299.313 309.583 299.934 308.821 299.934L 281.667 299.934C 280.912 299.934 280.278 299.313 280.278 298.549L 280.278 297.146C 280.278 296.387 280.902 295.757 281.667 295.757zM 282.704 287.245L 307.785 287.245C 308.541 287.245 309.168 287.872 309.168 288.627L 309.168 290.033C 309.168 290.79 308.537 291.416 307.785 291.416L 282.704 291.416C 281.95 291.416 281.322 290.794 281.322 290.033L 281.322 288.627C 281.322 287.867 281.942 287.245 282.704 287.245zM 304.489 279.248L 315.736 279.248C 316.499 279.248 317.119 279.874 317.119 280.628L 317.119 282.036C 317.119 282.79 316.488 283.418 315.736 283.418L 304.489 283.418C 303.752 283.418 303.108 282.79 303.108 282.036L 303.108 280.628C 303.108 279.864 303.731 279.248 304.489 279.248z"/>
<path style="stroke:none; fill:#d9d9d9" d="M 281.215 239.662L 285.469 239.662L 285.469 234.273L 281.215 234.273L 281.215 239.662z"/>
<path style="stroke:none; fill:#d9d9d9" d="M 257.764 229.358C 265.308 228.946 273.472 226.409 280.584 222.801L 282.8 227.701C 274.967 231.465 266.152 233.982 259.053 234.338L 257.764 229.358z"/>
<path style="stroke:none; fill:#d9d9d9" d="M 286.322 220.052L 282.457 221.915L 284.67 226.754L 288.549 224.872L 286.322 220.056L 286.322 220.052z"/>
<path style="stroke:none; fill:#d9d9d9" d="M 281.215 247.862L 285.469 247.862L 285.469 242.472L 281.215 242.472L 281.215 247.862z"/>
<path style="stroke:none; fill:#d9d9d9" d="M 281.215 256.064L 285.469 256.064L 285.469 250.674L 281.215 250.674L 281.215 256.064z"/>
<path style="stroke:none; fill:#d9d9d9" d="M 311.298 226.374L 319.102 222.069L 335.52 251.857L 327.716 256.156L 311.298 226.374zM 316.263 230.499L 319.768 228.542L 320.715 230.192L 317.21 232.149L 316.263 230.499zM 318.262 234.086L 321.772 232.131L 322.719 233.777L 319.207 235.732L 318.262 234.086z"/>
<path style="stroke:none; fill:#d9d9d9" d="M 302.109 218.198L 311.492 218.198L 311.492 256.123L 302.109 256.123L 302.109 218.198zM 288.533 214.698L 299.032 214.698L 299.032 256.127L 288.533 256.127L 288.533 214.698zM 291.773 220.052L 295.792 220.052L 295.792 221.924L 291.773 221.924L 291.773 220.052zM 291.773 224.163L 295.792 224.163L 295.792 226.036L 291.773 226.036L 291.773 224.163zM 291.773 228.271L 295.792 228.271L 295.792 230.145L 291.773 230.145L 291.773 228.271zM 291.773 232.38L 295.792 232.38L 295.792 234.253L 291.773 234.253L 291.773 232.38zM 304.791 224.163L 308.811 224.163L 308.811 226.036L 304.791 226.036L 304.791 224.163zM 304.791 228.271L 308.811 228.271L 308.811 230.145L 304.791 230.145L 304.791 228.271zM 304.791 232.38L 308.811 232.38L 308.811 234.253L 304.791 234.253L 304.791 232.38z"/>
<path style="stroke:none; fill:#d9d9d9" d="M 293.508 358.97C 249.083 358.97 212.912 322.778 212.912 278.385C 212.912 233.943 249.083 197.749 293.508 197.749C 337.934 197.749 374.158 233.943 374.158 278.385C 374.158 322.778 337.934 358.97 293.508 358.97zM 391.716 275.734L 384.014 274.736C 383.712 274.686 383.512 274.585 383.313 274.335C 383.26 273.086 383.213 271.835 383.114 270.635C 383.213 270.385 383.415 270.236 383.712 270.187L 391.216 268.186C 391.318 268.135 391.466 268.086 391.466 267.786C 391.367 267.135 391.318 266.386 391.168 265.537L 391.168 265.486L 391.168 265.438C 391.066 264.635 390.966 263.885 390.867 263.235C 390.818 262.936 390.668 262.936 390.515 262.936L 382.76 262.936C 382.462 262.936 382.212 262.836 382.06 262.636C 381.81 261.437 381.561 260.237 381.309 258.988C 381.412 258.738 381.561 258.589 381.859 258.488L 389.065 255.489C 389.166 255.439 389.316 255.388 389.215 255.089C 389.065 254.438 388.915 253.739 388.665 252.94L 388.665 252.889L 388.665 252.839C 388.415 252.039 388.213 251.29 388.063 250.639C 387.963 250.391 387.815 250.391 387.663 250.391L 379.959 251.439C 379.66 251.49 379.461 251.439 379.209 251.24C 378.859 250.04 378.459 248.891 378.009 247.739C 378.109 247.44 378.259 247.239 378.509 247.09L 385.264 243.241C 385.364 243.19 385.465 243.091 385.364 242.84C 385.165 242.191 384.862 241.491 384.565 240.741L 384.512 240.691L 384.512 240.642C 384.163 239.84 383.864 239.19 383.612 238.541C 383.512 238.292 383.362 238.341 383.213 238.341L 375.709 240.391C 375.408 240.49 375.156 240.441 374.906 240.241C 374.406 239.141 373.855 238.091 373.307 237.042C 373.307 236.691 373.455 236.492 373.709 236.291L 379.861 231.593C 379.959 231.491 380.06 231.391 379.959 231.142C 379.611 230.543 379.259 229.892 378.859 229.192C 378.859 229.192 378.859 229.143 378.81 229.143L 378.81 229.095C 378.361 228.343 378.009 227.692 377.66 227.144C 377.509 226.894 377.359 226.944 377.209 226.994L 370.053 229.993C 369.752 230.143 369.504 230.093 369.204 229.942C 368.551 228.942 367.903 227.993 367.252 227.044C 367.151 226.692 367.252 226.444 367.502 226.194L 373.004 220.696C 373.106 220.595 373.206 220.495 373.055 220.245C 372.657 219.745 372.204 219.144 371.706 218.446L 371.655 218.446L 371.655 218.396L 371.606 218.396C 371.104 217.696 370.655 217.145 370.254 216.596C 370.053 216.396 369.903 216.445 369.803 216.545L 363.099 220.394C 362.796 220.595 362.5 220.595 362.199 220.445C 361.447 219.595 360.697 218.695 359.898 217.846C 359.798 217.544 359.847 217.245 360.048 216.995L 364.802 210.847C 364.901 210.747 364.952 210.597 364.751 210.395C 364.3 209.897 363.8 209.347 363.199 208.797L 363.199 208.746L 363.15 208.746L 363.15 208.697L 363.099 208.697C 362.548 208.097 362 207.597 361.5 207.146C 361.298 206.946 361.148 207.048 361.048 207.097L 354.897 211.847C 354.645 212.045 354.342 212.097 354.043 211.996C 353.194 211.246 352.295 210.446 351.44 209.747C 351.295 209.396 351.295 209.148 351.494 208.848L 355.395 202.099C 355.444 201.998 355.494 201.847 355.295 201.697C 354.744 201.248 354.194 200.798 353.494 200.298L 353.494 200.248L 353.444 200.248L 353.444 200.198C 352.743 199.699 352.143 199.249 351.643 198.848C 351.393 198.699 351.295 198.797 351.194 198.898L 345.691 204.397C 345.439 204.647 345.189 204.748 344.89 204.697C 343.89 203.998 342.939 203.349 341.937 202.698C 341.786 202.448 341.737 202.146 341.888 201.847L 344.89 194.699C 344.939 194.55 344.99 194.398 344.736 194.249C 344.189 193.899 343.539 193.55 342.79 193.099L 342.74 193.099C 342.74 193.099 342.74 193.05 342.691 193.05C 341.987 192.65 341.337 192.3 340.738 191.948C 340.487 191.85 340.387 191.948 340.288 192.05L 335.586 198.199C 335.383 198.5 335.182 198.599 334.834 198.599C 333.784 198.048 332.732 197.499 331.63 197C 331.429 196.75 331.382 196.499 331.482 196.199L 333.535 188.699C 333.535 188.6 333.581 188.399 333.334 188.302C 332.681 188.05 332.033 187.75 331.23 187.4L 331.181 187.4L 331.13 187.4C 330.378 187.051 329.681 186.802 329.031 186.551C 328.783 186.451 328.681 186.6 328.63 186.701L 324.78 193.399C 324.625 193.7 324.426 193.848 324.127 193.899C 322.975 193.45 321.827 193.05 320.625 192.699C 320.426 192.498 320.375 192.25 320.426 191.948L 321.477 184.25C 321.477 184.1 321.477 183.951 321.227 183.901C 320.574 183.701 319.824 183.5 319.026 183.301L 319.026 183.251L 318.973 183.251L 318.926 183.251C 318.125 183.051 317.422 182.851 316.772 182.701C 316.472 182.651 316.421 182.75 316.372 182.901L 313.37 190.051C 313.271 190.349 313.12 190.5 312.87 190.6C 311.622 190.349 310.421 190.1 309.219 189.85C 309.02 189.7 308.918 189.451 308.918 189.148L 308.918 181.4C 308.918 181.301 308.918 181.101 308.62 181.101C 307.969 180.951 307.217 180.852 306.414 180.751L 306.366 180.751L 306.319 180.751C 305.467 180.652 304.717 180.552 304.065 180.502C 303.766 180.453 303.715 180.602 303.715 180.701L 301.664 188.2C 301.613 188.499 301.465 188.699 301.213 188.849C 300.015 188.75 298.761 188.651 297.51 188.6C 297.31 188.45 297.16 188.2 297.16 187.9L 296.158 180.202C 296.111 180.101 296.06 179.952 295.81 179.952C 295.458 179.902 295.111 179.902 294.71 179.902L 294.611 179.902L 294.56 179.902L 294.459 179.902L 294.409 179.902L 294.359 179.902L 294.311 179.902L 294.26 179.902L 294.209 179.902L 294.159 179.902L 294.11 179.902L 294.01 179.902L 293.959 179.902L 293.809 179.902L 293.76 179.902L 293.711 179.902L 293.659 179.902L 293.608 179.902L 293.559 179.902L 293.508 179.902L 293.46 179.902L 293.409 179.902L 293.36 179.902L 293.309 179.902L 293.259 179.902L 293.208 179.902L 293.157 179.902L 293.109 179.902L 293.059 179.902L 293.009 179.902L 292.96 179.902L 292.907 179.902L 292.856 179.902L 292.808 179.902L 292.76 179.902L 292.707 179.902L 292.658 179.902L 292.606 179.902L 292.258 179.902C 291.858 179.902 291.507 179.902 291.156 179.952C 290.908 179.952 290.856 180.101 290.856 180.202L 289.856 187.9C 289.807 188.2 289.705 188.45 289.457 188.6C 288.204 188.651 287.003 188.75 285.754 188.849C 285.556 188.699 285.405 188.499 285.354 188.2L 283.353 180.701C 283.302 180.602 283.253 180.453 283.003 180.502C 282.303 180.552 281.552 180.652 280.751 180.751L 280.701 180.751L 280.652 180.751C 279.802 180.852 279.051 180.951 278.401 181.101C 278.149 181.101 278.1 181.301 278.1 181.4L 278.1 189.148C 278.149 189.451 278.052 189.7 277.849 189.85C 276.599 190.1 275.398 190.349 274.198 190.6C 273.898 190.5 273.748 190.349 273.648 190.051L 270.696 182.901C 270.647 182.75 270.545 182.651 270.297 182.701C 269.645 182.851 268.895 183.051 268.095 183.251L 268.044 183.251C 267.995 183.251 267.995 183.251 267.995 183.301C 267.194 183.5 266.443 183.701 265.843 183.901C 265.542 183.951 265.593 184.1 265.593 184.25L 266.593 191.948C 266.644 192.25 266.593 192.498 266.393 192.699C 265.243 193.05 264.042 193.45 262.892 193.899C 262.643 193.848 262.441 193.7 262.29 193.399L 258.389 186.701C 258.34 186.6 258.238 186.451 257.988 186.551C 257.338 186.802 256.688 187.051 255.887 187.4L 255.838 187.4L 255.788 187.4C 255.037 187.75 254.335 188.05 253.736 188.302C 253.486 188.399 253.486 188.6 253.537 188.699L 255.537 196.199C 255.637 196.499 255.588 196.75 255.438 197C 254.335 197.499 253.236 198.048 252.187 198.599C 251.886 198.599 251.636 198.5 251.435 198.199L 246.782 192.05C 246.683 191.948 246.583 191.85 246.333 191.948C 245.781 192.3 245.081 192.65 244.381 193.05L 244.381 193.099L 244.329 193.099L 244.281 193.099C 243.58 193.55 242.93 193.899 242.33 194.249C 242.129 194.398 242.18 194.55 242.23 194.699L 245.18 201.847C 245.33 202.146 245.33 202.448 245.131 202.698C 244.18 203.349 243.18 203.998 242.23 204.697C 241.88 204.748 241.629 204.647 241.38 204.397L 235.926 198.898C 235.827 198.797 235.675 198.699 235.475 198.848C 234.925 199.249 234.325 199.699 233.674 200.198L 233.625 200.248L 233.573 200.248L 233.573 200.298C 232.925 200.798 232.323 201.248 231.823 201.697C 231.575 201.847 231.675 201.998 231.724 202.099L 235.626 208.848C 235.776 209.148 235.827 209.396 235.675 209.747C 234.774 210.446 233.925 211.246 233.075 211.996C 232.724 212.097 232.423 212.045 232.173 211.847L 226.02 207.097C 225.919 207.048 225.77 206.946 225.57 207.146C 225.068 207.597 224.569 208.097 223.969 208.697L 223.92 208.746C 223.92 208.746 223.92 208.797 223.869 208.797C 223.318 209.347 222.768 209.897 222.318 210.395C 222.117 210.597 222.219 210.747 222.268 210.847L 227.02 216.995C 227.221 217.245 227.27 217.544 227.17 217.846C 226.42 218.695 225.668 219.595 224.92 220.445C 224.569 220.595 224.318 220.595 224.02 220.394L 217.265 216.545C 217.165 216.445 217.016 216.396 216.866 216.596C 216.414 217.145 215.964 217.696 215.464 218.396L 215.413 218.396L 215.413 218.446C 214.864 219.144 214.413 219.745 214.061 220.245C 213.862 220.495 213.963 220.595 214.061 220.696L 219.565 226.194C 219.815 226.444 219.916 226.692 219.867 227.044C 219.165 227.993 218.516 228.942 217.864 229.942C 217.614 230.093 217.315 230.143 217.016 229.993L 209.86 226.994C 209.762 226.944 209.611 226.894 209.46 227.144C 209.109 227.692 208.71 228.343 208.309 229.095L 208.26 229.095L 208.26 229.143L 208.26 229.192C 207.809 229.892 207.46 230.543 207.16 231.142C 207.009 231.391 207.109 231.491 207.21 231.593L 213.411 236.291C 213.663 236.492 213.764 236.691 213.764 237.042C 213.212 238.091 212.713 239.141 212.16 240.241C 211.91 240.441 211.662 240.49 211.361 240.391L 203.855 238.341C 203.757 238.341 203.606 238.292 203.455 238.541C 203.206 239.19 202.907 239.84 202.605 240.642L 202.557 240.642L 202.557 240.691L 202.557 240.741C 202.206 241.491 201.957 242.191 201.705 242.84C 201.606 243.091 201.756 243.19 201.856 243.241L 208.56 247.09C 208.859 247.239 209.01 247.44 209.06 247.739C 208.609 248.891 208.26 250.04 207.86 251.24C 207.66 251.439 207.409 251.49 207.109 251.439L 199.405 250.391C 199.305 250.391 199.104 250.391 199.054 250.639C 198.855 251.29 198.654 252.039 198.454 252.839L 198.405 252.839L 198.405 252.889L 198.405 252.94C 198.204 253.739 198.003 254.438 197.854 255.089C 197.804 255.388 197.954 255.439 198.055 255.489L 205.206 258.488C 205.507 258.589 205.659 258.738 205.759 258.988C 205.507 260.237 205.257 261.437 205.058 262.636C 204.859 262.888 204.606 262.936 204.308 262.936L 196.555 262.936C 196.452 262.936 196.303 262.936 196.252 263.235C 196.152 263.885 196.004 264.635 195.902 265.438L 195.902 265.486L 195.902 265.537C 195.801 266.386 195.702 267.135 195.651 267.786C 195.603 268.086 195.753 268.135 195.853 268.186L 203.358 270.187C 203.657 270.236 203.855 270.385 204.007 270.635C 203.908 271.835 203.808 273.086 203.757 274.335C 203.606 274.585 203.407 274.686 203.056 274.736L 195.351 275.734C 195.252 275.734 195.101 275.785 195.101 276.035C 195.053 276.736 195.053 277.485 195.053 278.283L 195.053 278.333L 195.053 278.385L 195.053 278.434C 195.053 279.233 195.053 279.984 195.101 280.683C 195.101 280.935 195.252 280.984 195.351 280.984L 203.056 281.983C 203.407 282.035 203.606 282.133 203.757 282.385C 203.808 283.633 203.908 284.833 204.007 286.084C 203.855 286.333 203.657 286.484 203.358 286.532L 195.853 288.532C 195.753 288.583 195.603 288.632 195.651 288.93C 195.702 289.582 195.801 290.333 195.902 291.132L 195.902 291.184L 195.902 291.234L 195.902 291.283C 196.004 292.082 196.101 292.832 196.252 293.483C 196.252 293.781 196.452 293.781 196.555 293.781L 204.308 293.781C 204.606 293.781 204.859 293.832 205.058 294.031C 205.257 295.281 205.507 296.481 205.759 297.734C 205.659 297.982 205.507 298.132 205.206 298.232L 198.055 301.23C 197.904 301.281 197.804 301.329 197.854 301.63C 198.003 302.23 198.204 302.981 198.405 303.78L 198.405 303.83L 198.405 303.88L 198.454 303.88C 198.654 304.681 198.855 305.431 199.054 306.079C 199.104 306.33 199.305 306.33 199.405 306.33L 207.109 305.28C 207.409 305.231 207.66 305.28 207.86 305.479C 208.21 306.68 208.609 307.831 209.06 308.979C 209.01 309.279 208.859 309.479 208.56 309.579L 201.856 313.477C 201.756 313.527 201.606 313.629 201.705 313.878C 201.957 314.528 202.206 315.227 202.557 315.977L 202.557 316.028L 202.557 316.077C 202.907 316.878 203.206 317.527 203.455 318.177C 203.556 318.378 203.757 318.378 203.855 318.327L 211.361 316.328C 211.662 316.23 211.91 316.277 212.16 316.477C 212.662 317.527 213.212 318.627 213.764 319.677C 213.764 320.026 213.663 320.227 213.362 320.428L 207.21 325.127C 207.109 325.227 207.009 325.324 207.109 325.576C 207.46 326.176 207.809 326.825 208.21 327.526C 208.26 327.526 208.26 327.575 208.26 327.575L 208.26 327.627L 208.309 327.627C 208.71 328.377 209.109 329.026 209.46 329.575C 209.56 329.776 209.71 329.776 209.86 329.725L 217.016 326.725C 217.315 326.576 217.614 326.625 217.864 326.776C 218.516 327.776 219.165 328.726 219.867 329.676C 219.916 330.028 219.815 330.277 219.565 330.527L 214.061 336.026C 213.963 336.125 213.862 336.225 214.061 336.476C 214.413 336.975 214.864 337.574 215.364 338.277L 215.413 338.277L 215.413 338.324L 215.464 338.324C 215.964 339.024 216.414 339.574 216.866 340.123C 217.016 340.325 217.165 340.273 217.265 340.176L 224.02 336.324C 224.318 336.125 224.569 336.125 224.92 336.273C 225.668 337.127 226.42 338.026 227.17 338.875C 227.27 339.175 227.221 339.475 227.02 339.726L 222.268 345.872C 222.219 345.975 222.117 346.124 222.318 346.323C 222.768 346.825 223.268 347.373 223.869 347.923C 223.869 347.923 223.869 347.972 223.92 347.972L 223.92 348.022L 223.969 348.022C 224.569 348.621 225.068 349.121 225.57 349.572C 225.77 349.772 225.919 349.674 226.02 349.622L 232.173 344.873C 232.423 344.671 232.724 344.623 233.023 344.722C 233.874 345.472 234.774 346.275 235.626 346.973C 235.776 347.322 235.776 347.621 235.575 347.872L 231.724 354.621C 231.622 354.722 231.575 354.872 231.772 355.072C 232.323 355.472 232.925 355.921 233.573 356.421L 233.573 356.472L 233.625 356.472L 233.625 356.52C 234.325 357.02 234.925 357.471 235.475 357.87C 235.675 358.02 235.776 357.921 235.876 357.822L 241.38 352.321C 241.629 352.072 241.88 351.972 242.23 352.021C 243.18 352.722 244.131 353.371 245.131 354.022C 245.279 354.27 245.33 354.572 245.18 354.872L 242.18 362.02C 242.129 362.171 242.129 362.321 242.33 362.471C 242.881 362.823 243.529 363.17 244.281 363.62L 244.329 363.62C 244.329 363.67 244.381 363.67 244.381 363.67C 245.081 364.071 245.732 364.42 246.333 364.77C 246.583 364.871 246.683 364.77 246.782 364.67L 251.435 358.52C 251.636 358.222 251.835 358.12 252.187 358.12C 253.236 358.671 254.335 359.219 255.387 359.721C 255.588 359.97 255.637 360.221 255.537 360.52L 253.537 367.97C 253.486 368.121 253.486 368.27 253.736 368.369C 254.335 368.621 254.986 368.918 255.788 369.271L 255.838 369.271C 255.887 369.271 255.887 369.271 255.887 369.32C 256.639 369.62 257.338 369.918 257.988 370.118C 258.238 370.22 258.34 370.118 258.389 369.97L 262.29 363.321C 262.392 363.021 262.591 362.871 262.892 362.823C 264.042 363.271 265.192 363.67 266.393 364.021C 266.593 364.22 266.644 364.471 266.593 364.77L 265.542 372.421C 265.542 372.57 265.542 372.719 265.794 372.769C 266.443 372.968 267.194 373.168 267.995 373.418L 268.044 373.418L 268.095 373.418C 268.895 373.667 269.645 373.819 270.246 373.969C 270.545 374.07 270.597 373.921 270.647 373.819L 273.648 366.618C 273.748 366.369 273.898 366.221 274.149 366.119C 275.398 366.369 276.599 366.618 277.849 366.821C 278.052 366.969 278.1 367.22 278.1 367.519L 278.1 375.27C 278.1 375.418 278.1 375.57 278.401 375.618C 279.051 375.718 279.802 375.818 280.604 375.918L 280.652 375.918L 280.701 375.918L 280.751 375.918C 281.552 376.068 282.303 376.12 282.952 376.218C 283.253 376.218 283.302 376.068 283.353 375.969L 285.354 368.469C 285.405 368.17 285.556 367.97 285.754 367.87C 286.955 367.97 288.204 368.021 289.457 368.069C 289.705 368.27 289.807 368.469 289.856 368.771L 290.856 376.468C 290.856 376.568 290.908 376.718 291.156 376.767L 292.606 376.767L 292.658 376.767L 292.707 376.767L 292.76 376.767L 292.808 376.767L 292.856 376.767L 292.907 376.767L 292.96 376.767L 293.009 376.767L 293.059 376.767L 293.109 376.767L 293.157 376.767L 293.208 376.767L 293.259 376.767L 293.309 376.767L 293.36 376.767L 293.409 376.767L 293.46 376.767L 293.508 376.767L 293.559 376.767L 293.608 376.767L 293.659 376.767L 293.711 376.767L 293.76 376.767L 293.809 376.767L 293.959 376.767L 294.01 376.767L 294.11 376.767L 294.159 376.767L 294.209 376.767L 294.26 376.767L 294.311 376.767L 294.359 376.767L 294.409 376.767L 294.459 376.767L 294.56 376.767L 294.611 376.767L 294.71 376.767L 295.409 376.767L 295.509 376.767L 295.56 376.767L 295.81 376.767C 296.06 376.718 296.111 376.568 296.158 376.468L 297.16 368.771C 297.16 368.469 297.31 368.27 297.51 368.069C 298.761 368.021 300.015 367.97 301.213 367.87C 301.465 367.97 301.613 368.17 301.713 368.469L 303.715 375.969C 303.715 376.068 303.817 376.218 304.065 376.218C 304.717 376.12 305.467 376.068 306.319 375.918L 306.366 375.918L 306.414 375.918C 307.266 375.818 307.969 375.718 308.671 375.618C 308.918 375.57 308.918 375.418 308.918 375.27L 308.918 367.519C 308.918 367.22 309.02 366.969 309.219 366.821C 310.421 366.618 311.669 366.369 312.87 366.119C 313.12 366.221 313.32 366.369 313.421 366.618L 316.372 373.819C 316.421 373.921 316.523 374.07 316.772 373.969C 317.422 373.819 318.125 373.667 318.973 373.418L 319.026 373.418L 319.074 373.418C 319.877 373.168 320.574 372.968 321.227 372.769C 321.477 372.719 321.477 372.57 321.477 372.421L 320.426 364.77C 320.375 364.471 320.475 364.22 320.625 364.021C 321.827 363.67 322.975 363.271 324.127 362.823C 324.426 362.871 324.625 363.021 324.78 363.321L 328.63 369.97C 328.73 370.118 328.83 370.22 329.081 370.118C 329.681 369.918 330.378 369.62 331.181 369.32L 331.181 369.271L 331.23 369.271C 332.033 368.918 332.732 368.621 333.334 368.369C 333.581 368.27 333.535 368.121 333.535 367.97L 331.482 360.52C 331.429 360.221 331.429 359.97 331.63 359.721C 332.732 359.219 333.784 358.671 334.883 358.12C 335.182 358.12 335.436 358.222 335.586 358.52L 340.338 364.67C 340.387 364.77 340.539 364.871 340.738 364.77C 341.337 364.42 341.987 364.071 342.74 363.67L 342.74 363.62L 342.79 363.62C 343.539 363.17 344.189 362.823 344.736 362.471C 344.99 362.321 344.939 362.171 344.89 362.02L 341.937 354.872C 341.786 354.572 341.786 354.27 341.937 354.022C 342.939 353.371 343.939 352.722 344.89 352.021C 345.189 351.972 345.488 352.072 345.691 352.321L 351.194 357.822C 351.295 357.921 351.393 358.02 351.643 357.87C 352.194 357.471 352.793 357.02 353.444 356.52L 353.444 356.472L 353.494 356.472C 353.494 356.472 353.494 356.421 353.543 356.421C 354.194 355.921 354.795 355.472 355.295 355.072C 355.494 354.872 355.444 354.722 355.395 354.621L 351.494 347.872C 351.295 347.621 351.295 347.322 351.44 346.973C 352.344 346.275 353.194 345.472 354.043 344.722C 354.393 344.623 354.645 344.671 354.946 344.873L 361.099 349.622C 361.199 349.674 361.298 349.772 361.5 349.572C 362 349.121 362.548 348.621 363.15 348.022L 363.15 347.972L 363.199 347.972L 363.199 347.923C 363.8 347.373 364.351 346.825 364.802 346.323C 364.952 346.124 364.901 345.975 364.802 345.872L 360.097 339.726C 359.847 339.475 359.798 339.175 359.898 338.875C 360.697 338.026 361.447 337.127 362.199 336.273C 362.5 336.125 362.796 336.125 363.099 336.324L 369.803 340.176C 369.903 340.273 370.053 340.325 370.254 340.123C 370.655 339.574 371.104 339.024 371.655 338.324L 371.655 338.277L 371.706 338.277C 372.204 337.574 372.657 336.975 373.055 336.476C 373.206 336.225 373.106 336.125 373.004 336.026L 367.502 330.527C 367.252 330.277 367.202 330.028 367.252 329.676C 367.903 328.726 368.551 327.776 369.204 326.776C 369.504 326.625 369.752 326.576 370.053 326.725L 377.257 329.725C 377.359 329.776 377.509 329.776 377.66 329.575C 378.009 329.026 378.361 328.377 378.81 327.627L 378.81 327.575L 378.859 327.575L 378.859 327.526C 379.259 326.825 379.66 326.176 379.959 325.576C 380.109 325.324 379.959 325.227 379.861 325.127L 373.709 320.428C 373.455 320.227 373.307 320.026 373.307 319.677C 373.855 318.627 374.406 317.527 374.906 316.477C 375.156 316.277 375.408 316.23 375.709 316.328L 383.213 318.327C 383.362 318.378 383.512 318.378 383.612 318.177C 383.915 317.527 384.213 316.878 384.512 316.077L 384.512 316.028L 384.565 315.977C 384.862 315.227 385.165 314.528 385.364 313.878C 385.465 313.629 385.364 313.527 385.264 313.477L 378.509 309.579C 378.259 309.479 378.109 309.279 378.058 308.979C 378.459 307.831 378.859 306.68 379.209 305.479C 379.461 305.28 379.66 305.231 379.959 305.28L 387.663 306.33C 387.815 306.33 387.963 306.33 388.063 306.079C 388.213 305.431 388.415 304.681 388.665 303.88L 388.665 303.83L 388.665 303.78C 388.915 302.981 389.065 302.23 389.215 301.63C 389.316 301.329 389.166 301.281 389.065 301.23L 381.859 298.232C 381.561 298.132 381.412 297.982 381.309 297.734C 381.611 296.481 381.81 295.281 382.06 294.031C 382.212 293.832 382.462 293.781 382.76 293.781L 390.515 293.781C 390.668 293.781 390.818 293.781 390.867 293.483C 390.966 292.832 391.066 292.082 391.168 291.283L 391.168 291.234L 391.168 291.184L 391.168 291.132C 391.318 290.333 391.367 289.582 391.466 288.93C 391.466 288.632 391.318 288.583 391.216 288.532L 383.712 286.532C 383.415 286.484 383.213 286.333 383.114 286.084C 383.213 284.833 383.26 283.633 383.313 282.385C 383.512 282.133 383.712 282.035 384.014 281.983L 391.716 280.984C 391.816 280.984 391.966 280.935 392.019 280.683L 392.019 278.434L 392.019 278.385L 392.019 278.333L 392.019 278.283L 392.019 276.035C 391.966 275.785 391.816 275.734 391.716 275.734z"/>
<path style="stroke:none; fill:#d9d9d9" d="M 286.271 331.014C 286.271 331.371 285.947 331.67 285.555 331.67L 278.489 331.67C 278.094 331.67 277.774 331.375 277.774 331.014L 277.774 329.587C 277.774 329.225 278.094 328.932 278.489 328.932L 285.555 328.932C 285.953 328.932 286.271 329.225 286.271 329.587L 286.271 331.014zM 277.891 324.958C 277.891 324.6 278.212 324.309 278.607 324.309L 285.437 324.309C 285.837 324.309 286.161 324.6 286.161 324.958L 286.161 326.346C 286.161 326.703 285.837 326.995 285.437 326.995L 278.607 326.995C 278.212 326.995 277.891 326.703 277.891 326.346L 277.891 324.958zM 288.591 327.93L 288.498 327.892L 288.262 327.804L 288.489 327.696L 288.578 327.653C 289.139 327.381 289.5 326.78 289.5 326.122L 289.5 324.004C 289.5 323.112 288.68 322.329 287.749 322.329L 276.161 322.329C 275.242 322.329 274.495 323.079 274.495 324.004L 274.495 326.122C 274.495 326.778 274.854 327.377 275.411 327.653L 275.5 327.698L 275.726 327.806L 275.491 327.894L 275.398 327.93C 274.767 328.165 274.344 328.804 274.344 329.517L 274.344 331.974C 274.344 332.897 275.038 333.648 275.891 333.648L 288.102 333.648C 288.957 333.648 289.653 332.897 289.653 331.974L 289.653 329.517C 289.653 328.804 289.228 328.165 288.591 327.93z"/>
<path style="stroke:none; fill:#d9d9d9" d="M 269.819 333.639L 266.234 333.639L 266.234 325.111C 266.224 324.78 265.957 324.768 265.827 324.763C 265.646 324.763 265.445 324.808 265.254 324.85L 262.586 325.473L 262.586 323.424L 265.402 322.711C 265.525 322.68 265.651 322.646 265.777 322.611C 266.259 322.478 266.758 322.343 267.227 322.34L 269.377 322.34C 269.665 322.343 269.817 322.503 269.819 322.806L 269.819 333.639z"/>
<path style="stroke:none; fill:#d9d9d9" d="M 188.354 219.33C 187.472 218.358 189.263 215.556 190.156 217.302C 190.283 218.476 189.163 219.613 188.354 219.33zM 207.027 206.182C 205.467 206.231 200.092 207.017 198.942 207.639C 196.2 209.123 195.114 210.563 193.417 213.12C 192.727 214.153 191.979 215.571 190.79 214.505C 189.909 213.717 189.051 214.92 188.03 214.616C 186.925 214.288 186.968 213.306 186.535 212.466C 185.918 211.267 184.481 212.575 183.666 212.716C 183.021 212.27 183.453 210.441 182.81 209.993C 180.701 209.964 180.23 211.276 180.711 212.999C 181.217 214.813 179.525 215.862 179.646 217.594C 180.224 218.153 181.098 217.969 181.704 217.594C 182.502 217.947 182.797 218.861 183.052 219.608C 183.479 220.857 184.026 220.187 185.02 220.147C 190.061 219.928 186.549 226.153 185.881 228.589C 185.522 229.904 185.028 231.795 185.748 233.078C 186.188 233.865 187.429 236.266 187.682 236.79C 188.835 238.749 194.484 241.491 192.512 237.209C 191.23 234.427 188.64 232.74 189.138 229.397C 189.718 225.484 190.438 222.601 192.059 219.002C 193.398 216.038 196.191 213.558 198.69 211.605C 199.918 210.643 201.198 209.844 202.812 209.821C 204.433 209.8 206.161 210.377 207.726 209.696C 208.436 208.729 207.775 206.917 207.027 206.182zM 198.548 225.263C 198.547 225.274 198.545 225.282 198.544 225.291C 198.381 227.435 196.459 227.524 196.242 226.829C 196.076 226.338 197.192 223.896 198.29 224.524C 198.377 224.575 198.565 224.918 198.562 225.01C 198.562 225.064 198.56 225.122 198.554 225.177C 198.551 225.206 198.549 225.234 198.548 225.263zM 194.625 224.202C 193.608 222.705 195.419 220.893 195.825 219.422C 196.003 219.179 196.1 218.849 196.521 218.82C 196.943 218.793 196.6 218.777 197.345 219.23C 198.092 219.682 195.64 225.702 194.625 224.202zM 202.256 213.669C 202.148 213.69 201.981 213.875 201.951 213.947C 201.229 215.606 202.791 220.909 200.131 220.939C 199.207 219.472 200.832 216.433 198.672 215.461C 197.042 214.725 195.884 215.741 195.1 217.088C 193.432 219.959 191.539 223.213 191.874 226.864C 192.415 227.83 193.813 227.697 194.405 228.605C 194.029 229.772 192.548 230.079 192.979 231.874C 192.999 231.952 193.196 232.183 193.268 232.211C 197.687 233.984 197.645 228.127 200.832 228.568C 201.414 229.043 200.619 230.892 201.467 231.575C 203.993 231.843 205.27 228.218 204.138 226.326C 202.434 223.478 203.795 222.617 204.626 219.858C 204.855 217.935 206.847 216.145 205.192 214.127C 204.847 213.633 202.897 213.539 202.256 213.669zM 184.517 208.531C 185.136 208.101 185.383 208.13 185.729 207.39C 186.073 206.661 186.606 206.099 187.459 206.064C 188.51 207.29 186.335 209.336 188 210.372C 189.644 210.506 189.015 208.873 190.661 209.008C 191.975 210.782 189.409 211.338 190.188 213.439C 192.798 214.312 193.585 210.569 193.518 208.74C 193.473 207.515 193.202 205.694 192.232 204.849C 191.18 203.935 189.743 202.733 188.433 202.234C 186.558 201.519 185.44 202.834 184.649 204.361C 183.896 205.812 182.465 207.103 182.558 208.873C 182.623 210.089 184.094 208.824 184.517 208.531zM 185.022 222.099C 184.959 222.005 184.479 221.851 184.337 221.884C 182.627 222.244 182.504 225.462 181.583 224.81C 180.66 224.157 182.177 222.087 181.104 221.012C 177.999 220.298 179.853 224.143 177.784 225.287C 177.288 225.128 176.932 225.102 176.805 224.634C 176.676 224.169 178.907 220.454 178.159 220.094C 176.18 218.803 176.016 220.81 175.874 222.334C 175.82 222.935 175.415 223.958 175.339 224.086C 174.182 226.081 175.749 227.275 177.691 228.044C 179.21 228.646 182.463 229.64 183.638 228.097C 184.72 226.674 186.222 223.829 185.022 222.099z"/>
<path style="stroke:none; fill:#d9d9d9" d="M 346.63 165.914C 346.595 165.905 346.41 165.741 346.349 165.67C 344.964 164.056 342.057 162.935 339.936 162.798C 339.819 162.791 339.61 162.741 339.475 162.693C 339.475 162.693 339.342 162.602 339.334 162.587C 338.899 162.103 338.213 160.183 339.774 160.68C 341.492 161.224 341.481 161.349 342.755 161.804C 343.894 162.211 345.767 162.818 346.779 163.301C 346.816 163.318 346.853 163.335 346.888 163.353C 346.962 163.392 347.033 163.43 347.097 163.463L 347.076 163.462C 347.255 163.565 347.425 163.682 347.583 163.829C 348.926 165.054 348.454 166.393 346.63 165.914zM 341.776 170.46C 342.117 168.415 344.726 170.612 344.101 171.971C 344.067 172.041 343.855 172.149 343.798 172.134C 343.447 172.024 343.191 171.796 342.951 171.552C 342.607 171.205 341.765 170.538 341.776 170.46zM 344.957 176.402C 344.519 177.663 341.14 175.422 341.208 173.846C 341.21 173.783 341.291 173.644 341.324 173.641C 342.373 173.497 345.4 175.118 344.957 176.402zM 342.374 181.919C 342.314 182 342.006 182.175 341.915 182.181C 340.092 182.258 337.275 181.303 337.227 179.212C 337.202 178.021 338.122 177.307 339.231 177.168C 339.631 177.119 339.959 177.229 340.264 177.39C 340.757 177.653 341.282 177.828 341.773 178.164C 341.881 178.236 341.983 178.312 342.078 178.391C 343.265 179.373 343.275 180.703 342.374 181.919zM 335.938 173.212C 335.418 172.976 333.547 171.984 333.774 171.201C 334.002 170.588 335.051 170.193 337.123 171.581C 337.207 171.639 337.35 172.02 337.334 172.152C 337.239 172.976 337.096 173.747 335.938 173.212zM 332.199 178.128C 331.087 177.428 330.251 176.207 330.515 175.628C 331.658 173.706 335.719 174.002 335.737 176.605C 335.747 178.147 333.293 178.817 332.199 178.128zM 336.631 168.551C 337.02 167.488 338.629 168.074 338.844 168.986C 338.86 169.06 338.713 169.236 338.639 169.249C 337.926 169.384 337.311 169.41 336.657 168.804C 336.631 168.779 336.612 168.606 336.631 168.551zM 325.538 173.164C 325.937 172.78 326.601 172.313 327.81 173.315C 327.872 173.367 328.031 173.643 328.04 173.719C 328.521 177.286 322.996 175.713 325.538 173.164zM 320.12 175.138C 318.998 174.653 320.689 168.262 322.782 169.679C 324.871 171.095 321.235 175.622 320.12 175.138zM 350.936 162.804C 346.953 160.547 342.871 158.822 338.342 158.021C 336.137 157.633 333.994 162.416 336.217 163.709C 337.1 164.223 340.561 164.076 340.432 165.55L 340.43 165.555C 340.27 166.477 336.883 164.729 334.217 166.212C 334.053 166.303 333.932 166.385 333.85 166.456C 333.052 166.997 332.392 167.958 331.648 168.643C 330.888 169.344 329.792 170.927 328.585 170.726C 327.624 170.56 325.972 168.987 326.078 168.773C 326.513 167.917 327.744 168.458 328.507 167.475C 329.896 165.685 329.599 163.602 330.384 161.635C 331.228 159.519 334.641 160.118 334.68 157.074C 334.698 155.836 333.539 155.133 332.69 154.304L 331.638 153.551C 331.134 153.24 329.056 153.269 329.39 154.811C 329.552 155.561 330.908 157.64 329.544 157.98C 327.697 158.444 325.123 157.622 323.334 157.166C 323.022 157.085 320.776 156.292 320.434 156.348C 320.157 156.391 319.92 156.465 319.77 156.605C 319.022 157.361 319.082 158.689 319.696 159.426C 319.707 159.436 319.717 159.45 319.729 159.461C 319.758 159.497 319.871 159.588 319.92 159.601C 320.319 159.705 321.782 159.796 321.814 159.796C 322.653 159.788 324.131 160.126 325.209 160.6L 325.209 160.592C 326.378 161.142 327.023 161.563 325.749 161.95C 325.728 161.958 325.705 161.961 325.683 161.971C 325.677 161.973 325.671 161.974 325.665 161.976C 323.823 162.606 320.516 160.981 318.684 161.909C 318.625 161.938 318.498 162.032 318.473 162.075C 318.307 162.356 317.803 163.393 318.391 163.706C 318.946 164.003 319.733 164.176 320.186 164.219C 320.545 164.25 322.883 164.209 323.969 164.165C 324.287 164.153 324.712 164.035 324.811 163.992C 325.01 163.906 325.226 163.833 325.466 163.798C 326.247 163.686 326.902 163.836 326.542 164.79C 326.092 165.981 321.78 167.169 320.641 166.895C 319.5 166.624 318.233 168.125 318.189 168.35C 317.989 169.403 318.09 170.566 317.602 171.681C 316.954 173.168 315.609 175.211 316.343 176.872C 316.537 177.413 319.895 177.579 323.745 178.116C 324.006 178.154 324.268 178.195 324.528 178.229C 326.966 178.6 329.527 179.131 331.556 180.01C 332.345 180.351 332.997 180.615 333.541 180.821C 336.342 182.248 339.229 184.04 339.682 184.562C 341.91 187.14 345.355 191.377 346.681 189.563C 346.585 187.755 345.55 186.438 344.776 184.888C 344.453 184.23 345.339 183.943 345.687 183.492C 346.984 181.822 347.314 179.278 347.746 177.274C 348.109 175.599 348.349 173.892 348.784 172.237C 349.288 170.333 346.695 169.033 344.996 168.544C 344.771 168.48 344.374 168.059 344.406 167.926C 344.718 166.57 347.208 167.664 348.751 168.643C 349.343 169.018 350.874 168.935 351.194 168.389C 351.674 167.565 351.989 166.529 352.409 165.871C 353.422 164.284 352.225 163.535 350.936 162.804z"/>
<path style="stroke:none; fill:#d9d9d9" d="M 169.378 285.717C 169.321 284.866 169.35 282.872 169.353 281.519C 170.172 281.608 171.146 281.661 172.141 281.67L 172.149 281.786C 171.292 282.863 170.755 284.321 170.857 285.882C 170.946 287.251 171.681 288.105 172.872 288.027C 173.727 287.97 174.222 287.583 174.777 286.763C 175.602 285.547 176.074 284.117 177.049 282.796C 178.15 281.324 179.256 280.945 180.629 280.855C 181.978 280.766 184.638 281.352 184.966 286.407C 185.028 287.352 185.079 288.843 185.028 290.105C 184.318 289.961 183.291 289.815 182.337 289.711L 182.328 289.594C 183.051 288.905 183.609 288.11 183.494 286.339C 183.384 284.66 182.407 283.894 181.418 283.958C 180.226 284.035 179.561 284.247 178.193 287.18C 176.49 290.851 175.371 291.018 173.954 291.112C 172.244 291.222 169.686 290.442 169.378 285.717z"/>
<path style="stroke:none; fill:#d9d9d9" d="M 179.906 305.534C 178.152 305.837 174.176 306.65 172.528 307.293C 172.43 306.396 172.37 306.07 172.248 305.42C 172.153 304.908 172.066 304.442 171.792 303.337C 173.911 303.135 177.076 302.642 178.716 302.338C 178.555 301.234 178.478 300.696 178.322 299.857C 178.166 299.02 177.994 298.208 177.775 297.285C 175.32 297.768 173.196 298.188 170.961 298.869C 170.872 298.018 170.749 297.367 170.68 296.995C 170.581 296.459 170.499 296.017 170.227 294.935C 172.333 294.783 176.029 294.193 177.691 293.883C 179.31 293.582 184.634 292.735 185.116 291.876L 185.204 291.858C 185.329 292.773 185.415 293.359 185.536 294.012C 185.661 294.686 185.809 295.357 185.983 296.048C 184.47 296.041 182.298 296.445 179.482 296.97C 179.635 298.169 179.726 298.657 179.886 299.519C 180.043 300.355 180.117 300.753 180.423 302.019C 183.809 301.365 185.37 301.123 186.697 300.25L 186.768 300.26C 186.841 301.016 186.94 301.553 187.1 302.414C 187.221 303.064 187.403 303.921 187.552 304.471C 185.553 304.579 181.949 305.179 179.906 305.534z"/>
<path style="stroke:none; fill:#d9d9d9" d="M 186.729 312.613L 186.701 312.521C 184.744 312.492 183.047 312.522 181.244 312.591C 181.382 313.169 181.502 313.603 181.672 314.12C 181.916 314.863 182.04 315.171 182.261 315.697C 183.749 314.736 185.314 313.648 186.729 312.613zM 176.926 321.281C 176.698 320.582 176.497 319.975 176.189 319.255C 177.732 318.675 179.923 317.259 180.957 316.572C 180.771 315.86 180.573 315.178 180.357 314.526C 180.143 313.874 179.866 313.167 179.682 312.678C 178.408 312.698 175.673 312.896 174.332 313.586C 174.103 312.814 174.028 312.439 173.844 311.877C 173.645 311.269 173.448 310.736 173.198 310.121C 174.139 310.31 175.831 310.479 176.532 310.523C 178.007 310.613 180.081 310.706 181.706 310.746C 183.168 310.79 185.524 310.816 187.343 310.793C 187.867 310.796 188.727 310.812 189.189 310.486L 189.318 310.444C 189.553 311.165 189.758 311.718 189.928 312.164C 190.165 312.807 190.413 313.424 190.7 314.078C 190.27 314.293 189.479 314.776 188.795 315.225C 187.429 316.12 185.742 317.271 184.468 318.162C 182.327 319.66 181.117 320.53 180.056 321.351C 179.6 321.7 178.491 322.586 177.598 323.551C 177.331 322.593 177.139 321.933 176.926 321.281z"/>
<path style="stroke:none; fill:#d9d9d9" d="M 190.321 333.515C 189.385 333.963 185.503 335.771 183.866 336.74C 183.458 335.831 182.987 335.008 182.487 334.278C 183.653 332.432 185.903 329.147 186.919 327.717L 189.982 323.362L 189.951 323.297L 185.987 325.198C 185.235 325.557 181.259 327.749 179.978 328.785C 179.775 328.25 179.59 327.814 179.355 327.325C 179.131 326.853 178.853 326.33 178.599 325.901C 180.806 325.448 186.166 322.959 187.202 322.462C 187.994 322.082 191.268 320.618 192.334 319.452L 192.436 319.404C 192.681 320.019 192.988 320.714 193.316 321.397C 193.653 322.101 193.99 322.754 194.297 323.288C 193.525 324.182 191.822 326.312 191.02 327.51C 189.447 329.866 188.433 331.297 187.562 332.605L 187.591 332.67L 190.235 331.405C 191.76 330.673 195.662 328.538 196.404 327.685C 196.547 328.09 196.824 328.719 197.05 329.187C 197.355 329.829 197.387 329.892 197.774 330.549C 195.833 331.034 191.4 332.998 190.321 333.515z"/>
<path style="stroke:none; fill:#d9d9d9" d="M 195.799 349.189C 195.278 349.502 194.235 350.132 193.227 350.938C 191.691 349.342 190.842 348.258 189.735 346.579C 187.052 342.504 187.487 339.271 192.233 336.146C 195.151 334.225 199.382 333.025 203.053 338.602C 204.056 340.124 205.134 341.964 205.632 342.883C 204.582 343.176 203.757 343.523 202.794 343.986L 202.702 343.849C 203.062 342.59 202.806 340.89 201.712 339.228C 200.007 336.639 197.285 337.098 194.217 339.121C 189.923 341.946 189.94 343.977 191.514 346.372C 192.229 347.458 192.891 347.191 193.475 346.807L 194.83 345.914C 195.452 345.505 196.205 345.008 196.695 344.033L 196.803 343.991C 197.131 344.57 197.529 345.213 197.907 345.789C 198.402 346.541 198.544 346.757 199.056 347.414C 198.308 347.708 196.792 348.564 195.799 349.189z"/>
<path style="stroke:none; fill:#d9d9d9" d="M 209.294 358.816C 207.94 359.974 204.937 362.707 203.851 364.1C 203.308 363.38 203.089 363.13 202.652 362.631C 202.309 362.24 201.995 361.883 201.194 361.073C 202.913 359.818 205.382 357.778 206.636 356.677C 205.936 355.812 205.594 355.387 205.031 354.749C 204.468 354.106 203.904 353.5 203.246 352.817C 201.382 354.486 199.771 355.933 198.196 357.659C 197.686 356.974 197.249 356.476 196.998 356.191C 196.639 355.782 196.342 355.444 195.558 354.653C 197.29 353.448 200.164 351.049 201.436 349.935C 202.672 348.849 206.815 345.4 206.79 344.414L 206.858 344.354C 207.434 345.08 207.807 345.54 208.244 346.037C 208.697 346.552 209.166 347.052 209.668 347.558C 208.363 348.325 206.703 349.783 204.551 351.671C 205.297 352.624 205.625 352.999 206.202 353.655C 206.765 354.297 207.03 354.599 207.94 355.532C 210.518 353.238 211.734 352.232 212.431 350.803L 212.496 350.776C 212.945 351.391 213.303 351.798 213.881 352.458C 214.319 352.957 214.913 353.6 215.321 353.998C 213.659 355.11 210.868 357.466 209.294 358.816z"/>
<path style="stroke:none; fill:#d9d9d9" d="M 218.785 361.426L 218.714 361.363C 217.015 362.334 215.572 363.229 214.056 364.208C 214.472 364.631 214.795 364.946 215.204 365.303C 215.792 365.819 216.056 366.018 216.514 366.36C 217.304 364.774 218.097 363.039 218.785 361.426zM 214.774 373.883C 214.222 373.402 213.741 372.98 213.108 372.517C 214.139 371.231 215.303 368.894 215.84 367.776C 215.317 367.259 214.798 366.775 214.281 366.322C 213.764 365.87 213.165 365.405 212.759 365.08C 211.671 365.746 209.42 367.313 208.619 368.587C 208.028 368.041 207.773 367.757 207.327 367.368C 206.846 366.947 206.404 366.59 205.875 366.188C 206.78 365.872 208.322 365.153 208.948 364.832C 210.263 364.156 212.092 363.18 213.513 362.384C 214.792 361.676 216.831 360.496 218.384 359.547C 218.836 359.282 219.583 358.859 219.814 358.343L 219.904 358.24C 220.473 358.739 220.934 359.112 221.305 359.407C 221.838 359.843 222.367 360.245 222.945 360.662C 222.687 361.064 222.253 361.883 221.893 362.618C 221.175 364.086 220.311 365.937 219.67 367.354C 218.593 369.736 217.995 371.1 217.504 372.347C 217.289 372.879 216.787 374.207 216.513 375.493C 215.793 374.806 215.291 374.336 214.774 373.883z"/>
<path style="stroke:none; fill:#d9d9d9" d="M 220.517 378.184C 219.94 377.77 219.543 377.509 218.71 376.965C 220.507 375.037 222.413 372.437 223.453 370.992C 224.942 368.924 227.075 366.126 227.375 364.453L 227.415 364.397C 227.984 364.864 228.472 365.243 229.026 365.643C 229.583 366.045 230.226 366.452 230.911 366.916C 229.496 368.314 227.024 371.786 226.522 372.48C 225.692 373.633 223.3 376.912 222.052 379.375C 221.233 378.729 220.862 378.434 220.517 378.184z"/>
<path style="stroke:none; fill:#d9d9d9" d="M 238.313 380.207C 237.295 382.041 236.169 384.122 235.754 384.872C 234.508 387.121 232.496 388.118 227.572 386.062L 228.013 384.683C 230.017 385.509 231.212 385.502 232.515 383.541C 232.992 382.826 234.061 380.944 234.847 379.524C 236.212 377.059 238.453 373.454 238.448 371.803L 238.503 371.704C 239.206 372.144 239.817 372.509 240.395 372.828C 240.976 373.15 241.545 373.44 242.251 373.78C 240.807 375.507 239.131 378.728 238.313 380.207z"/>
<path style="stroke:none; fill:#d9d9d9" d="M 242.258 390.794C 241.334 390.31 240.914 390.089 240.529 389.909C 239.885 389.606 239.447 389.427 238.528 389.046C 239.937 386.819 241.325 383.908 242.08 382.295C 243.16 379.988 244.738 376.843 244.723 375.144L 244.751 375.082C 245.398 375.435 245.946 375.715 246.568 376.007C 247.189 376.298 247.894 376.578 248.654 376.91C 247.521 378.546 245.738 382.414 245.372 383.189C 244.772 384.478 243.029 388.143 242.257 390.794L 242.258 390.794z"/>
<path style="stroke:none; fill:#d9d9d9" d="M 254.849 382.817L 254.76 382.787C 253.535 384.312 252.519 385.672 251.467 387.141C 252.009 387.382 252.424 387.555 252.938 387.738C 253.674 388.002 253.994 388.091 254.543 388.242C 254.697 386.477 254.799 384.573 254.849 382.817zM 255.682 395.88C 254.992 395.632 254.39 395.418 253.63 395.217C 254.119 393.645 254.346 391.044 254.436 389.807C 253.759 389.516 253.099 389.256 252.452 389.025C 251.806 388.795 251.077 388.582 250.579 388.427C 249.812 389.446 248.292 391.728 248.015 393.21C 247.265 392.917 246.923 392.746 246.367 392.547C 245.764 392.332 245.22 392.161 244.581 391.981C 245.309 391.355 246.48 390.122 246.945 389.592C 247.921 388.482 249.265 386.903 250.292 385.644C 251.224 384.514 252.689 382.669 253.787 381.217C 254.11 380.806 254.651 380.137 254.677 379.573L 254.723 379.445C 255.436 379.701 256 379.879 256.453 380.018C 257.108 380.228 257.746 380.408 258.438 380.585C 258.346 381.052 258.243 381.973 258.178 382.787C 258.047 384.419 257.922 386.457 257.844 388.008C 257.715 390.62 257.659 392.108 257.659 393.449C 257.655 394.024 257.673 395.442 257.889 396.741C 256.967 396.363 256.328 396.111 255.682 395.88z"/>
<path style="stroke:none; fill:#d9d9d9" d="M 264.89 390.786C 264.142 394.268 264.573 396.876 267.21 397.443C 270.313 398.111 271.499 395.184 272.145 392.184C 272.751 389.364 272.954 385.949 269.944 385.303C 266.913 384.648 265.597 387.503 264.89 390.786zM 275.671 392.898C 274.932 396.337 273.068 400.27 266.89 398.942C 263.14 398.136 260.016 396.335 261.378 390.007C 262.169 386.327 264.019 382.458 270.175 383.783C 275.452 384.918 276.72 388.028 275.671 392.898z"/>
<path style="stroke:none; fill:#d9d9d9" d="M 294.914 388.544L 294.774 388.538C 294.26 388.272 292.664 387.898 290.7 387.826C 290.683 388.299 290.501 391.358 290.383 394.606C 290.266 397.804 290.454 401.082 290.554 401.605C 289.611 401.526 289.35 401.493 288.522 401.465C 287.812 401.438 287.292 401.418 286.414 401.455C 286.819 399.483 287.017 395.295 287.075 393.762C 287.134 392.14 287.191 389.21 287.224 387.7C 285.566 387.64 283.431 387.741 282.803 388.103L 282.66 388.098C 282.826 387.449 283.001 386.53 283.022 385.945C 285.219 386.159 287.016 386.248 289.025 386.321C 291.203 386.399 293.309 386.477 295.466 386.399C 295.235 386.908 295.062 387.782 294.914 388.544z"/>
<path style="stroke:none; fill:#d9d9d9" d="M 299.306 394.067C 299.605 397.616 300.779 399.984 303.467 399.756C 306.627 399.492 306.911 396.346 306.653 393.292C 306.412 390.415 305.61 387.087 302.543 387.345C 299.451 387.607 299.025 390.718 299.306 394.067zM 310.236 392.943C 310.531 396.449 309.896 400.756 303.598 401.285C 299.775 401.607 296.262 400.794 295.721 394.345C 295.405 390.592 296.044 386.357 302.321 385.826C 307.7 385.375 309.818 387.979 310.236 392.943z"/>
<path style="stroke:none; fill:#d9d9d9" d="M 324.594 390.225C 324.82 391.238 325.706 395.429 326.279 397.242C 325.305 397.435 324.395 397.708 323.569 398.032C 322.034 396.479 319.342 393.544 318.178 392.233L 314.626 388.267L 314.556 388.284L 315.513 392.574C 315.697 393.389 316.935 397.754 317.655 399.234C 317.089 399.314 316.622 399.396 316.091 399.513C 315.583 399.626 315.009 399.777 314.535 399.931C 314.589 397.677 313.374 391.896 313.122 390.774C 312.933 389.915 312.244 386.396 311.347 385.094L 311.322 384.984C 311.98 384.884 312.724 384.742 313.464 384.577C 314.224 384.408 314.937 384.226 315.527 384.047C 316.224 385.001 317.915 387.142 318.901 388.191C 320.842 390.253 322.006 391.564 323.088 392.71L 323.153 392.693L 322.518 389.833C 322.149 388.185 320.952 383.9 320.287 382.984C 320.713 382.937 321.389 382.81 321.895 382.697C 322.59 382.541 322.661 382.525 323.381 382.294C 323.416 384.295 324.335 389.059 324.594 390.225z"/>
<path style="stroke:none; fill:#d9d9d9" d="M 341.106 388.482C 341.291 389.062 341.665 390.221 342.222 391.386C 340.313 392.517 339.063 393.095 337.174 393.789C 332.595 395.463 329.546 394.298 327.593 388.963C 326.39 385.682 326.195 381.29 332.464 378.995C 334.176 378.367 336.215 377.74 337.223 377.465C 337.27 378.555 337.416 379.437 337.647 380.481L 337.491 380.539C 336.35 379.899 334.635 379.759 332.767 380.442C 329.855 381.509 329.679 384.262 330.943 387.713C 332.709 392.541 334.69 392.99 337.381 392.006C 338.602 391.559 338.497 390.853 338.254 390.197L 337.696 388.672C 337.442 387.976 337.131 387.128 336.293 386.426L 336.278 386.311C 336.914 386.127 337.633 385.887 338.28 385.651C 339.125 385.342 339.368 385.253 340.122 384.905C 340.239 385.703 340.725 387.373 341.106 388.482z"/>
<path style="stroke:none; fill:#d9d9d9" d="M 357.353 371.874C 358.189 373.37 359.179 375.168 360.068 376.659C 361.523 379.099 361.574 381.589 357.509 384.013C 353.239 386.56 351.305 385.534 349.69 382.824C 349.273 382.127 348.205 380.244 347.455 378.985C 346.923 378.095 345.154 374.896 343.962 374.242L 343.929 374.184C 344.482 373.906 345.163 373.526 345.775 373.161C 346.382 372.798 346.871 372.507 347.628 371.977C 348.257 373.858 350.356 377.332 350.899 378.244C 352.248 380.508 353.147 381.969 353.719 382.467C 354.524 383.168 355.766 383.267 356.946 382.563C 359.734 380.902 358.933 379.146 357.179 376.204C 354.719 372.079 353.856 370.494 352.286 369.199C 352.735 368.985 353.133 368.771 353.844 368.348C 354.475 367.972 354.807 367.747 355.274 367.417C 355.872 369.345 356.843 370.972 357.353 371.874z"/>
<path style="stroke:none; fill:#d9d9d9" d="M 370.989 365.242C 371.635 366.054 374.266 369.432 375.576 370.813C 374.785 371.415 374.086 372.056 373.483 372.708C 371.426 371.984 367.721 370.524 366.1 369.855L 361.169 367.844L 361.115 367.888L 363.853 371.327C 364.373 371.979 367.399 375.362 368.692 376.38C 368.219 376.697 367.835 376.974 367.407 377.314C 367.002 377.639 366.551 378.025 366.192 378.369C 365.255 376.319 361.632 371.654 360.916 370.755C 360.369 370.067 358.21 367.203 356.834 366.425L 356.762 366.337C 357.311 365.959 357.916 365.504 358.511 365.033C 359.121 364.547 359.681 364.072 360.134 363.654C 361.179 364.206 363.634 365.39 364.98 365.904C 367.629 366.91 369.249 367.578 370.723 368.136L 370.778 368.092L 368.952 365.798C 367.899 364.476 364.95 361.147 363.949 360.616C 364.308 360.386 364.861 359.975 365.27 359.652C 365.824 359.21 365.881 359.165 366.432 358.641C 367.34 360.427 370.247 364.306 370.989 365.242z"/>
<path style="stroke:none; fill:#d9d9d9" d="M 380.334 366.268C 379.824 366.762 379.502 367.109 378.816 367.834C 377.234 365.727 375.005 363.396 373.762 362.12C 371.989 360.29 369.608 357.702 368.012 357.114L 367.965 357.065C 368.521 356.585 368.978 356.173 369.471 355.696C 369.965 355.217 370.477 354.658 371.057 354.064C 372.184 355.703 375.169 358.742 375.767 359.356C 376.755 360.376 379.566 363.304 381.772 364.963C 380.995 365.658 380.638 365.971 380.334 366.268z"/>
<path style="stroke:none; fill:#d9d9d9" d="M 382.112 345.785C 382.846 347.039 384.008 348.939 385.01 350.61C 386.014 352.28 388.003 355.608 388.893 357.027C 388.323 357.659 387.772 358.404 387.305 359.157C 384.878 358.074 382.403 357.045 379.849 356.006C 377.861 355.207 375.974 354.43 374.64 353.939C 373.824 353.646 372.693 353.302 372.139 353.325L 372.071 353.266C 372.569 352.788 373.095 352.209 373.587 351.601C 374.109 350.99 374.603 350.385 375.031 349.815C 375.509 350.226 376.369 350.713 376.974 351.045C 377.968 351.586 379.74 352.358 381.662 353.164C 383.083 353.759 384.088 354.216 385.288 354.652L 385.35 354.581C 384.739 353.526 383.422 351.493 382.768 350.525C 381.141 348.164 379.873 346.421 378.589 345.664C 379.009 345.243 379.349 344.883 379.752 344.414C 380.136 343.966 380.445 343.606 380.811 343.077C 381.171 344.074 381.679 345.04 382.112 345.785z"/>
<path style="stroke:none; fill:#d9d9d9" d="M 399.553 342.573C 398.202 344.402 397.422 345.59 396.57 346.844C 395.668 348.176 395.4 348.567 394.007 350.739C 392.234 349.137 390.42 347.875 387.977 346.217C 385.458 344.506 382.374 342.267 381.298 342.367L 381.243 342.329C 382.215 341.015 383.438 339.215 384.129 338.196C 384.688 337.373 385.641 335.929 386.868 334.046C 387.157 334.5 387.934 335.2 388.402 335.517L 388.349 335.595C 387.348 336.346 386.087 337.923 384.77 339.861C 385.889 340.822 387.967 342.176 388.956 342.846C 389.796 341.614 390.441 340.622 391.088 339.228C 391.525 339.668 392.142 340.203 392.707 340.615C 391.519 341.639 390.82 342.711 390.18 343.651L 392.402 345.158C 394.509 346.59 394.998 346.55 395.783 345.393C 396.781 343.924 397.606 342.31 397.786 341.002L 397.864 340.884C 398.438 341.645 398.958 342.084 399.553 342.573z"/>
<path style="stroke:none; fill:#d9d9d9" d="M 391.666 328.17C 391.338 328.8 391.13 329.251 390.98 329.681C 391.877 330.254 393.058 330.869 393.398 331.045C 394.279 331.503 394.767 331.783 395.586 332.211C 395.871 331.717 396.043 331.433 396.228 331.076C 396.937 329.71 396.831 328.451 394.748 327.371C 392.99 326.455 392.115 327.309 391.666 328.17zM 406.158 330.209C 405.832 330.84 405.607 331.365 405.224 332.151C 404.046 331.779 402.762 331.512 401.312 331.266C 399.866 331.021 398.792 330.887 398.223 331.152C 397.65 331.416 397.356 332.036 396.927 332.906C 398.048 333.437 401.792 335.33 403.354 335.743C 403.008 336.311 402.651 336.95 402.321 337.582C 401.995 338.211 401.71 338.81 401.456 339.398C 399.667 338.095 395.935 336.181 394.755 335.567C 392.736 334.516 389.067 332.527 387.864 332.545L 387.805 332.513C 388.393 331.431 388.829 330.592 389.388 329.52C 390.033 328.279 390.494 327.345 391.183 326.024C 392.601 323.293 394.425 323.201 396.088 324.066C 397.807 324.96 398.772 326.769 397.96 329.014L 398.001 329.035C 398.62 327.942 399.465 327.635 400.479 327.736C 401.18 327.809 401.393 327.838 402.63 328C 404.221 328.214 406.158 328.5 407.113 328.225L 407.232 328.286C 406.746 329.128 406.42 329.704 406.158 330.209z"/>
<path style="stroke:none; fill:#d9d9d9" d="M 409.519 322.612C 409.215 323.408 408.355 325.207 407.787 326.435C 407.08 326.012 406.217 325.553 405.317 325.131L 405.361 325.021C 406.586 324.402 407.685 323.302 408.246 321.844C 408.74 320.561 408.427 319.479 407.312 319.051C 406.515 318.744 405.902 318.889 405.053 319.401C 403.797 320.161 402.77 321.262 401.331 322.054C 399.714 322.93 398.551 322.813 397.267 322.32C 396.004 321.836 393.836 320.19 395.65 315.462C 395.99 314.578 396.566 313.201 397.142 312.078C 397.727 312.507 398.596 313.068 399.422 313.563L 399.381 313.673C 398.436 313.995 397.595 314.485 396.96 316.142C 396.357 317.711 396.922 318.815 397.847 319.171C 398.965 319.598 399.655 319.686 402.126 317.592C 405.209 314.973 406.297 315.288 407.621 315.797C 409.22 316.412 411.216 318.192 409.519 322.612z"/>
<path style="stroke:none; fill:#d9d9d9" d="M 412.946 312.022C 412.747 312.706 412.637 313.167 412.402 314.133C 409.984 313.085 406.894 312.162 405.184 311.665C 402.737 310.953 399.385 309.88 397.71 310.157L 397.644 310.139C 397.893 309.446 398.087 308.861 398.278 308.203C 398.469 307.543 398.639 306.805 398.848 306C 400.637 306.869 404.737 308.035 405.56 308.274C 406.924 308.669 410.814 309.827 413.553 310.178C 413.219 311.166 413.062 311.613 412.946 312.022z"/>
<path style="stroke:none; fill:#d9d9d9" d="M 403.639 293.606L 403.61 293.746C 403.266 294.208 402.641 295.724 402.258 297.653C 402.723 297.745 405.715 298.414 408.9 299.047C 412.039 299.674 415.305 300.01 415.837 299.997C 415.608 300.917 415.536 301.167 415.372 301.979C 415.233 302.676 415.133 303.186 415.028 304.058C 413.147 303.346 409.043 302.48 407.539 302.18C 405.946 301.863 403.065 301.336 401.579 301.065C 401.255 302.69 401.016 304.813 401.27 305.494L 401.244 305.632C 400.63 305.365 399.753 305.045 399.174 304.931C 399.737 302.798 400.112 301.038 400.505 299.065C 400.93 296.929 401.342 294.863 401.608 292.719C 402.075 293.029 402.911 293.34 403.639 293.606z"/>
<path style="stroke:none; fill:#d9d9d9" d="M 404.458 281.42C 405.626 282.349 406.843 283.234 411.158 286.018C 412.64 286.14 413.45 286.208 414.534 286.229C 415.549 286.241 416.815 286.253 417.551 286.124C 417.413 286.968 417.366 287.532 417.313 288.171C 417.257 288.831 417.229 289.186 417.204 290.276C 416.548 290.031 415.075 289.764 414.313 289.7C 413.234 289.611 412.408 289.472 410.923 289.347C 407.295 290.825 404.18 292.371 403.401 292.758C 402.905 293 401.997 293.567 401.649 293.942L 401.559 293.934C 401.672 293.136 401.76 292.36 401.827 291.557C 401.893 290.756 401.94 289.927 401.971 289.027C 402.534 289.051 403.11 288.934 403.598 288.759C 404.809 288.338 406.482 287.836 409.134 286.68L 409.14 286.609C 407.722 285.706 405.641 284.63 404.421 284.053C 403.835 283.768 402.995 283.53 402.43 283.53C 402.522 282.945 402.579 282.546 402.647 281.72C 402.698 281.106 402.747 280.518 402.727 279.969C 403.311 280.565 404.12 281.177 404.458 281.42z"/>
<path style="stroke:none; fill:#d9d9d9" d="M 403.458 218.101C 403.329 220.281 401.024 221.749 399.202 222.771C 397.421 223.765 395.05 221.42 394.652 219.933C 394.455 219.21 394.263 216.94 394.908 216.419C 395.652 215.821 396.723 216.29 397.477 215.667C 397.546 215.614 397.627 215.28 397.616 215.19C 397.356 213.041 400.616 214.393 402.321 215.741C 402.837 216.147 403.478 217.71 403.458 218.101zM 407.865 232.122C 407.724 231.504 407.269 229.854 407.215 228.774L 407.213 228.778C 407.156 225.95 406.476 223.487 406.094 220.692C 405.931 219.479 405.273 214.969 407.381 215.004C 407.509 215.006 407.892 214.539 407.904 214.395C 408.093 212.174 406.654 211.299 404.672 212.106C 403.573 212.552 402.952 212.701 401.903 212.016C 401.682 211.873 399.546 210.657 397.585 209.352C 396.345 208.533 392.566 205.65 392.566 205.65C 390.843 204.62 389.128 202.011 388.106 204.994C 389.427 207.644 392.4 208.591 394.439 210.44C 395.441 211.317 396.127 213.238 394.086 212.558C 392.089 211.844 389.806 209.381 388.582 208.68C 387.434 208.015 384.786 207.756 385.7 209.864C 386.239 211.104 387.235 212.2 388.476 212.776C 389.162 213.095 391.568 213.884 391.709 214.424C 392.082 215.193 391.918 217.116 391.371 217.789C 390.476 218.89 388.079 217.137 386.926 216.231C 386.86 216.177 386.362 215.858 385.676 215.451C 384.92 214.996 383.264 214.216 382.157 213.713C 381.586 213.457 380.41 213.041 380.068 212.94C 378.853 212.578 374.998 211.627 375.757 214.355C 375.769 214.397 375.867 214.54 375.998 214.629C 376.39 214.906 377.322 215.514 378.377 216.093C 379.39 216.65 384.022 218.079 385.721 218.994C 387.321 219.857 389.166 220.296 390.529 221.569C 391.102 222.109 391.312 222.576 391.427 223.071C 391.545 223.566 392.142 226.545 392.142 227.608C 392.142 230.313 391.447 233.506 390.814 235.551C 390.161 237.666 388.288 241.156 391.709 241.283C 395.119 241.412 394.99 230.202 395.185 227.735C 395.244 226.984 395.504 223.609 396.986 224.847C 399.456 226.918 398.813 230.279 399.112 233.043C 399.194 233.834 399.887 234.046 400.575 234.253C 400.803 234.323 401.69 234.283 401.794 234.12C 402.356 233.221 402.442 232.079 402.383 231.041C 402.286 229.239 401.428 226.731 402.137 224.933C 402.631 223.902 403.409 223.554 403.77 224.812C 403.786 224.867 403.801 224.906 403.819 224.95C 403.922 225.329 404.079 226.508 404.073 226.757C 404.028 228.78 404.797 234.146 404.901 234.281C 405.698 235.337 407.162 235.916 408.187 234.518C 408.537 234.097 408.002 232.74 407.865 232.122z"/>
<path style="stroke:none; fill:#d9d9d9" d="M 305.84 326.558C 305.84 326.916 305.518 327.208 305.123 327.208L 298.132 327.208C 297.732 327.208 297.408 326.916 297.408 326.558L 297.408 324.954C 297.408 324.6 297.732 324.308 298.132 324.308L 298.132 324.314L 305.123 324.314C 305.51 324.314 305.84 324.61 305.84 324.961L 305.84 326.558zM 307.735 322.329L 295.52 322.329C 294.665 322.329 293.972 323.081 293.972 324.01L 293.972 327.578C 293.972 328.499 294.665 329.251 295.52 329.251L 300.314 329.253L 305.123 329.257C 305.51 329.257 305.84 329.555 305.84 329.905L 305.84 331.021C 305.84 331.377 305.518 331.667 305.123 331.667L 298.125 331.667C 297.843 331.667 297.605 331.52 297.488 331.307L 293.972 331.307L 293.972 331.977C 293.972 332.899 294.665 333.651 295.52 333.651L 307.735 333.651C 308.586 333.651 309.281 332.899 309.281 331.973L 309.281 324.01C 309.281 323.081 308.586 322.329 307.735 322.329z"/>
<path style="stroke:none; fill:#d9d9d9" d="M 317.041 329.418C 317.041 329.062 317.36 328.77 317.754 328.77L 324.746 328.77C 325.144 328.77 325.472 329.062 325.472 329.418L 325.472 331.023C 325.472 331.38 325.144 331.672 324.746 331.672L 324.746 331.664L 317.754 331.664C 317.365 331.664 317.041 331.367 317.041 331.016L 317.041 329.418zM 315.14 333.651L 327.359 333.651C 328.21 333.651 328.906 332.897 328.906 331.971L 328.906 328.402C 328.906 327.479 328.21 326.727 327.359 326.727L 322.563 326.725L 317.754 326.723C 317.365 326.723 317.041 326.424 317.041 326.072L 317.041 324.959C 317.041 324.602 317.36 324.311 317.754 324.311L 324.752 324.311C 325.034 324.311 325.275 324.459 325.389 324.674L 328.906 324.674L 328.906 324.001C 328.906 323.078 328.21 322.328 327.359 322.328L 315.14 322.328C 314.292 322.328 313.599 323.08 313.599 324.007L 313.599 331.971C 313.599 332.897 314.292 333.651 315.14 333.651z"/>
</g>
</g>
<g>
</g>
</g>
<g>
</g>
</svg>