<?xml version="1.0" encoding="UTF-8" standalone="yes"?>
<!-- Created with sK1/UniConvertor (http://sk1project.org/) -->
<svg xmlns="http://www.w3.org/2000/svg" xmlns:xlink="http://www.w3.org/1999/xlink"
  width="595.276pt" height="841.89pt" viewBox="0 0 595.276 841.89"
  fill-rule="evenodd">
  <defs> 
	<marker id="ArrowEnd" viewBox="0 0 10 10" refX="0" refY="5" 
		markerUnits="strokeWidth" 
		markerWidth="4" 
		markerHeight="3" 
		orient="auto"> 
		<path d="M 0 0 L 10 5 L 0 10 z" /> 
	</marker>
	<marker id="ArrowStart" viewBox="0 0 10 10" refX="10" refY="5" 
		markerUnits="strokeWidth" 
		markerWidth="4" 
		markerHeight="3" 
		orient="auto"> 
		<path d="M 10 0 L 0 5 L 10 10 z" /> 
	</marker> </defs>
<g>
<g>
<g>
<path style="stroke:none; fill:#a50000" d="M 309.59 146.618C 231.43 146.618 167.841 210.208 167.841 288.369C 167.841 366.531 231.43 430.12 309.59 430.12C 387.752 430.12 451.34 366.531 451.34 288.369C 451.34 210.208 387.752 146.618 309.59 146.618zM 447.874 288.369C 447.874 364.62 385.841 426.655 309.59 426.655C 233.339 426.655 171.305 364.62 171.305 288.369C 171.305 212.118 233.339 150.083 309.59 150.083C 385.841 150.083 447.874 212.118 447.874 288.369z"/>
<path style="stroke:none; fill:#a50000" d="M 309.59 151.905C 234.344 151.905 173.124 213.123 173.124 288.37C 173.124 363.617 234.344 424.835 309.59 424.835C 384.837 424.835 446.056 363.617 446.056 288.37C 446.056 213.123 384.837 151.905 309.59 151.905zM 444.757 288.37C 444.757 362.901 384.121 423.538 309.59 423.538C 235.059 423.538 174.425 362.901 174.425 288.37C 174.425 213.838 235.059 153.204 309.59 153.204C 384.121 153.204 444.757 213.838 444.757 288.37z"/>
<path style="stroke:none; fill:#a50000" d="M 266.498 166.525C 266.305 171.622 271.034 168.946 274.046 168.713C 275.102 168.633 284.62 164.918 283.285 168.829C 282.457 171.26 279.335 170.458 277.404 170.679C 275.096 170.946 272.491 171.782 270.379 172.751C 268.313 173.696 269.852 175.026 271.504 174.612C 273.022 174.227 274.459 174.087 276.029 174.177C 279.779 174.397 283.734 175.484 286.822 177.673C 288.394 178.789 292.882 183.231 290.054 184.575C 288.344 185.387 285.993 183.006 284.773 181.941C 282.806 180.226 281.5 178.707 278.912 177.892C 274.246 176.421 269.484 177.333 265.782 180.537C 262.413 183.457 259.934 186.778 259.147 191.189C 258.822 193.012 258.033 199.56 255.026 197.389C 251.707 194.992 256.439 187.202 257.311 185.817C 257.745 185.125 258.574 184.206 259.462 183.241C 260.037 182.616 261.335 181.094 262.322 179.965C 262.858 179.349 264.621 177.676 265.325 177.119C 266.366 176.298 266.8 174.832 264.863 174.92C 263.033 174.999 262.225 176.087 259.994 177.026C 257.766 177.968 252.039 183.24 250.951 180.117C 249.606 176.25 258.166 174.694 260.485 173.773C 261.022 173.559 261.751 173.307 262.32 173.093C 262.774 172.922 263.375 172.52 263.453 172.416C 263.927 171.788 264.272 170.872 264.085 170.415C 263.613 169.27 262.766 167.85 262.764 166.654C 263.702 165.801 265.501 165.738 266.498 166.525z"/>
<path style="stroke:none; fill:#a50000" d="M 258.939 323.013L 248.92 317.652L 245.595 323.452C 247.994 325.09 249.155 327.57 249.479 330.436L 267.346 339.999L 272.816 330.44L 263.869 325.655L 291.531 274.154C 291.657 273.947 291.605 273.731 291.347 273.585L 287.116 271.326C 286.823 271.189 286.636 271.264 286.516 271.481L 258.939 323.015L 258.939 323.013z"/>
<path style="stroke:none; fill:#a50000" d="M 275.466 327.029L 348.132 327.029C 349.61 327.029 350.817 328.245 350.817 329.731L 350.817 346.438C 350.817 347.927 349.61 349.143 348.132 349.143L 275.466 349.143C 273.985 349.143 272.774 347.927 272.774 346.438L 272.774 329.731C 272.774 328.24 273.985 327.028 275.466 327.028M 276.359 329.38L 346.991 329.38C 347.796 329.38 348.454 330.04 348.454 330.852L 348.454 345.317C 348.454 346.126 347.796 346.791 346.991 346.791L 276.706 346.791C 275.899 346.791 275.238 346.126 275.238 345.317L 275.238 330.497C 275.238 329.885 275.743 329.382 276.353 329.382L 276.359 329.38z"/>
<path style="stroke:none; fill:#a50000" d="M 270.596 249.697L 295.279 249.697L 295.279 244.307L 270.596 244.307L 270.596 249.697z"/>
<path style="stroke:none; fill:#a50000" d="M 270.596 257.896L 295.279 257.896L 295.279 252.506L 270.596 252.506L 270.596 257.896z"/>
<path style="stroke:none; fill:#a50000" d="M 270.596 266.098L 295.279 266.098L 295.279 260.708L 270.596 260.708L 270.596 266.098z"/>
<path style="stroke:none; fill:#a50000" d="M 365.477 296.68L 367.014 296.68C 367.444 296.68 367.79 296.967 367.79 297.298L 367.79 299.075C 368.573 298.637 369.106 297.807 369.106 296.853L 369.106 289.487C 369.106 288.534 368.573 287.695 367.79 287.261L 367.79 288.709C 367.79 289.044 367.44 289.332 367.014 289.332L 365.477 289.332C 365.052 289.332 364.7 289.049 364.7 288.709L 364.7 287.261C 363.917 287.695 363.388 288.53 363.388 289.487L 363.388 296.853C 363.388 297.807 363.919 298.637 364.7 299.075L 364.7 297.298C 364.7 296.961 365.046 296.68 365.477 296.68zM 265.471 275.449C 264.6 275.437 263.778 275.502 263.332 276.203C 261.996 278.316 262.296 284.135 262.296 286.458L 255.949 286.458L 254.367 284.907L 254.367 274.314C 255.902 271.834 259.767 269.989 266.896 269.997L 282.319 270.013C 282.804 270.013 282.986 270.425 282.844 270.688L 274.383 286.44L 265.471 286.458L 265.471 275.444L 265.471 275.449zM 287.479 289.282L 309.996 289.282C 310.759 289.282 311.379 289.908 311.379 290.663L 311.379 292.07C 311.379 292.824 310.752 293.452 309.996 293.452L 285.783 293.452C 287.059 294.48 288.406 296.586 289.069 297.88L 290.927 297.88C 290.927 297.88 294.436 299.953 294.027 302.657C 293.613 305.352 292.783 305.97 290.308 308.046C 287.832 310.125 283.285 314.691 281.43 317.183C 279.57 319.673 279.57 323.407 281.635 323.407L 311.367 323.407L 311.367 323.412L 341.306 323.412C 341.599 323.412 341.845 323.339 342.056 323.201C 343.338 322.383 343.113 319.322 341.515 317.183C 339.654 314.694 335.114 310.125 332.639 308.046C 330.16 305.97 329.335 305.35 328.918 302.657C 328.754 301.563 329.229 300.577 329.856 299.782C 329.868 299.763 329.885 299.741 329.896 299.727L 329.906 299.72C 329.919 299.699 329.932 299.69 329.942 299.673C 329.944 299.673 329.947 299.665 329.947 299.66C 329.961 299.643 329.978 299.625 329.989 299.617C 329.989 299.61 329.989 299.605 329.993 299.605C 330.008 299.589 330.025 299.573 330.04 299.556C 330.042 299.556 330.042 299.549 330.042 299.549C 330.061 299.534 330.072 299.517 330.086 299.496L 330.091 299.496C 330.11 299.479 330.126 299.456 330.145 299.44L 330.145 299.435C 330.165 299.416 330.177 299.392 330.199 299.375L 330.266 299.312C 330.273 299.299 330.29 299.284 330.3 299.266C 331.132 298.409 332.014 297.884 332.024 297.88L 333.882 297.88C 334.891 295.517 336.575 293.599 338.226 292.153C 340.638 290.043 342.965 288.945 342.965 288.945L 348.337 288.945C 352.813 283.808 358.652 282.029 364.706 281.004L 364.706 284.158C 362.6 284.353 360.931 286.139 360.931 288.289L 360.931 298.125C 360.931 300.284 362.6 302.067 364.706 302.26L 364.706 307.747C 362.6 307.934 360.931 309.726 360.931 311.879L 360.931 321.51C 360.931 323.798 362.793 325.659 365.079 325.659L 367.427 325.659C 369.706 325.659 371.576 323.798 371.576 321.51L 371.576 311.879C 371.576 309.726 369.905 307.934 367.802 307.747L 367.802 302.26C 369.907 302.067 371.576 300.284 371.576 298.125L 371.576 288.289C 371.576 286.139 369.905 284.352 367.802 284.158L 367.802 280.531C 368.544 280.43 369.278 280.25 370.024 280.152C 377.784 278.866 377.746 275.975 377.746 276.215L 377.746 270.059L 292.568 270.059L 296.086 271.898C 296.377 272.024 296.566 272.364 296.339 272.732L 287.483 289.277L 287.479 289.282zM 367.794 310.853L 367.794 312.195C 367.794 312.538 367.444 312.82 367.018 312.82L 365.477 312.82C 365.052 312.82 364.7 312.538 364.7 312.195L 364.7 310.853C 363.919 311.282 363.388 312.122 363.388 313.076L 363.388 320.237C 363.388 321.638 364.536 322.78 365.927 322.78L 366.569 322.78C 367.96 322.78 369.108 321.634 369.108 320.237L 369.108 313.076C 369.108 312.122 368.579 311.29 367.794 310.853zM 290.369 314.832L 332.229 314.832C 332.987 314.832 333.616 315.457 333.616 316.215L 333.616 317.621C 333.616 318.381 332.987 319.005 332.229 319.005L 290.369 319.005C 289.607 319.005 288.985 318.381 288.985 317.621L 288.985 316.215C 288.985 315.457 289.607 314.832 290.369 314.832zM 297.723 305.792L 324.877 305.792C 325.638 305.792 326.259 306.422 326.259 307.181L 326.259 308.583C 326.259 309.347 325.638 309.968 324.877 309.968L 297.723 309.968C 296.967 309.968 296.333 309.347 296.333 308.583L 296.333 307.181C 296.333 306.422 296.957 305.792 297.723 305.792zM 298.76 297.279L 323.841 297.279C 324.597 297.279 325.224 297.907 325.224 298.661L 325.224 300.067C 325.224 300.824 324.593 301.45 323.841 301.45L 298.76 301.45C 298.006 301.45 297.377 300.828 297.377 300.067L 297.377 298.661C 297.377 297.901 297.998 297.279 298.76 297.279zM 320.544 289.282L 331.792 289.282C 332.555 289.282 333.175 289.908 333.175 290.663L 333.175 292.07C 333.175 292.824 332.544 293.452 331.792 293.452L 320.544 293.452C 319.807 293.452 319.163 292.824 319.163 292.07L 319.163 290.663C 319.163 289.899 319.786 289.282 320.544 289.282z"/>
<path style="stroke:none; fill:#a50000" d="M 297.27 249.697L 301.524 249.697L 301.524 244.307L 297.27 244.307L 297.27 249.697z"/>
<path style="stroke:none; fill:#a50000" d="M 273.82 239.392C 281.364 238.98 289.527 236.443 296.639 232.835L 298.856 237.735C 291.023 241.499 282.208 244.016 275.109 244.372L 273.82 239.392z"/>
<path style="stroke:none; fill:#a50000" d="M 302.377 230.086L 298.513 231.949L 300.726 236.788L 304.604 234.907L 302.377 230.09L 302.377 230.086z"/>
<path style="stroke:none; fill:#a50000" d="M 297.27 257.896L 301.524 257.896L 301.524 252.506L 297.27 252.506L 297.27 257.896z"/>
<path style="stroke:none; fill:#a50000" d="M 297.27 266.098L 301.524 266.098L 301.524 260.708L 297.27 260.708L 297.27 266.098z"/>
<path style="stroke:none; fill:#a50000" d="M 327.353 236.408L 335.157 232.103L 351.575 261.891L 343.771 266.191L 327.353 236.408zM 332.319 240.533L 335.823 238.576L 336.77 240.226L 333.266 242.184L 332.319 240.533zM 334.317 244.12L 337.827 242.166L 338.775 243.812L 335.262 245.766L 334.317 244.12z"/>
<path style="stroke:none; fill:#a50000" d="M 318.165 228.232L 327.547 228.232L 327.547 266.158L 318.165 266.158L 318.165 228.232zM 304.588 224.732L 315.088 224.732L 315.088 266.162L 304.588 266.162L 304.588 224.732zM 307.829 230.086L 311.847 230.086L 311.847 231.958L 307.829 231.958L 307.829 230.086zM 307.829 234.198L 311.847 234.198L 311.847 236.071L 307.829 236.071L 307.829 234.198zM 307.829 238.305L 311.847 238.305L 311.847 240.179L 307.829 240.179L 307.829 238.305zM 307.829 242.414L 311.847 242.414L 311.847 244.287L 307.829 244.287L 307.829 242.414zM 320.846 234.198L 324.867 234.198L 324.867 236.071L 320.846 236.071L 320.846 234.198zM 320.846 238.305L 324.867 238.305L 324.867 240.179L 320.846 240.179L 320.846 238.305zM 320.846 242.414L 324.867 242.414L 324.867 244.287L 320.846 244.287L 320.846 242.414z"/>
<path style="stroke:none; fill:#a50000" d="M 309.563 369.004C 265.139 369.004 228.968 332.812 228.968 288.419C 228.968 243.977 265.139 207.783 309.563 207.783C 353.989 207.783 390.213 243.977 390.213 288.419C 390.213 332.812 353.989 369.004 309.563 369.004zM 407.771 285.768L 400.069 284.77C 399.767 284.72 399.567 284.619 399.368 284.369C 399.315 283.12 399.268 281.87 399.169 280.669C 399.268 280.419 399.47 280.27 399.767 280.221L 407.271 278.22C 407.373 278.169 407.521 278.12 407.521 277.82C 407.422 277.169 407.373 276.42 407.223 275.571L 407.223 275.52L 407.223 275.472C 407.121 274.669 407.021 273.92 406.922 273.27C 406.873 272.97 406.723 272.97 406.57 272.97L 398.815 272.97C 398.517 272.97 398.267 272.87 398.116 272.67C 397.866 271.471 397.616 270.271 397.364 269.022C 397.468 268.772 397.616 268.623 397.915 268.522L 405.121 265.523C 405.221 265.474 405.371 265.423 405.271 265.123C 405.121 264.472 404.971 263.773 404.721 262.974L 404.721 262.923L 404.721 262.873C 404.471 262.073 404.269 261.324 404.119 260.673C 404.019 260.425 403.871 260.425 403.719 260.425L 396.015 261.473C 395.716 261.524 395.517 261.473 395.265 261.274C 394.915 260.074 394.515 258.925 394.064 257.773C 394.164 257.474 394.314 257.273 394.564 257.125L 401.319 253.275C 401.42 253.224 401.52 253.125 401.42 252.874C 401.22 252.225 400.917 251.525 400.62 250.776L 400.567 250.726L 400.567 250.676C 400.218 249.875 399.919 249.224 399.667 248.575C 399.567 248.326 399.417 248.375 399.268 248.375L 391.764 250.426C 391.463 250.525 391.211 250.476 390.961 250.275C 390.461 249.175 389.91 248.125 389.363 247.076C 389.363 246.725 389.51 246.526 389.764 246.325L 395.917 241.628C 396.015 241.526 396.116 241.425 396.015 241.177C 395.667 240.577 395.315 239.926 394.915 239.226C 394.915 239.226 394.915 239.177 394.866 239.177L 394.866 239.129C 394.417 238.377 394.064 237.726 393.715 237.178C 393.565 236.928 393.414 236.978 393.264 237.028L 386.109 240.027C 385.807 240.177 385.559 240.127 385.259 239.976C 384.606 238.976 383.958 238.027 383.307 237.078C 383.206 236.726 383.307 236.478 383.557 236.228L 389.06 230.73C 389.162 230.629 389.262 230.529 389.111 230.279C 388.713 229.779 388.26 229.178 387.762 228.48L 387.711 228.48L 387.711 228.43L 387.662 228.43C 387.16 227.731 386.711 227.18 386.31 226.631C 386.109 226.43 385.959 226.479 385.858 226.58L 379.155 230.428C 378.852 230.629 378.556 230.629 378.254 230.479C 377.502 229.629 376.752 228.729 375.953 227.881C 375.853 227.579 375.902 227.279 376.103 227.03L 380.858 220.881C 380.956 220.781 381.007 220.631 380.806 220.429C 380.356 219.931 379.856 219.382 379.255 218.831L 379.255 218.781L 379.206 218.781L 379.206 218.732L 379.155 218.732C 378.603 218.132 378.055 217.632 377.555 217.18C 377.353 216.98 377.204 217.082 377.103 217.131L 370.953 221.881C 370.701 222.079 370.398 222.131 370.098 222.03C 369.249 221.28 368.35 220.48 367.495 219.781C 367.35 219.43 367.35 219.182 367.549 218.882L 371.451 212.133C 371.5 212.032 371.55 211.881 371.351 211.731C 370.8 211.283 370.25 210.833 369.55 210.333L 369.55 210.283L 369.499 210.283L 369.499 210.232C 368.798 209.734 368.198 209.283 367.698 208.882C 367.448 208.733 367.35 208.831 367.249 208.932L 361.747 214.431C 361.495 214.681 361.244 214.782 360.945 214.731C 359.945 214.032 358.994 213.383 357.992 212.732C 357.842 212.482 357.793 212.181 357.943 211.881L 360.945 204.733C 360.994 204.584 361.045 204.432 360.791 204.283C 360.244 203.934 359.594 203.585 358.845 203.133L 358.795 203.133C 358.795 203.133 358.795 203.085 358.746 203.085C 358.043 202.684 357.392 202.334 356.793 201.983C 356.543 201.885 356.443 201.983 356.344 202.084L 351.641 208.233C 351.438 208.534 351.237 208.633 350.889 208.633C 349.839 208.082 348.788 207.533 347.686 207.034C 347.485 206.784 347.438 206.533 347.538 206.233L 349.591 198.733C 349.591 198.634 349.637 198.433 349.389 198.336C 348.737 198.084 348.089 197.784 347.286 197.434L 347.237 197.434L 347.186 197.434C 346.434 197.085 345.736 196.836 345.086 196.585C 344.838 196.485 344.736 196.634 344.685 196.735L 340.836 203.434C 340.681 203.734 340.482 203.883 340.183 203.934C 339.031 203.484 337.882 203.085 336.68 202.734C 336.481 202.533 336.43 202.284 336.481 201.983L 337.533 194.284C 337.533 194.135 337.533 193.986 337.282 193.935C 336.629 193.736 335.879 193.535 335.081 193.335L 335.081 193.285L 335.028 193.285L 334.981 193.285C 334.18 193.086 333.477 192.885 332.827 192.735C 332.528 192.685 332.477 192.784 332.428 192.935L 329.426 200.085C 329.326 200.383 329.176 200.534 328.925 200.634C 327.677 200.383 326.476 200.134 325.275 199.884C 325.076 199.734 324.974 199.485 324.974 199.182L 324.974 191.434C 324.974 191.335 324.974 191.135 324.675 191.135C 324.025 190.985 323.273 190.886 322.47 190.785L 322.422 190.785L 322.375 190.785C 321.522 190.686 320.772 190.586 320.12 190.536C 319.821 190.487 319.77 190.636 319.77 190.735L 317.719 198.234C 317.668 198.533 317.52 198.733 317.268 198.883C 316.071 198.784 314.816 198.685 313.565 198.634C 313.366 198.484 313.215 198.234 313.215 197.934L 312.213 190.236C 312.166 190.135 312.115 189.986 311.865 189.986C 311.513 189.936 311.166 189.936 310.765 189.936L 310.666 189.936L 310.615 189.936L 310.514 189.936L 310.464 189.936L 310.414 189.936L 310.366 189.936L 310.315 189.936L 310.265 189.936L 310.214 189.936L 310.165 189.936L 310.066 189.936L 310.014 189.936L 309.864 189.936L 309.815 189.936L 309.766 189.936L 309.714 189.936L 309.664 189.936L 309.615 189.936L 309.563 189.936L 309.515 189.936L 309.465 189.936L 309.416 189.936L 309.364 189.936L 309.314 189.936L 309.264 189.936L 309.212 189.936L 309.165 189.936L 309.115 189.936L 309.064 189.936L 309.015 189.936L 308.963 189.936L 308.912 189.936L 308.864 189.936L 308.816 189.936L 308.763 189.936L 308.714 189.936L 308.662 189.936L 308.314 189.936C 307.914 189.936 307.563 189.936 307.212 189.986C 306.964 189.986 306.912 190.135 306.912 190.236L 305.911 197.934C 305.862 198.234 305.76 198.484 305.512 198.634C 304.259 198.685 303.058 198.784 301.809 198.883C 301.611 198.733 301.461 198.533 301.41 198.234L 299.409 190.735C 299.358 190.636 299.309 190.487 299.059 190.536C 298.358 190.586 297.607 190.686 296.806 190.785L 296.756 190.785L 296.707 190.785C 295.857 190.886 295.106 190.985 294.456 191.135C 294.205 191.135 294.156 191.335 294.156 191.434L 294.156 199.182C 294.205 199.485 294.107 199.734 293.904 199.884C 292.655 200.134 291.454 200.383 290.254 200.634C 289.954 200.534 289.804 200.383 289.704 200.085L 286.751 192.935C 286.702 192.784 286.6 192.685 286.352 192.735C 285.7 192.885 284.951 193.086 284.151 193.285L 284.1 193.285C 284.051 193.285 284.051 193.285 284.051 193.335C 283.25 193.535 282.499 193.736 281.898 193.935C 281.597 193.986 281.648 194.135 281.648 194.284L 282.649 201.983C 282.7 202.284 282.649 202.533 282.448 202.734C 281.298 203.085 280.097 203.484 278.947 203.934C 278.698 203.883 278.496 203.734 278.346 203.434L 274.445 196.735C 274.396 196.634 274.294 196.485 274.044 196.585C 273.393 196.836 272.743 197.085 271.942 197.434L 271.893 197.434L 271.843 197.434C 271.092 197.784 270.391 198.084 269.791 198.336C 269.542 198.433 269.542 198.634 269.592 198.733L 271.592 206.233C 271.692 206.533 271.643 206.784 271.493 207.034C 270.391 207.533 269.291 208.082 268.243 208.633C 267.942 208.633 267.692 208.534 267.491 208.233L 262.837 202.084C 262.738 201.983 262.638 201.885 262.388 201.983C 261.837 202.334 261.137 202.684 260.437 203.085L 260.437 203.133L 260.385 203.133L 260.337 203.133C 259.636 203.585 258.986 203.934 258.386 204.283C 258.185 204.432 258.236 204.584 258.285 204.733L 261.236 211.881C 261.386 212.181 261.386 212.482 261.187 212.732C 260.236 213.383 259.236 214.032 258.285 214.731C 257.935 214.782 257.684 214.681 257.436 214.431L 251.982 208.932C 251.883 208.831 251.731 208.733 251.531 208.882C 250.981 209.283 250.381 209.734 249.729 210.232L 249.68 210.283L 249.629 210.283L 249.629 210.333C 248.98 210.833 248.378 211.283 247.878 211.731C 247.63 211.881 247.73 212.032 247.779 212.133L 251.682 218.882C 251.832 219.182 251.883 219.43 251.731 219.781C 250.83 220.48 249.981 221.28 249.13 222.03C 248.779 222.131 248.478 222.079 248.228 221.881L 242.076 217.131C 241.975 217.082 241.825 216.98 241.625 217.18C 241.124 217.632 240.624 218.132 240.024 218.732L 239.975 218.781C 239.975 218.781 239.975 218.831 239.924 218.831C 239.373 219.382 238.823 219.931 238.373 220.429C 238.172 220.631 238.274 220.781 238.323 220.881L 243.076 227.03C 243.277 227.279 243.326 227.579 243.226 227.881C 242.476 228.729 241.723 229.629 240.975 230.479C 240.624 230.629 240.373 230.629 240.075 230.428L 233.32 226.58C 233.22 226.479 233.071 226.43 232.921 226.631C 232.469 227.18 232.019 227.731 231.519 228.43L 231.468 228.43L 231.468 228.48C 230.919 229.178 230.468 229.779 230.117 230.279C 229.918 230.529 230.018 230.629 230.117 230.73L 235.621 236.228C 235.871 236.478 235.972 236.726 235.923 237.078C 235.221 238.027 234.572 238.976 233.92 239.976C 233.669 240.127 233.37 240.177 233.071 240.027L 225.915 237.028C 225.817 236.978 225.667 236.928 225.515 237.178C 225.164 237.726 224.765 238.377 224.364 239.129L 224.315 239.129L 224.315 239.177L 224.315 239.226C 223.864 239.926 223.515 240.577 223.215 241.177C 223.064 241.425 223.164 241.526 223.265 241.628L 229.467 246.325C 229.718 246.526 229.819 246.725 229.819 247.076C 229.268 248.125 228.769 249.175 228.216 250.275C 227.966 250.476 227.718 250.525 227.417 250.426L 219.911 248.375C 219.813 248.375 219.662 248.326 219.511 248.575C 219.262 249.224 218.963 249.875 218.661 250.676L 218.613 250.676L 218.613 250.726L 218.613 250.776C 218.262 251.525 218.013 252.225 217.761 252.874C 217.661 253.125 217.812 253.224 217.911 253.275L 224.615 257.125C 224.914 257.273 225.066 257.474 225.115 257.773C 224.664 258.925 224.315 260.074 223.915 261.274C 223.715 261.473 223.464 261.524 223.164 261.473L 215.46 260.425C 215.36 260.425 215.159 260.425 215.109 260.673C 214.91 261.324 214.709 262.073 214.509 262.873L 214.46 262.873L 214.46 262.923L 214.46 262.974C 214.259 263.773 214.059 264.472 213.909 265.123C 213.859 265.423 214.009 265.474 214.11 265.523L 221.262 268.522C 221.563 268.623 221.714 268.772 221.814 269.022C 221.563 270.271 221.313 271.471 221.114 272.67C 220.914 272.922 220.662 272.97 220.364 272.97L 212.61 272.97C 212.508 272.97 212.359 272.97 212.308 273.27C 212.208 273.92 212.06 274.669 211.958 275.472L 211.958 275.52L 211.958 275.571C 211.857 276.42 211.758 277.169 211.707 277.82C 211.659 278.12 211.809 278.169 211.909 278.22L 219.414 280.221C 219.713 280.27 219.911 280.419 220.063 280.669C 219.964 281.87 219.864 283.12 219.813 284.369C 219.662 284.619 219.463 284.72 219.112 284.77L 211.407 285.768C 211.308 285.768 211.157 285.819 211.157 286.069C 211.109 286.77 211.109 287.519 211.109 288.317L 211.109 288.367L 211.109 288.419L 211.109 288.468C 211.109 289.267 211.109 290.018 211.157 290.718C 211.157 290.969 211.308 291.018 211.407 291.018L 219.112 292.017C 219.463 292.069 219.662 292.167 219.813 292.42C 219.864 293.667 219.964 294.867 220.063 296.118C 219.911 296.367 219.713 296.518 219.414 296.566L 211.909 298.567C 211.809 298.618 211.659 298.667 211.707 298.965C 211.758 299.617 211.857 300.367 211.958 301.166L 211.958 301.218L 211.958 301.268L 211.958 301.317C 212.06 302.116 212.157 302.866 212.308 303.517C 212.308 303.815 212.508 303.815 212.61 303.815L 220.364 303.815C 220.662 303.815 220.914 303.866 221.114 304.065C 221.313 305.316 221.563 306.516 221.814 307.768C 221.714 308.016 221.563 308.166 221.262 308.266L 214.11 311.264C 213.959 311.315 213.859 311.363 213.909 311.664C 214.059 312.264 214.259 313.015 214.46 313.815L 214.46 313.865L 214.46 313.914L 214.509 313.914C 214.709 314.715 214.91 315.465 215.109 316.113C 215.159 316.364 215.36 316.364 215.46 316.364L 223.164 315.314C 223.464 315.265 223.715 315.314 223.915 315.514C 224.265 316.714 224.664 317.865 225.115 319.013C 225.066 319.313 224.914 319.513 224.615 319.613L 217.911 323.511C 217.812 323.562 217.661 323.663 217.761 323.912C 218.013 324.562 218.262 325.261 218.613 326.011L 218.613 326.062L 218.613 326.111C 218.963 326.912 219.262 327.561 219.511 328.211C 219.612 328.412 219.813 328.412 219.911 328.361L 227.417 326.362C 227.718 326.264 227.966 326.311 228.216 326.511C 228.718 327.561 229.268 328.661 229.819 329.712C 229.819 330.061 229.718 330.262 229.418 330.462L 223.265 335.161C 223.164 335.261 223.064 335.358 223.164 335.61C 223.515 336.21 223.864 336.859 224.265 337.561C 224.315 337.561 224.315 337.61 224.315 337.61L 224.315 337.661L 224.364 337.661C 224.765 338.412 225.164 339.061 225.515 339.609C 225.616 339.81 225.765 339.81 225.915 339.76L 233.071 336.759C 233.37 336.61 233.669 336.659 233.92 336.81C 234.572 337.811 235.221 338.76 235.923 339.71C 235.972 340.062 235.871 340.311 235.621 340.561L 230.117 346.06C 230.018 346.16 229.918 346.259 230.117 346.511C 230.468 347.009 230.919 347.609 231.419 348.311L 231.468 348.311L 231.468 348.358L 231.519 348.358C 232.019 349.058 232.469 349.608 232.921 350.157C 233.071 350.359 233.22 350.307 233.32 350.21L 240.075 346.359C 240.373 346.16 240.624 346.16 240.975 346.308C 241.723 347.161 242.476 348.06 243.226 348.909C 243.326 349.209 243.277 349.509 243.076 349.76L 238.323 355.907C 238.274 356.009 238.172 356.158 238.373 356.357C 238.823 356.859 239.323 357.407 239.924 357.957C 239.924 357.957 239.924 358.006 239.975 358.006L 239.975 358.056L 240.024 358.056C 240.624 358.655 241.124 359.155 241.625 359.606C 241.825 359.806 241.975 359.708 242.076 359.656L 248.228 354.908C 248.478 354.706 248.779 354.657 249.078 354.757C 249.93 355.507 250.83 356.309 251.682 357.007C 251.832 357.356 251.832 357.655 251.631 357.906L 247.779 364.655C 247.677 364.756 247.63 364.906 247.827 365.106C 248.378 365.506 248.98 365.955 249.629 366.455L 249.629 366.506L 249.68 366.506L 249.68 366.554C 250.381 367.054 250.981 367.505 251.531 367.904C 251.731 368.054 251.832 367.955 251.932 367.856L 257.436 362.355C 257.684 362.107 257.935 362.007 258.285 362.056C 259.236 362.756 260.187 363.405 261.187 364.056C 261.335 364.304 261.386 364.606 261.236 364.906L 258.236 372.054C 258.185 372.205 258.185 372.355 258.386 372.505C 258.937 372.857 259.585 373.204 260.337 373.654L 260.385 373.654C 260.385 373.704 260.437 373.704 260.437 373.704C 261.137 374.105 261.787 374.454 262.388 374.804C 262.638 374.905 262.738 374.804 262.837 374.704L 267.491 368.554C 267.692 368.256 267.891 368.154 268.243 368.154C 269.291 368.705 270.391 369.253 271.442 369.755C 271.643 370.005 271.692 370.255 271.592 370.555L 269.592 378.005C 269.542 378.155 269.542 378.305 269.791 378.404C 270.391 378.655 271.041 378.953 271.843 379.305L 271.893 379.305C 271.942 379.305 271.942 379.305 271.942 379.354C 272.694 379.654 273.393 379.952 274.044 380.152C 274.294 380.254 274.396 380.152 274.445 380.004L 278.346 373.355C 278.447 373.055 278.646 372.905 278.947 372.857C 280.097 373.305 281.247 373.704 282.448 374.055C 282.649 374.254 282.7 374.505 282.649 374.804L 281.597 382.455C 281.597 382.604 281.597 382.753 281.849 382.803C 282.499 383.002 283.25 383.202 284.051 383.452L 284.1 383.452L 284.151 383.452C 284.951 383.701 285.7 383.853 286.301 384.003C 286.6 384.104 286.652 383.955 286.702 383.853L 289.704 376.652C 289.804 376.403 289.954 376.255 290.204 376.153C 291.454 376.403 292.655 376.652 293.904 376.855C 294.107 377.003 294.156 377.255 294.156 377.554L 294.156 385.305C 294.156 385.453 294.156 385.604 294.456 385.652C 295.106 385.752 295.857 385.853 296.659 385.953L 296.707 385.953L 296.756 385.953L 296.806 385.953C 297.607 386.103 298.358 386.154 299.008 386.253C 299.309 386.253 299.358 386.103 299.409 386.004L 301.41 378.504C 301.461 378.205 301.611 378.005 301.809 377.905C 303.01 378.005 304.259 378.055 305.512 378.104C 305.76 378.305 305.862 378.504 305.911 378.805L 306.912 386.503C 306.912 386.603 306.964 386.753 307.212 386.802L 308.662 386.802L 308.714 386.802L 308.763 386.802L 308.816 386.802L 308.864 386.802L 308.912 386.802L 308.963 386.802L 309.015 386.802L 309.064 386.802L 309.115 386.802L 309.165 386.802L 309.212 386.802L 309.264 386.802L 309.314 386.802L 309.364 386.802L 309.416 386.802L 309.465 386.802L 309.515 386.802L 309.563 386.802L 309.615 386.802L 309.664 386.802L 309.714 386.802L 309.766 386.802L 309.815 386.802L 309.864 386.802L 310.014 386.802L 310.066 386.802L 310.165 386.802L 310.214 386.802L 310.265 386.802L 310.315 386.802L 310.366 386.802L 310.414 386.802L 310.464 386.802L 310.514 386.802L 310.615 386.802L 310.666 386.802L 310.765 386.802L 311.464 386.802L 311.564 386.802L 311.615 386.802L 311.865 386.802C 312.115 386.753 312.166 386.603 312.213 386.503L 313.215 378.805C 313.215 378.504 313.366 378.305 313.565 378.104C 314.816 378.055 316.071 378.005 317.268 377.905C 317.52 378.005 317.668 378.205 317.768 378.504L 319.77 386.004C 319.77 386.103 319.872 386.253 320.12 386.253C 320.772 386.154 321.522 386.103 322.375 385.953L 322.422 385.953L 322.47 385.953C 323.322 385.853 324.025 385.752 324.726 385.652C 324.974 385.604 324.974 385.453 324.974 385.305L 324.974 377.554C 324.974 377.255 325.076 377.003 325.275 376.855C 326.476 376.652 327.724 376.403 328.925 376.153C 329.176 376.255 329.375 376.403 329.477 376.652L 332.428 383.853C 332.477 383.955 332.579 384.104 332.827 384.003C 333.477 383.853 334.18 383.701 335.028 383.452L 335.081 383.452L 335.129 383.452C 335.932 383.202 336.629 383.002 337.282 382.803C 337.533 382.753 337.533 382.604 337.533 382.455L 336.481 374.804C 336.43 374.505 336.53 374.254 336.68 374.055C 337.882 373.704 339.031 373.305 340.183 372.857C 340.482 372.905 340.681 373.055 340.836 373.355L 344.685 380.004C 344.785 380.152 344.885 380.254 345.136 380.152C 345.736 379.952 346.434 379.654 347.237 379.354L 347.237 379.305L 347.286 379.305C 348.089 378.953 348.788 378.655 349.389 378.404C 349.637 378.305 349.591 378.155 349.591 378.005L 347.538 370.555C 347.485 370.255 347.485 370.005 347.686 369.755C 348.788 369.253 349.839 368.705 350.938 368.154C 351.237 368.154 351.491 368.256 351.641 368.554L 356.394 374.704C 356.443 374.804 356.594 374.905 356.793 374.804C 357.392 374.454 358.043 374.105 358.795 373.704L 358.795 373.654L 358.845 373.654C 359.594 373.204 360.244 372.857 360.791 372.505C 361.045 372.355 360.994 372.205 360.945 372.054L 357.992 364.906C 357.842 364.606 357.842 364.304 357.992 364.056C 358.994 363.405 359.994 362.756 360.945 362.056C 361.244 362.007 361.544 362.107 361.747 362.355L 367.249 367.856C 367.35 367.955 367.448 368.054 367.698 367.904C 368.249 367.505 368.848 367.054 369.499 366.554L 369.499 366.506L 369.55 366.506C 369.55 366.506 369.55 366.455 369.598 366.455C 370.25 365.955 370.851 365.506 371.351 365.106C 371.55 364.906 371.5 364.756 371.451 364.655L 367.549 357.906C 367.35 357.655 367.35 357.356 367.495 357.007C 368.399 356.309 369.249 355.507 370.098 354.757C 370.449 354.657 370.701 354.706 371.002 354.908L 377.154 359.656C 377.255 359.708 377.353 359.806 377.555 359.606C 378.055 359.155 378.603 358.655 379.206 358.056L 379.206 358.006L 379.255 358.006L 379.255 357.957C 379.856 357.407 380.407 356.859 380.858 356.357C 381.007 356.158 380.956 356.009 380.858 355.907L 376.152 349.76C 375.902 349.509 375.853 349.209 375.953 348.909C 376.752 348.06 377.502 347.161 378.254 346.308C 378.556 346.16 378.852 346.16 379.155 346.359L 385.858 350.21C 385.959 350.307 386.109 350.359 386.31 350.157C 386.711 349.608 387.16 349.058 387.711 348.358L 387.711 348.311L 387.762 348.311C 388.26 347.609 388.713 347.009 389.111 346.511C 389.262 346.259 389.162 346.16 389.06 346.06L 383.557 340.561C 383.307 340.311 383.257 340.062 383.307 339.71C 383.958 338.76 384.606 337.811 385.259 336.81C 385.559 336.659 385.807 336.61 386.109 336.759L 393.313 339.76C 393.414 339.81 393.565 339.81 393.715 339.609C 394.064 339.061 394.417 338.412 394.866 337.661L 394.866 337.61L 394.915 337.61L 394.915 337.561C 395.315 336.859 395.716 336.21 396.015 335.61C 396.165 335.358 396.015 335.261 395.917 335.161L 389.764 330.462C 389.51 330.262 389.363 330.061 389.363 329.712C 389.91 328.661 390.461 327.561 390.961 326.511C 391.211 326.311 391.463 326.264 391.764 326.362L 399.268 328.361C 399.417 328.412 399.567 328.412 399.667 328.211C 399.97 327.561 400.268 326.912 400.567 326.111L 400.567 326.062L 400.62 326.011C 400.917 325.261 401.22 324.562 401.42 323.912C 401.52 323.663 401.42 323.562 401.319 323.511L 394.564 319.613C 394.314 319.513 394.164 319.313 394.113 319.013C 394.515 317.865 394.915 316.714 395.265 315.514C 395.517 315.314 395.716 315.265 396.015 315.314L 403.719 316.364C 403.871 316.364 404.019 316.364 404.119 316.113C 404.269 315.465 404.471 314.715 404.721 313.914L 404.721 313.865L 404.721 313.815C 404.971 313.015 405.121 312.264 405.271 311.664C 405.371 311.363 405.221 311.315 405.121 311.264L 397.915 308.266C 397.616 308.166 397.468 308.016 397.364 307.768C 397.667 306.516 397.866 305.316 398.116 304.065C 398.267 303.866 398.517 303.815 398.815 303.815L 406.57 303.815C 406.723 303.815 406.873 303.815 406.922 303.517C 407.021 302.866 407.121 302.116 407.223 301.317L 407.223 301.268L 407.223 301.218L 407.223 301.166C 407.373 300.367 407.422 299.617 407.521 298.965C 407.521 298.667 407.373 298.618 407.271 298.567L 399.767 296.566C 399.47 296.518 399.268 296.367 399.169 296.118C 399.268 294.867 399.315 293.667 399.368 292.42C 399.567 292.167 399.767 292.069 400.069 292.017L 407.771 291.018C 407.871 291.018 408.021 290.969 408.074 290.718L 408.074 288.468L 408.074 288.419L 408.074 288.367L 408.074 288.317L 408.074 286.069C 408.021 285.819 407.871 285.768 407.771 285.768z"/>
<path style="stroke:none; fill:#a50000" d="M 302.327 341.048C 302.327 341.405 302.002 341.704 301.61 341.704L 294.544 341.704C 294.149 341.704 293.83 341.409 293.83 341.048L 293.83 339.621C 293.83 339.26 294.149 338.967 294.544 338.967L 301.61 338.967C 302.008 338.967 302.327 339.26 302.327 339.621L 302.327 341.048zM 293.946 334.992C 293.946 334.634 294.267 334.343 294.662 334.343L 301.493 334.343C 301.893 334.343 302.216 334.634 302.216 334.992L 302.216 336.38C 302.216 336.737 301.893 337.03 301.493 337.03L 294.662 337.03C 294.267 337.03 293.946 336.737 293.946 336.38L 293.946 334.992zM 304.646 337.965L 304.553 337.927L 304.317 337.838L 304.544 337.73L 304.633 337.688C 305.195 337.415 305.555 336.814 305.555 336.156L 305.555 334.038C 305.555 333.146 304.735 332.363 303.804 332.363L 292.217 332.363C 291.298 332.363 290.551 333.113 290.551 334.038L 290.551 336.156C 290.551 336.812 290.91 337.411 291.467 337.688L 291.556 337.733L 291.782 337.841L 291.547 337.929L 291.454 337.965C 290.823 338.2 290.4 338.839 290.4 339.551L 290.4 342.008C 290.4 342.931 291.094 343.682 291.947 343.682L 304.157 343.682C 305.013 343.682 305.708 342.931 305.708 342.008L 305.708 339.551C 305.708 338.839 305.284 338.2 304.646 337.965z"/>
<path style="stroke:none; fill:#a50000" d="M 285.874 343.673L 282.289 343.673L 282.289 335.145C 282.28 334.814 282.012 334.802 281.883 334.797C 281.701 334.797 281.5 334.842 281.309 334.884L 278.641 335.507L 278.641 333.458L 281.457 332.745C 281.58 332.714 281.707 332.68 281.832 332.645C 282.315 332.512 282.814 332.377 283.283 332.374L 285.432 332.374C 285.72 332.377 285.872 332.537 285.874 332.84L 285.874 343.673z"/>
<path style="stroke:none; fill:#a50000" d="M 204.41 229.364C 203.528 228.392 205.318 225.591 206.211 227.337C 206.339 228.51 205.218 229.647 204.41 229.364zM 223.082 216.216C 221.523 216.265 216.147 217.052 214.997 217.674C 212.256 219.158 211.17 220.597 209.472 223.154C 208.782 224.187 208.034 225.606 206.845 224.539C 205.964 223.751 205.106 224.954 204.086 224.65C 202.981 224.322 203.024 223.34 202.59 222.5C 201.974 221.301 200.536 222.609 199.721 222.75C 199.076 222.304 199.508 220.475 198.865 220.027C 196.757 219.998 196.286 221.31 196.767 223.033C 197.273 224.847 195.581 225.896 195.702 227.628C 196.28 228.187 197.154 228.004 197.76 227.629C 198.557 227.981 198.852 228.895 199.107 229.642C 199.534 230.891 200.081 230.221 201.075 230.181C 206.116 229.962 202.605 236.187 201.936 238.623C 201.578 239.938 201.083 241.829 201.803 243.112C 202.243 243.899 203.485 246.3 203.738 246.824C 204.89 248.783 210.54 251.525 208.567 247.243C 207.285 244.462 204.696 242.775 205.194 239.431C 205.774 235.518 206.493 232.635 208.114 229.036C 209.453 226.073 212.247 223.592 214.745 221.639C 215.973 220.677 217.253 219.878 218.868 219.855C 220.489 219.834 222.216 220.411 223.781 219.73C 224.491 218.764 223.83 216.951 223.082 216.216zM 214.603 235.298C 214.602 235.308 214.6 235.317 214.599 235.326C 214.436 237.469 212.515 237.558 212.298 236.863C 212.132 236.372 213.247 233.931 214.345 234.558C 214.432 234.609 214.62 234.953 214.617 235.045C 214.617 235.099 214.615 235.156 214.609 235.212C 214.606 235.241 214.604 235.268 214.603 235.298zM 210.681 234.236C 209.664 232.739 211.475 230.927 211.881 229.456C 212.059 229.213 212.156 228.883 212.577 228.854C 212.999 228.827 212.656 228.811 213.401 229.264C 214.147 229.716 211.696 235.736 210.681 234.236zM 218.311 223.703C 218.203 223.724 218.036 223.909 218.006 223.981C 217.284 225.64 218.847 230.943 216.186 230.973C 215.262 229.506 216.887 226.468 214.727 225.496C 213.098 224.759 211.94 225.775 211.156 227.123C 209.487 229.993 207.594 233.248 207.929 236.898C 208.47 237.864 209.869 237.731 210.46 238.639C 210.085 239.806 208.603 240.113 209.034 241.909C 209.054 241.986 209.251 242.218 209.323 242.246C 213.742 244.018 213.701 238.161 216.887 238.602C 217.469 239.077 216.674 240.926 217.522 241.609C 220.049 241.878 221.326 238.252 220.194 236.361C 218.489 233.512 219.851 232.651 220.682 229.892C 220.911 227.969 222.902 226.18 221.248 224.161C 220.903 223.667 218.953 223.573 218.311 223.703zM 200.572 218.566C 201.191 218.136 201.438 218.164 201.785 217.425C 202.128 216.695 202.662 216.133 203.515 216.098C 204.566 217.325 202.391 219.37 204.056 220.406C 205.7 220.54 205.071 218.908 206.716 219.043C 208.03 220.816 205.464 221.372 206.243 223.473C 208.853 224.346 209.641 220.603 209.573 218.775C 209.529 217.55 209.257 215.728 208.287 214.883C 207.235 213.969 205.799 212.767 204.489 212.268C 202.613 211.554 201.495 212.868 200.704 214.395C 199.951 215.846 198.52 217.137 198.613 218.907C 198.678 220.123 200.149 218.859 200.572 218.566zM 201.077 232.133C 201.015 232.039 200.534 231.885 200.392 231.918C 198.682 232.278 198.559 235.496 197.638 234.845C 196.715 234.192 198.232 232.121 197.16 231.046C 194.055 230.332 195.909 234.177 193.839 235.322C 193.343 235.162 192.988 235.136 192.86 234.669C 192.731 234.203 194.963 230.488 194.214 230.128C 192.235 228.837 192.071 230.844 191.929 232.368C 191.875 232.969 191.47 233.993 191.394 234.12C 190.237 236.115 191.804 237.309 193.746 238.078C 195.266 238.68 198.518 239.674 199.693 238.131C 200.775 236.708 202.278 233.864 201.077 232.133z"/>
<path style="stroke:none; fill:#a50000" d="M 362.685 175.948C 362.651 175.939 362.465 175.775 362.405 175.704C 361.019 174.09 358.113 172.969 355.992 172.832C 355.875 172.825 355.666 172.775 355.531 172.727C 355.531 172.727 355.398 172.636 355.39 172.621C 354.955 172.137 354.269 170.218 355.83 170.714C 357.547 171.259 357.537 171.384 358.81 171.839C 359.949 172.245 361.823 172.852 362.835 173.335C 362.872 173.352 362.909 173.369 362.944 173.387C 363.018 173.426 363.089 173.464 363.153 173.497L 363.132 173.496C 363.311 173.599 363.481 173.716 363.639 173.863C 364.981 175.088 364.509 176.427 362.685 175.948zM 357.831 180.494C 358.172 178.45 360.781 180.646 360.156 182.005C 360.122 182.075 359.91 182.183 359.853 182.168C 359.502 182.058 359.246 181.83 359.006 181.586C 358.662 181.239 357.82 180.572 357.831 180.494zM 361.012 186.437C 360.574 187.698 357.195 185.457 357.263 183.88C 357.265 183.817 357.347 183.678 357.379 183.675C 358.428 183.531 361.455 185.152 361.012 186.437zM 358.429 191.953C 358.369 192.034 358.062 192.209 357.97 192.215C 356.148 192.292 353.331 191.337 353.282 189.246C 353.257 188.055 354.178 187.341 355.287 187.203C 355.687 187.154 356.015 187.263 356.32 187.425C 356.812 187.687 357.338 187.862 357.828 188.198C 357.937 188.27 358.039 188.346 358.133 188.425C 359.32 189.407 359.33 190.737 358.429 191.953zM 351.993 183.246C 351.473 183.01 349.602 182.018 349.829 181.235C 350.057 180.622 351.106 180.228 353.178 181.615C 353.263 181.673 353.405 182.054 353.39 182.186C 353.295 183.01 353.151 183.781 351.993 183.246zM 348.255 188.162C 347.143 187.462 346.307 186.242 346.57 185.662C 347.714 183.74 351.774 184.036 351.792 186.64C 351.802 188.181 349.348 188.851 348.255 188.162zM 352.686 178.586C 353.075 177.523 354.685 178.109 354.9 179.021C 354.916 179.094 354.768 179.271 354.694 179.284C 353.981 179.418 353.367 179.444 352.712 178.838C 352.686 178.814 352.667 178.641 352.686 178.586zM 341.593 183.198C 341.992 182.814 342.656 182.347 343.865 183.349C 343.927 183.401 344.086 183.677 344.095 183.753C 344.576 187.321 339.052 185.747 341.593 183.198zM 336.175 185.172C 335.053 184.687 336.744 178.297 338.838 179.713C 340.927 181.129 337.29 185.656 336.175 185.172zM 366.991 172.838C 363.009 170.582 358.926 168.857 354.398 168.055C 352.192 167.667 350.05 172.45 352.272 173.743C 353.155 174.257 356.617 174.11 356.488 175.584L 356.486 175.589C 356.326 176.511 352.938 174.763 350.272 176.246C 350.108 176.337 349.987 176.419 349.905 176.49C 349.108 177.031 348.448 177.993 347.704 178.678C 346.944 179.379 345.848 180.961 344.64 180.76C 343.679 180.594 342.027 179.022 342.133 178.808C 342.568 177.951 343.799 178.493 344.562 177.51C 345.952 175.719 345.655 173.636 346.44 171.67C 347.284 169.553 350.696 170.153 350.735 167.108C 350.753 165.87 349.594 165.167 348.746 164.338L 347.694 163.585C 347.19 163.274 345.111 163.303 345.446 164.845C 345.607 165.595 346.964 167.674 345.6 168.014C 343.752 168.478 341.179 167.656 339.39 167.2C 339.078 167.119 336.831 166.326 336.489 166.382C 336.212 166.425 335.975 166.499 335.825 166.639C 335.077 167.395 335.137 168.723 335.751 169.46C 335.762 169.471 335.772 169.484 335.784 169.496C 335.813 169.532 335.926 169.623 335.975 169.636C 336.374 169.74 337.838 169.831 337.87 169.831C 338.708 169.822 340.187 170.161 341.265 170.635L 341.265 170.627C 342.433 171.176 343.078 171.597 341.804 171.984C 341.783 171.992 341.76 171.996 341.738 172.005C 341.732 172.007 341.726 172.008 341.72 172.01C 339.879 172.64 336.571 171.015 334.739 171.943C 334.68 171.972 334.553 172.066 334.528 172.109C 334.362 172.39 333.858 173.427 334.446 173.74C 335.001 174.037 335.788 174.21 336.241 174.253C 336.6 174.284 338.939 174.243 340.025 174.199C 340.343 174.187 340.767 174.069 340.867 174.026C 341.066 173.94 341.281 173.867 341.521 173.832C 342.302 173.72 342.957 173.87 342.597 174.824C 342.148 176.015 337.836 177.203 336.696 176.929C 335.555 176.658 334.288 178.16 334.244 178.385C 334.044 179.438 334.145 180.6 333.657 181.715C 333.01 183.202 331.665 185.245 332.399 186.907C 332.592 187.447 335.95 187.613 339.801 188.151C 340.062 188.188 340.324 188.229 340.584 188.263C 343.021 188.634 345.582 189.165 347.612 190.044C 348.401 190.385 349.053 190.649 349.596 190.855C 352.397 192.282 355.285 194.075 355.738 194.597C 357.965 197.174 361.41 201.411 362.737 199.597C 362.641 197.789 361.605 196.472 360.831 194.922C 360.508 194.265 361.394 193.977 361.743 193.526C 363.04 191.856 363.37 189.312 363.802 187.308C 364.165 185.633 364.405 183.926 364.839 182.271C 365.343 180.367 362.751 179.068 361.051 178.579C 360.826 178.515 360.429 178.094 360.461 177.961C 360.773 176.604 363.264 177.699 364.807 178.678C 365.399 179.053 366.929 178.969 367.249 178.424C 367.729 177.599 368.044 176.563 368.464 175.905C 369.478 174.318 368.28 173.569 366.991 172.838z"/>
<path style="stroke:none; fill:#a50000" d="M 185.433 295.751C 185.376 294.9 185.406 292.906 185.408 291.553C 186.227 291.643 187.202 291.696 188.197 291.704L 188.205 291.821C 187.348 292.897 186.811 294.355 186.913 295.916C 187.002 297.285 187.737 298.14 188.928 298.062C 189.782 298.005 190.277 297.617 190.832 296.798C 191.657 295.581 192.129 294.151 193.104 292.83C 194.205 291.358 195.312 290.98 196.685 290.89C 198.033 290.801 200.693 291.386 201.021 296.441C 201.083 297.386 201.134 298.878 201.083 300.14C 200.373 299.995 199.346 299.849 198.392 299.745L 198.384 299.628C 199.106 298.94 199.664 298.144 199.549 296.373C 199.439 294.694 198.462 293.928 197.474 293.992C 196.282 294.069 195.617 294.281 194.249 297.215C 192.545 300.885 191.426 301.052 190.009 301.146C 188.3 301.256 185.742 300.476 185.433 295.751z"/>
<path style="stroke:none; fill:#a50000" d="M 195.962 315.569C 194.207 315.872 190.231 316.684 188.584 317.327C 188.486 316.43 188.426 316.104 188.304 315.454C 188.209 314.942 188.122 314.476 187.848 313.372C 189.966 313.169 193.132 312.676 194.772 312.372C 194.611 311.268 194.534 310.73 194.378 309.891C 194.222 309.054 194.049 308.243 193.831 307.32C 191.375 307.803 189.251 308.222 187.017 308.903C 186.928 308.052 186.805 307.401 186.735 307.029C 186.637 306.494 186.555 306.052 186.282 304.969C 188.389 304.817 192.084 304.227 193.746 303.917C 195.366 303.616 200.689 302.769 201.171 301.91L 201.259 301.892C 201.384 302.807 201.47 303.393 201.591 304.046C 201.716 304.721 201.864 305.392 202.039 306.082C 200.525 306.076 198.353 306.48 195.538 307.004C 195.691 308.203 195.782 308.691 195.942 309.553C 196.099 310.389 196.173 310.787 196.478 312.053C 199.864 311.399 201.425 311.157 202.753 310.284L 202.824 310.294C 202.897 311.05 202.996 311.587 203.156 312.448C 203.277 313.099 203.459 313.956 203.608 314.505C 201.608 314.614 198.005 315.213 195.962 315.569z"/>
<path style="stroke:none; fill:#a50000" d="M 202.785 322.647L 202.757 322.555C 200.799 322.527 199.102 322.557 197.299 322.625C 197.438 323.203 197.557 323.637 197.727 324.155C 197.971 324.897 198.096 325.205 198.316 325.731C 199.804 324.77 201.369 323.683 202.785 322.647zM 192.981 331.315C 192.753 330.617 192.552 330.01 192.244 329.289C 193.788 328.709 195.979 327.293 197.013 326.606C 196.827 325.894 196.629 325.212 196.413 324.56C 196.199 323.908 195.922 323.202 195.738 322.713C 194.464 322.733 191.728 322.931 190.387 323.62C 190.158 322.848 190.084 322.474 189.899 321.912C 189.701 321.304 189.503 320.77 189.254 320.155C 190.194 320.344 191.886 320.513 192.587 320.557C 194.063 320.647 196.137 320.74 197.762 320.78C 199.223 320.824 201.58 320.851 203.399 320.827C 203.923 320.83 204.782 320.847 205.244 320.52L 205.373 320.478C 205.609 321.2 205.814 321.753 205.983 322.198C 206.22 322.842 206.468 323.459 206.755 324.112C 206.325 324.327 205.534 324.81 204.851 325.259C 203.485 326.154 201.798 327.305 200.523 328.196C 198.382 329.695 197.172 330.565 196.112 331.385C 195.656 331.734 194.546 332.62 193.653 333.585C 193.386 332.627 193.194 331.967 192.981 331.315z"/>
<path style="stroke:none; fill:#a50000" d="M 206.377 343.549C 205.441 343.997 201.559 345.806 199.921 346.775C 199.513 345.865 199.042 345.042 198.542 344.312C 199.708 342.466 201.959 339.181 202.975 337.752L 206.037 333.396L 206.006 333.331L 202.042 335.232C 201.29 335.591 197.315 337.783 196.034 338.819C 195.831 338.285 195.646 337.849 195.411 337.36C 195.187 336.888 194.908 336.364 194.654 335.935C 196.862 335.482 202.222 332.993 203.258 332.496C 204.05 332.116 207.323 330.653 208.389 329.487L 208.491 329.439C 208.736 330.053 209.044 330.748 209.372 331.431C 209.709 332.135 210.045 332.788 210.352 333.322C 209.58 334.216 207.877 336.346 207.075 337.544C 205.503 339.9 204.488 341.331 203.618 342.639L 203.647 342.704L 206.29 341.439C 207.815 340.707 211.718 338.573 212.46 337.72C 212.603 338.124 212.88 338.754 213.105 339.222C 213.411 339.863 213.442 339.926 213.829 340.583C 211.889 341.068 207.455 343.032 206.377 343.549z"/>
<path style="stroke:none; fill:#a50000" d="M 211.855 359.223C 211.334 359.536 210.291 360.166 209.283 360.972C 207.746 359.376 206.897 358.292 205.79 356.613C 203.108 352.538 203.543 349.305 208.288 346.181C 211.207 344.259 215.437 343.059 219.109 348.636C 220.112 350.158 221.189 351.998 221.687 352.917C 220.638 353.21 219.813 353.558 218.85 354.021L 218.758 353.884C 219.118 352.624 218.862 350.924 217.767 349.262C 216.062 346.674 213.341 347.133 210.273 349.155C 205.979 351.98 205.995 354.012 207.569 356.406C 208.284 357.492 208.946 357.225 209.531 356.841L 210.886 355.949C 211.508 355.539 212.261 355.043 212.751 354.068L 212.859 354.026C 213.187 354.604 213.584 355.248 213.962 355.823C 214.457 356.575 214.599 356.791 215.111 357.448C 214.363 357.742 212.847 358.598 211.855 359.223z"/>
<path style="stroke:none; fill:#a50000" d="M 225.349 368.85C 223.995 370.009 220.993 372.741 219.907 374.134C 219.364 373.414 219.145 373.164 218.707 372.665C 218.364 372.274 218.051 371.918 217.249 371.108C 218.969 369.853 221.437 367.812 222.691 366.711C 221.991 365.846 221.649 365.421 221.086 364.783C 220.524 364.141 219.96 363.534 219.302 362.852C 217.437 364.52 215.826 365.967 214.251 367.693C 213.741 367.008 213.304 366.51 213.054 366.225C 212.695 365.816 212.398 365.478 211.614 364.687C 213.345 363.482 216.219 361.083 217.492 359.969C 218.728 358.883 222.87 355.434 222.845 354.449L 222.913 354.389C 223.489 355.114 223.862 355.574 224.299 356.071C 224.752 356.586 225.221 357.086 225.724 357.592C 224.418 358.359 222.758 359.817 220.607 361.705C 221.352 362.659 221.68 363.033 222.257 363.689C 222.82 364.331 223.085 364.633 223.995 365.566C 226.573 363.273 227.79 362.266 228.486 360.837L 228.552 360.81C 229 361.426 229.359 361.832 229.937 362.493C 230.374 362.992 230.968 363.634 231.376 364.032C 229.714 365.144 226.924 367.5 225.349 368.85z"/>
<path style="stroke:none; fill:#a50000" d="M 234.841 371.46L 234.77 371.397C 233.07 372.368 231.627 373.263 230.111 374.242C 230.527 374.665 230.85 374.98 231.259 375.337C 231.847 375.853 232.111 376.052 232.569 376.394C 233.359 374.808 234.153 373.073 234.841 371.46zM 230.829 383.917C 230.277 383.436 229.797 383.014 229.164 382.551C 230.194 381.265 231.358 378.929 231.895 377.81C 231.372 377.293 230.853 376.809 230.336 376.356C 229.819 375.904 229.22 375.439 228.814 375.114C 227.727 375.78 225.475 377.348 224.674 378.622C 224.083 378.076 223.828 377.791 223.382 377.403C 222.901 376.982 222.459 376.624 221.931 376.222C 222.835 375.906 224.377 375.187 225.003 374.866C 226.319 374.19 228.148 373.214 229.568 372.418C 230.847 371.71 232.886 370.53 234.439 369.582C 234.892 369.317 235.639 368.893 235.87 368.377L 235.96 368.274C 236.529 368.773 236.99 369.146 237.361 369.442C 237.893 369.878 238.422 370.28 239 370.696C 238.742 371.099 238.308 371.918 237.949 372.652C 237.231 374.12 236.367 375.971 235.726 377.388C 234.649 379.77 234.05 381.134 233.559 382.381C 233.344 382.913 232.842 384.241 232.568 385.527C 231.848 384.84 231.346 384.37 230.829 383.917z"/>
<path style="stroke:none; fill:#a50000" d="M 236.572 388.218C 235.996 387.804 235.599 387.544 234.765 386.999C 236.563 385.071 238.468 382.471 239.508 381.026C 240.997 378.958 243.131 376.16 243.431 374.487L 243.471 374.431C 244.04 374.898 244.527 375.277 245.082 375.677C 245.639 376.079 246.281 376.486 246.966 376.95C 245.551 378.348 243.08 381.82 242.578 382.514C 241.748 383.667 239.355 386.947 238.107 389.409C 237.288 388.763 236.918 388.468 236.572 388.218z"/>
<path style="stroke:none; fill:#a50000" d="M 254.368 390.241C 253.351 392.075 252.225 394.157 251.81 394.907C 250.564 397.155 248.551 398.152 243.628 396.096L 244.069 394.717C 246.072 395.543 247.267 395.536 248.57 393.576C 249.047 392.86 250.116 390.978 250.903 389.558C 252.268 387.094 254.508 383.488 254.503 381.837L 254.558 381.738C 255.261 382.178 255.872 382.543 256.45 382.862C 257.031 383.184 257.601 383.474 258.306 383.814C 256.862 385.542 255.186 388.762 254.368 390.241z"/>
<path style="stroke:none; fill:#a50000" d="M 258.314 400.828C 257.389 400.344 256.969 400.123 256.584 399.943C 255.94 399.64 255.502 399.461 254.583 399.08C 255.992 396.853 257.381 393.942 258.136 392.329C 259.216 390.022 260.794 386.878 260.779 385.178L 260.807 385.117C 261.453 385.47 262.002 385.75 262.623 386.042C 263.244 386.332 263.949 386.612 264.709 386.944C 263.576 388.58 261.793 392.448 261.427 393.224C 260.828 394.512 259.085 398.177 258.312 400.828L 258.314 400.828z"/>
<path style="stroke:none; fill:#a50000" d="M 270.904 392.851L 270.815 392.822C 269.591 394.346 268.575 395.707 267.523 397.175C 268.065 397.416 268.48 397.589 268.993 397.772C 269.729 398.036 270.049 398.125 270.598 398.276C 270.752 396.511 270.854 394.607 270.904 392.851zM 271.737 405.914C 271.047 405.666 270.446 405.452 269.686 405.251C 270.174 403.679 270.401 401.078 270.491 399.841C 269.815 399.55 269.155 399.29 268.508 399.059C 267.862 398.829 267.133 398.616 266.635 398.461C 265.867 399.48 264.347 401.763 264.07 403.244C 263.32 402.951 262.978 402.78 262.422 402.581C 261.819 402.367 261.276 402.195 260.637 402.015C 261.365 401.389 262.535 400.156 263 399.626C 263.976 398.516 265.321 396.937 266.348 395.678C 267.28 394.549 268.745 392.703 269.842 391.251C 270.165 390.84 270.706 390.171 270.732 389.607L 270.778 389.479C 271.491 389.735 272.055 389.913 272.508 390.052C 273.163 390.262 273.801 390.442 274.493 390.619C 274.402 391.086 274.298 392.007 274.233 392.822C 274.103 394.454 273.978 396.491 273.9 398.042C 273.771 400.654 273.714 402.142 273.714 403.483C 273.71 404.058 273.729 405.476 273.945 406.775C 273.022 406.397 272.383 406.145 271.737 405.914z"/>
<path style="stroke:none; fill:#a50000" d="M 280.945 400.82C 280.197 404.303 280.628 406.91 283.266 407.477C 286.368 408.145 287.554 405.218 288.2 402.219C 288.806 399.398 289.01 395.983 286 395.337C 282.969 394.683 281.652 397.537 280.945 400.82zM 291.727 402.933C 290.988 406.371 289.123 410.305 282.946 408.976C 279.195 408.17 276.072 406.369 277.433 400.041C 278.224 396.361 280.074 392.492 286.23 393.817C 291.508 394.953 292.775 398.062 291.727 402.933z"/>
<path style="stroke:none; fill:#a50000" d="M 310.969 398.578L 310.829 398.572C 310.316 398.306 308.72 397.932 306.755 397.86C 306.738 398.333 306.556 401.393 306.439 404.64C 306.321 407.838 306.51 411.116 306.609 411.64C 305.667 411.56 305.405 411.528 304.577 411.499C 303.867 411.472 303.347 411.452 302.469 411.489C 302.874 409.517 303.072 405.329 303.13 403.796C 303.189 402.174 303.246 399.244 303.279 397.734C 301.622 397.674 299.487 397.775 298.859 398.137L 298.716 398.132C 298.882 397.483 299.057 396.564 299.078 395.979C 301.275 396.193 303.071 396.282 305.08 396.355C 307.259 396.433 309.364 396.511 311.521 396.433C 311.29 396.942 311.117 397.816 310.969 398.578z"/>
<path style="stroke:none; fill:#a50000" d="M 315.362 404.101C 315.661 407.65 316.835 410.019 319.522 409.79C 322.682 409.526 322.967 406.38 322.709 403.326C 322.468 400.449 321.666 397.121 318.598 397.379C 315.507 397.641 315.081 400.752 315.362 404.101zM 326.291 402.977C 326.586 406.483 325.951 410.79 319.653 411.32C 315.831 411.642 312.317 410.829 311.776 404.379C 311.46 400.626 312.099 396.391 318.376 395.861C 323.756 395.41 325.873 398.013 326.291 402.977z"/>
<path style="stroke:none; fill:#a50000" d="M 340.65 400.259C 340.875 401.272 341.761 405.463 342.334 407.276C 341.361 407.469 340.451 407.742 339.625 408.066C 338.09 406.513 335.397 403.579 334.233 402.267L 330.681 398.301L 330.612 398.318L 331.569 402.608C 331.753 403.423 332.991 407.788 333.71 409.268C 333.145 409.348 332.678 409.43 332.147 409.547C 331.639 409.661 331.065 409.811 330.59 409.966C 330.645 407.711 329.43 401.931 329.177 400.808C 328.988 399.949 328.299 396.43 327.402 395.129L 327.377 395.019C 328.035 394.919 328.779 394.777 329.519 394.612C 330.279 394.442 330.993 394.26 331.583 394.082C 332.28 395.035 333.971 397.176 334.956 398.225C 336.897 400.287 338.062 401.598 339.144 402.744L 339.209 402.728L 338.574 399.867C 338.204 398.219 337.007 393.935 336.342 393.019C 336.768 392.971 337.444 392.844 337.95 392.731C 338.646 392.575 338.717 392.559 339.437 392.328C 339.472 394.329 340.39 399.093 340.65 400.259z"/>
<path style="stroke:none; fill:#a50000" d="M 357.162 398.516C 357.347 399.096 357.72 400.255 358.277 401.42C 356.369 402.552 355.119 403.129 353.229 403.823C 348.651 405.497 345.602 404.332 343.648 398.997C 342.445 395.717 342.25 391.324 348.52 389.029C 350.231 388.401 352.27 387.774 353.278 387.5C 353.325 388.589 353.471 389.471 353.703 390.515L 353.547 390.573C 352.405 389.933 350.69 389.793 348.823 390.476C 345.91 391.543 345.734 394.296 346.999 397.747C 348.764 402.576 350.745 403.025 353.436 402.041C 354.658 401.594 354.552 400.887 354.309 400.231L 353.752 398.706C 353.498 398.01 353.187 397.162 352.348 396.46L 352.333 396.346C 352.969 396.161 353.688 395.921 354.336 395.685C 355.181 395.376 355.424 395.287 356.178 394.939C 356.295 395.737 356.781 397.407 357.162 398.516z"/>
<path style="stroke:none; fill:#a50000" d="M 373.408 381.908C 374.244 383.404 375.234 385.202 376.123 386.694C 377.579 389.133 377.629 391.623 373.564 394.048C 369.294 396.594 367.36 395.568 365.745 392.858C 365.329 392.161 364.261 390.278 363.511 389.019C 362.979 388.129 361.209 384.93 360.017 384.276L 359.984 384.218C 360.537 383.94 361.218 383.56 361.83 383.195C 362.437 382.832 362.927 382.541 363.684 382.011C 364.313 383.892 366.411 387.367 366.954 388.278C 368.303 390.542 369.202 392.003 369.774 392.501C 370.58 393.203 371.822 393.301 373.002 392.597C 375.789 390.936 374.988 389.18 373.234 386.239C 370.775 382.113 369.912 380.528 368.341 379.234C 368.79 379.019 369.188 378.806 369.899 378.383C 370.53 378.007 370.862 377.782 371.33 377.452C 371.928 379.379 372.898 381.006 373.408 381.908z"/>
<path style="stroke:none; fill:#a50000" d="M 387.045 375.276C 387.691 376.088 390.322 379.467 391.631 380.847C 390.84 381.449 390.142 382.09 389.539 382.742C 387.482 382.018 383.776 380.558 382.155 379.889L 377.224 377.879L 377.17 377.922L 379.909 381.361C 380.429 382.013 383.454 385.396 384.747 386.415C 384.274 386.732 383.89 387.009 383.462 387.348C 383.057 387.673 382.606 388.059 382.247 388.403C 381.311 386.353 377.687 381.688 376.971 380.789C 376.424 380.101 374.265 377.238 372.889 376.459L 372.818 376.371C 373.367 375.993 373.972 375.538 374.566 375.067C 375.176 374.581 375.736 374.106 376.189 373.688C 377.234 374.24 379.69 375.424 381.036 375.938C 383.684 376.944 385.305 377.613 386.779 378.171L 386.834 378.127L 385.007 375.832C 383.954 374.51 381.005 371.182 380.005 370.651C 380.364 370.42 380.917 370.009 381.325 369.686C 381.88 369.245 381.936 369.199 382.487 368.675C 383.395 370.462 386.302 374.34 387.045 375.276z"/>
<path style="stroke:none; fill:#a50000" d="M 396.39 376.302C 395.88 376.796 395.558 377.143 394.872 377.869C 393.289 375.761 391.06 373.43 389.818 372.154C 388.045 370.325 385.663 367.736 384.067 367.148L 384.02 367.099C 384.576 366.619 385.034 366.207 385.527 365.73C 386.02 365.251 386.533 364.692 387.113 364.098C 388.24 365.737 391.224 368.776 391.822 369.391C 392.81 370.41 395.622 373.338 397.828 374.997C 397.05 375.692 396.694 376.005 396.39 376.302z"/>
<path style="stroke:none; fill:#a50000" d="M 398.167 355.819C 398.901 357.073 400.063 358.973 401.065 360.644C 402.07 362.315 404.059 365.642 404.949 367.061C 404.379 367.693 403.828 368.438 403.361 369.191C 400.933 368.108 398.458 367.079 395.905 366.04C 393.916 365.241 392.029 364.464 390.695 363.974C 389.879 363.68 388.748 363.336 388.195 363.359L 388.127 363.3C 388.625 362.823 389.15 362.243 389.642 361.635C 390.164 361.024 390.658 360.419 391.086 359.849C 391.564 360.26 392.424 360.747 393.029 361.079C 394.024 361.62 395.796 362.393 397.718 363.199C 399.138 363.794 400.143 364.25 401.344 364.686L 401.405 364.615C 400.794 363.56 399.477 361.527 398.823 360.56C 397.196 358.198 395.929 356.455 394.645 355.698C 395.065 355.278 395.405 354.917 395.808 354.449C 396.192 354 396.501 353.64 396.866 353.111C 397.227 354.108 397.735 355.075 398.167 355.819z"/>
<path style="stroke:none; fill:#a50000" d="M 415.608 352.607C 414.257 354.436 413.477 355.625 412.626 356.878C 411.724 358.21 411.456 358.601 410.063 360.773C 408.289 359.171 406.475 357.909 404.033 356.251C 401.513 354.541 398.429 352.301 397.354 352.401L 397.298 352.363C 398.27 351.049 399.493 349.249 400.184 348.23C 400.743 347.408 401.697 345.964 402.923 344.08C 403.213 344.534 403.99 345.234 404.457 345.552L 404.404 345.63C 403.404 346.381 402.142 347.957 400.825 349.895C 401.945 350.856 404.023 352.21 405.012 352.88C 405.851 351.648 406.496 350.656 407.143 349.262C 407.58 349.702 408.197 350.237 408.762 350.649C 407.574 351.673 406.875 352.745 406.236 353.685L 408.457 355.192C 410.565 356.624 411.054 356.584 411.839 355.428C 412.837 353.958 413.661 352.344 413.841 351.036L 413.92 350.918C 414.493 351.679 415.013 352.118 415.608 352.607z"/>
<path style="stroke:none; fill:#a50000" d="M 407.721 338.205C 407.393 338.834 407.185 339.285 407.035 339.715C 407.932 340.288 409.113 340.903 409.453 341.079C 410.334 341.537 410.823 341.817 411.642 342.245C 411.927 341.751 412.099 341.467 412.284 341.11C 412.992 339.745 412.886 338.486 410.804 337.405C 409.045 336.489 408.17 337.343 407.721 338.205zM 422.213 340.243C 421.887 340.874 421.662 341.399 421.279 342.185C 420.102 341.813 418.818 341.546 417.368 341.3C 415.921 341.055 414.847 340.921 414.278 341.186C 413.706 341.45 413.411 342.07 412.983 342.94C 414.104 343.471 417.848 345.364 419.41 345.778C 419.064 346.346 418.707 346.985 418.376 347.616C 418.05 348.245 417.766 348.844 417.512 349.432C 415.722 348.129 411.991 346.216 410.811 345.601C 408.791 344.55 405.123 342.561 403.92 342.579L 403.861 342.547C 404.449 341.465 404.885 340.626 405.443 339.554C 406.088 338.314 406.549 337.379 407.238 336.058C 408.656 333.327 410.48 333.235 412.144 334.1C 413.862 334.994 414.827 336.803 414.015 339.049L 414.056 339.07C 414.675 337.976 415.52 337.669 416.534 337.771C 417.235 337.844 417.448 337.872 418.686 338.035C 420.277 338.249 422.213 338.535 423.168 338.26L 423.287 338.321C 422.801 339.162 422.475 339.739 422.213 340.243z"/>
<path style="stroke:none; fill:#a50000" d="M 425.575 332.646C 425.27 333.442 424.41 335.241 423.842 336.469C 423.135 336.046 422.273 335.587 421.373 335.165L 421.416 335.055C 422.641 334.436 423.74 333.336 424.301 331.878C 424.795 330.596 424.482 329.513 423.367 329.085C 422.57 328.778 421.957 328.923 421.109 329.435C 419.853 330.196 418.826 331.297 417.387 332.088C 415.769 332.964 414.606 332.847 413.323 332.354C 412.06 331.87 409.891 330.224 411.706 325.496C 412.046 324.612 412.622 323.236 413.198 322.113C 413.782 322.541 414.651 323.103 415.477 323.597L 415.436 323.707C 414.491 324.029 413.651 324.519 413.015 326.176C 412.413 327.745 412.977 328.849 413.903 329.206C 415.02 329.633 415.71 329.72 418.181 327.626C 421.264 325.007 422.352 325.322 423.676 325.831C 425.275 326.446 427.272 328.226 425.575 332.646z"/>
<path style="stroke:none; fill:#a50000" d="M 429.001 322.057C 428.802 322.74 428.692 323.201 428.458 324.167C 426.04 323.12 422.949 322.197 421.24 321.7C 418.793 320.987 415.44 319.914 413.765 320.191L 413.7 320.173C 413.948 319.48 414.142 318.895 414.333 318.237C 414.524 317.577 414.694 316.839 414.903 316.035C 416.692 316.903 420.793 318.069 421.615 318.308C 422.979 318.703 426.87 319.861 429.608 320.212C 429.274 321.2 429.118 321.647 429.001 322.057z"/>
<path style="stroke:none; fill:#a50000" d="M 419.695 303.64L 419.666 303.78C 419.322 304.242 418.697 305.758 418.314 307.687C 418.779 307.779 421.771 308.448 424.955 309.081C 428.095 309.708 431.36 310.044 431.892 310.031C 431.663 310.951 431.591 311.201 431.427 312.013C 431.288 312.71 431.188 313.22 431.083 314.092C 429.202 313.381 425.098 312.514 423.594 312.214C 422.002 311.897 419.121 311.37 417.635 311.099C 417.311 312.724 417.071 314.848 417.325 315.528L 417.299 315.666C 416.685 315.4 415.808 315.08 415.229 314.965C 415.792 312.832 416.167 311.072 416.56 309.099C 416.985 306.964 417.397 304.897 417.664 302.753C 418.13 303.063 418.967 303.374 419.695 303.64z"/>
<path style="stroke:none; fill:#a50000" d="M 420.514 291.455C 421.682 292.384 422.898 293.268 427.214 296.052C 428.696 296.174 429.505 296.242 430.589 296.263C 431.604 296.275 432.87 296.287 433.606 296.158C 433.468 297.003 433.422 297.566 433.369 298.206C 433.312 298.866 433.284 299.22 433.259 300.31C 432.603 300.065 431.13 299.799 430.368 299.734C 429.29 299.645 428.464 299.506 426.979 299.381C 423.35 300.859 420.236 302.405 419.457 302.792C 418.961 303.034 418.052 303.601 417.704 303.976L 417.614 303.968C 417.728 303.17 417.815 302.394 417.882 301.591C 417.948 300.79 417.995 299.962 418.026 299.062C 418.59 299.086 419.166 298.968 419.654 298.794C 420.865 298.373 422.537 297.871 425.189 296.714L 425.196 296.643C 423.777 295.74 421.697 294.664 420.477 294.087C 419.891 293.802 419.051 293.564 418.486 293.564C 418.578 292.979 418.634 292.58 418.703 291.754C 418.754 291.141 418.803 290.552 418.782 290.003C 419.367 290.6 420.176 291.212 420.514 291.455z"/>
<path style="stroke:none; fill:#a50000" d="M 419.514 228.135C 419.385 230.315 417.079 231.783 415.257 232.805C 413.476 233.8 411.106 231.454 410.708 229.967C 410.511 229.244 410.319 226.974 410.964 226.453C 411.708 225.856 412.778 226.325 413.532 225.701C 413.601 225.648 413.683 225.314 413.671 225.225C 413.411 223.075 416.671 224.427 418.376 225.775C 418.892 226.182 419.534 227.744 419.514 228.135zM 423.92 242.157C 423.779 241.539 423.324 239.888 423.27 238.808L 423.268 238.812C 423.211 235.984 422.531 233.521 422.15 230.726C 421.986 229.513 421.328 225.003 423.436 225.039C 423.564 225.041 423.947 224.573 423.959 224.429C 424.148 222.208 422.709 221.333 420.728 222.14C 419.629 222.586 419.008 222.735 417.959 222.05C 417.737 221.907 415.601 220.691 413.64 219.387C 412.401 218.568 408.621 215.684 408.621 215.684C 406.898 214.654 405.184 212.045 404.162 215.028C 405.482 217.679 408.455 218.625 410.495 220.474C 411.497 221.351 412.183 223.272 410.141 222.592C 408.144 221.878 405.861 219.416 404.637 218.714C 403.49 218.049 400.841 217.791 401.755 219.898C 402.294 221.138 403.291 222.234 404.531 222.81C 405.217 223.129 407.623 223.918 407.764 224.458C 408.137 225.227 407.973 227.151 407.426 227.824C 406.531 228.924 404.135 227.172 402.982 226.266C 402.916 226.212 402.417 225.892 401.731 225.485C 400.975 225.03 399.319 224.25 398.212 223.747C 397.642 223.491 396.466 223.075 396.124 222.974C 394.909 222.612 391.053 221.661 391.812 224.389C 391.824 224.431 391.922 224.574 392.053 224.664C 392.445 224.94 393.377 225.549 394.433 226.128C 395.446 226.684 400.077 228.114 401.776 229.028C 403.377 229.891 405.221 230.33 406.584 231.603C 407.157 232.143 407.367 232.61 407.482 233.106C 407.6 233.601 408.197 236.579 408.197 237.642C 408.197 240.347 407.502 243.54 406.869 245.585C 406.217 247.7 404.344 251.191 407.764 251.318C 411.175 251.446 411.046 240.236 411.241 237.769C 411.3 237.018 411.56 233.644 413.042 234.882C 415.511 236.952 414.868 240.313 415.167 243.077C 415.249 243.868 415.942 244.08 416.63 244.287C 416.858 244.357 417.745 244.317 417.849 244.154C 418.412 243.256 418.498 242.113 418.439 241.075C 418.342 239.273 417.483 236.765 418.193 234.967C 418.687 233.937 419.465 233.588 419.826 234.847C 419.842 234.902 419.857 234.941 419.875 234.985C 419.978 235.363 420.135 236.542 420.129 236.791C 420.084 238.814 420.853 244.18 420.957 244.315C 421.754 245.371 423.217 245.95 424.242 244.552C 424.592 244.131 424.057 242.775 423.92 242.157z"/>
<path style="stroke:none; fill:#a50000" d="M 321.896 336.592C 321.896 336.95 321.573 337.242 321.179 337.242L 314.187 337.242C 313.787 337.242 313.463 336.95 313.463 336.592L 313.463 334.988C 313.463 334.634 313.787 334.342 314.187 334.342L 314.187 334.348L 321.179 334.348C 321.566 334.348 321.896 334.644 321.896 334.995L 321.896 336.592zM 323.791 332.363L 311.575 332.363C 310.72 332.363 310.028 333.115 310.028 334.044L 310.028 337.612C 310.028 338.534 310.72 339.285 311.575 339.285L 316.37 339.287L 321.179 339.291C 321.566 339.291 321.896 339.589 321.896 339.94L 321.896 341.055C 321.896 341.411 321.573 341.701 321.179 341.701L 314.181 341.701C 313.899 341.701 313.66 341.554 313.543 341.341L 310.028 341.341L 310.028 342.011C 310.028 342.933 310.72 343.685 311.575 343.685L 323.791 343.685C 324.642 343.685 325.336 342.933 325.336 342.007L 325.336 334.044C 325.336 333.115 324.642 332.363 323.791 332.363z"/>
<path style="stroke:none; fill:#a50000" d="M 333.096 339.453C 333.096 339.097 333.415 338.805 333.809 338.805L 340.801 338.805C 341.199 338.805 341.527 339.097 341.527 339.453L 341.527 341.057C 341.527 341.414 341.199 341.706 340.801 341.706L 340.801 341.698L 333.809 341.698C 333.421 341.698 333.096 341.401 333.096 341.05L 333.096 339.453zM 331.196 343.685L 343.414 343.685C 344.265 343.685 344.961 342.931 344.961 342.005L 344.961 338.436C 344.961 337.513 344.265 336.761 343.414 336.761L 338.619 336.759L 333.809 336.757C 333.421 336.757 333.096 336.458 333.096 336.106L 333.096 334.993C 333.096 334.636 333.415 334.345 333.809 334.345L 340.808 334.345C 341.09 334.345 341.33 334.493 341.445 334.708L 344.961 334.708L 344.961 334.035C 344.961 333.112 344.265 332.362 343.414 332.362L 331.196 332.362C 330.348 332.362 329.654 333.114 329.654 334.041L 329.654 342.005C 329.654 342.931 330.348 343.685 331.196 343.685z"/>
</g>
</g>
</g>
<g>
</g>
</svg>