<?xml version="1.0" encoding="UTF-8" standalone="yes"?>
<!-- Created with sK1/UniConvertor (http://sk1project.org/) -->
<svg xmlns="http://www.w3.org/2000/svg" xmlns:xlink="http://www.w3.org/1999/xlink"
  width="595.276pt" height="841.89pt" viewBox="0 0 595.276 841.89"
  fill-rule="evenodd">
  <defs> 
	<marker id="ArrowEnd" viewBox="0 0 10 10" refX="0" refY="5" 
		markerUnits="strokeWidth" 
		markerWidth="4" 
		markerHeight="3" 
		orient="auto"> 
		<path d="M 0 0 L 10 5 L 0 10 z" /> 
	</marker>
	<marker id="ArrowStart" viewBox="0 0 10 10" refX="10" refY="5" 
		markerUnits="strokeWidth" 
		markerWidth="4" 
		markerHeight="3" 
		orient="auto"> 
		<path d="M 10 0 L 0 5 L 10 10 z" /> 
	</marker> </defs>
<g>
<g>
<g>
<path style="stroke:none; fill:#0033ff" d="M 298.811 157.034C 220.651 157.034 157.062 220.623 157.062 298.785C 157.062 376.947 220.651 440.536 298.811 440.536C 376.973 440.536 440.561 376.947 440.561 298.785C 440.561 220.623 376.973 157.034 298.811 157.034zM 437.095 298.785C 437.095 375.036 375.063 437.07 298.811 437.07C 222.561 437.07 160.526 375.036 160.526 298.785C 160.526 222.534 222.561 160.499 298.811 160.499C 375.063 160.499 437.095 222.534 437.095 298.785z"/>
<path style="stroke:none; fill:#0033ff" d="M 298.811 162.321C 223.565 162.321 162.345 223.539 162.345 298.786C 162.345 374.033 223.565 435.251 298.811 435.251C 374.058 435.251 435.277 374.033 435.277 298.786C 435.277 223.539 374.058 162.321 298.811 162.321zM 433.978 298.786C 433.978 373.316 373.342 433.954 298.811 433.954C 224.28 433.954 163.646 373.316 163.646 298.786C 163.646 224.254 224.28 163.62 298.811 163.62C 373.342 163.62 433.978 224.254 433.978 298.786z"/>
<path style="stroke:none; fill:#0033ff" d="M 255.719 176.941C 255.526 182.038 260.255 179.361 263.267 179.129C 264.323 179.049 273.841 175.334 272.506 179.245C 271.678 181.676 268.556 180.874 266.625 181.094C 264.317 181.361 261.712 182.197 259.6 183.167C 257.534 184.112 259.073 185.442 260.725 185.028C 262.243 184.643 263.68 184.503 265.25 184.593C 269 184.813 272.955 185.9 276.043 188.089C 277.615 189.205 282.103 193.647 279.275 194.991C 277.565 195.802 275.214 193.422 273.994 192.357C 272.027 190.641 270.721 189.122 268.133 188.307C 263.467 186.837 258.705 187.749 255.003 190.953C 251.634 193.873 249.155 197.193 248.368 201.605C 248.043 203.428 247.254 209.976 244.247 207.805C 240.928 205.407 245.66 197.618 246.532 196.232C 246.966 195.541 247.795 194.622 248.683 193.657C 249.258 193.032 250.556 191.51 251.543 190.381C 252.079 189.765 253.842 188.091 254.546 187.535C 255.587 186.714 256.021 185.248 254.084 185.336C 252.254 185.415 251.446 186.503 249.215 187.442C 246.987 188.383 241.26 193.656 240.172 190.533C 238.827 186.666 247.387 185.11 249.706 184.189C 250.243 183.975 250.972 183.723 251.541 183.509C 251.995 183.338 252.596 182.936 252.674 182.832C 253.148 182.204 253.493 181.287 253.306 180.83C 252.834 179.685 251.987 178.266 251.985 177.07C 252.923 176.217 254.722 176.154 255.719 176.941z"/>
<path style="stroke:none; fill:#0033ff" d="M 248.16 333.429L 238.141 328.068L 234.816 333.867C 237.215 335.506 238.376 337.986 238.7 340.851L 256.567 350.414L 262.037 340.856L 253.09 336.071L 280.752 284.569C 280.878 284.362 280.826 284.146 280.568 284L 276.337 281.742C 276.044 281.605 275.857 281.68 275.737 281.897L 248.16 333.431L 248.16 333.429z"/>
<path style="stroke:none; fill:#0033ff" d="M 264.687 337.445L 337.353 337.445C 338.831 337.445 340.038 338.661 340.038 340.146L 340.038 356.853C 340.038 358.343 338.831 359.559 337.353 359.559L 264.687 359.559C 263.206 359.559 261.995 358.343 261.995 356.853L 261.995 340.146C 261.995 338.656 263.206 337.444 264.687 337.444M 265.58 339.796L 336.212 339.796C 337.017 339.796 337.675 340.455 337.675 341.267L 337.675 355.733C 337.675 356.541 337.017 357.207 336.212 357.207L 265.927 357.207C 265.12 357.207 264.459 356.541 264.459 355.733L 264.459 340.912C 264.459 340.3 264.964 339.797 265.574 339.797L 265.58 339.796z"/>
<path style="stroke:none; fill:#0033ff" d="M 259.817 260.112L 284.5 260.112L 284.5 254.723L 259.817 254.723L 259.817 260.112z"/>
<path style="stroke:none; fill:#0033ff" d="M 259.817 268.312L 284.5 268.312L 284.5 262.922L 259.817 262.922L 259.817 268.312z"/>
<path style="stroke:none; fill:#0033ff" d="M 259.817 276.514L 284.5 276.514L 284.5 271.124L 259.817 271.124L 259.817 276.514z"/>
<path style="stroke:none; fill:#0033ff" d="M 354.698 307.096L 356.235 307.096C 356.665 307.096 357.011 307.383 357.011 307.714L 357.011 309.49C 357.794 309.052 358.328 308.222 358.328 307.268L 358.328 299.902C 358.328 298.949 357.794 298.111 357.011 297.677L 357.011 299.125C 357.011 299.46 356.661 299.747 356.235 299.747L 354.698 299.747C 354.273 299.747 353.921 299.465 353.921 299.125L 353.921 297.677C 353.138 298.111 352.609 298.946 352.609 299.902L 352.609 307.268C 352.609 308.222 353.14 309.052 353.921 309.49L 353.921 307.714C 353.921 307.377 354.267 307.096 354.698 307.096zM 254.692 285.865C 253.822 285.852 252.999 285.918 252.553 286.619C 251.217 288.732 251.517 294.55 251.517 296.874L 245.17 296.874L 243.588 295.323L 243.588 284.729C 245.123 282.25 248.988 280.405 256.117 280.413L 271.541 280.429C 272.025 280.429 272.207 280.841 272.065 281.104L 263.605 296.856L 254.692 296.874L 254.692 285.859L 254.692 285.865zM 276.7 299.698L 299.217 299.698C 299.98 299.698 300.6 300.324 300.6 301.078L 300.6 302.486C 300.6 303.24 299.973 303.868 299.217 303.868L 275.004 303.868C 276.28 304.896 277.627 307.002 278.29 308.295L 280.148 308.295C 280.148 308.295 283.657 310.369 283.248 313.073C 282.834 315.768 282.004 316.386 279.529 318.461C 277.053 320.541 272.506 325.106 270.651 327.599C 268.791 330.089 268.791 333.823 270.856 333.823L 300.588 333.823L 300.588 333.827L 330.527 333.827C 330.82 333.827 331.066 333.755 331.277 333.617C 332.559 332.798 332.334 329.738 330.736 327.599C 328.875 325.109 324.335 320.541 321.86 318.461C 319.381 316.386 318.556 315.765 318.139 313.073C 317.975 311.979 318.45 310.993 319.077 310.197C 319.089 310.178 319.106 310.157 319.118 310.142L 319.127 310.136C 319.14 310.115 319.153 310.106 319.163 310.089C 319.165 310.089 319.169 310.081 319.169 310.076C 319.182 310.059 319.199 310.041 319.21 310.032C 319.21 310.026 319.21 310.021 319.214 310.021C 319.229 310.005 319.247 309.988 319.261 309.971C 319.263 309.971 319.263 309.965 319.263 309.965C 319.282 309.95 319.294 309.933 319.307 309.912L 319.313 309.912C 319.331 309.895 319.347 309.871 319.366 309.856L 319.366 309.85C 319.386 309.831 319.398 309.808 319.421 309.791L 319.487 309.727C 319.495 309.715 319.511 309.7 319.521 309.681C 320.353 308.824 321.235 308.3 321.245 308.295L 323.103 308.295C 324.112 305.933 325.797 304.015 327.447 302.569C 329.859 300.459 332.186 299.361 332.186 299.361L 337.558 299.361C 342.035 294.224 347.873 292.445 353.927 291.42L 353.927 294.574C 351.821 294.768 350.153 296.555 350.153 298.705L 350.153 308.54C 350.153 310.7 351.821 312.483 353.927 312.676L 353.927 318.163C 351.821 318.349 350.153 320.142 350.153 322.295L 350.153 331.926C 350.153 334.214 352.015 336.075 354.3 336.075L 356.648 336.075C 358.927 336.075 360.797 334.214 360.797 331.926L 360.797 322.295C 360.797 320.142 359.126 318.349 357.023 318.163L 357.023 312.676C 359.128 312.483 360.797 310.7 360.797 308.54L 360.797 298.705C 360.797 296.555 359.126 294.768 357.023 294.574L 357.023 290.947C 357.765 290.846 358.499 290.666 359.246 290.568C 367.005 289.282 366.967 286.391 366.967 286.631L 366.967 280.475L 281.789 280.475L 285.307 282.314C 285.598 282.44 285.787 282.78 285.56 283.148L 276.704 299.692L 276.7 299.698zM 357.015 321.269L 357.015 322.611C 357.015 322.954 356.665 323.236 356.239 323.236L 354.698 323.236C 354.273 323.236 353.921 322.954 353.921 322.611L 353.921 321.269C 353.14 321.698 352.609 322.538 352.609 323.491L 352.609 330.653C 352.609 332.053 353.757 333.196 355.148 333.196L 355.79 333.196C 357.181 333.196 358.33 332.049 358.33 330.653L 358.33 323.491C 358.33 322.538 357.801 321.706 357.015 321.269zM 279.59 325.247L 321.45 325.247C 322.208 325.247 322.837 325.872 322.837 326.63L 322.837 328.037C 322.837 328.797 322.208 329.421 321.45 329.421L 279.59 329.421C 278.828 329.421 278.206 328.797 278.206 328.037L 278.206 326.63C 278.206 325.872 278.828 325.247 279.59 325.247zM 286.944 316.207L 314.098 316.207C 314.859 316.207 315.48 316.837 315.48 317.596L 315.48 318.999C 315.48 319.763 314.859 320.384 314.098 320.384L 286.944 320.384C 286.188 320.384 285.554 319.763 285.554 318.999L 285.554 317.596C 285.554 316.837 286.178 316.207 286.944 316.207zM 287.981 307.695L 313.062 307.695C 313.818 307.695 314.445 308.322 314.445 309.077L 314.445 310.483C 314.445 311.24 313.814 311.866 313.062 311.866L 287.981 311.866C 287.227 311.866 286.598 311.244 286.598 310.483L 286.598 309.077C 286.598 308.317 287.219 307.695 287.981 307.695zM 309.765 299.698L 321.013 299.698C 321.776 299.698 322.396 300.324 322.396 301.078L 322.396 302.486C 322.396 303.24 321.765 303.868 321.013 303.868L 309.765 303.868C 309.028 303.868 308.384 303.24 308.384 302.486L 308.384 301.078C 308.384 300.314 309.007 299.698 309.765 299.698z"/>
<path style="stroke:none; fill:#0033ff" d="M 286.491 260.112L 290.745 260.112L 290.745 254.723L 286.491 254.723L 286.491 260.112z"/>
<path style="stroke:none; fill:#0033ff" d="M 263.041 249.808C 270.585 249.396 278.749 246.859 285.86 243.251L 288.077 248.151C 280.244 251.915 271.429 254.432 264.33 254.788L 263.041 249.808z"/>
<path style="stroke:none; fill:#0033ff" d="M 291.598 240.502L 287.734 242.365L 289.947 247.204L 293.825 245.322L 291.598 240.506L 291.598 240.502z"/>
<path style="stroke:none; fill:#0033ff" d="M 286.491 268.312L 290.745 268.312L 290.745 262.922L 286.491 262.922L 286.491 268.312z"/>
<path style="stroke:none; fill:#0033ff" d="M 286.491 276.514L 290.745 276.514L 290.745 271.124L 286.491 271.124L 286.491 276.514z"/>
<path style="stroke:none; fill:#0033ff" d="M 316.574 246.824L 324.378 242.519L 340.796 272.307L 332.992 276.606L 316.574 246.824zM 321.54 250.949L 325.044 248.992L 325.992 250.642L 322.487 252.599L 321.54 250.949zM 323.538 254.536L 327.048 252.581L 327.996 254.227L 324.483 256.182L 323.538 254.536z"/>
<path style="stroke:none; fill:#0033ff" d="M 307.386 238.648L 316.768 238.648L 316.768 276.573L 307.386 276.573L 307.386 238.648zM 293.809 235.148L 304.309 235.148L 304.309 276.577L 293.809 276.577L 293.809 235.148zM 297.05 240.502L 301.068 240.502L 301.068 242.374L 297.05 242.374L 297.05 240.502zM 297.05 244.613L 301.068 244.613L 301.068 246.486L 297.05 246.486L 297.05 244.613zM 297.05 248.721L 301.068 248.721L 301.068 250.595L 297.05 250.595L 297.05 248.721zM 297.05 252.83L 301.068 252.83L 301.068 254.703L 297.05 254.703L 297.05 252.83zM 310.067 244.613L 314.088 244.613L 314.088 246.486L 310.067 246.486L 310.067 244.613zM 310.067 248.721L 314.088 248.721L 314.088 250.595L 310.067 250.595L 310.067 248.721zM 310.067 252.83L 314.088 252.83L 314.088 254.703L 310.067 254.703L 310.067 252.83z"/>
<path style="stroke:none; fill:#0033ff" d="M 298.784 379.42C 254.36 379.42 218.189 343.228 218.189 298.835C 218.189 254.393 254.36 218.199 298.784 218.199C 343.21 218.199 379.434 254.393 379.434 298.835C 379.434 343.228 343.21 379.42 298.784 379.42zM 396.992 296.184L 389.29 295.186C 388.988 295.136 388.788 295.035 388.589 294.785C 388.536 293.536 388.489 292.285 388.39 291.085C 388.489 290.835 388.691 290.686 388.988 290.637L 396.492 288.636C 396.594 288.585 396.742 288.536 396.742 288.236C 396.643 287.585 396.594 286.836 396.444 285.987L 396.444 285.935L 396.444 285.888C 396.342 285.085 396.242 284.335 396.143 283.685C 396.094 283.386 395.944 283.386 395.791 283.386L 388.036 283.386C 387.738 283.386 387.488 283.286 387.337 283.086C 387.087 281.887 386.837 280.687 386.585 279.438C 386.689 279.188 386.837 279.039 387.136 278.938L 394.342 275.939C 394.442 275.889 394.592 275.838 394.492 275.539C 394.342 274.888 394.192 274.189 393.942 273.39L 393.942 273.339L 393.942 273.289C 393.692 272.489 393.49 271.74 393.34 271.089C 393.24 270.841 393.092 270.841 392.94 270.841L 385.236 271.889C 384.937 271.94 384.738 271.889 384.486 271.69C 384.136 270.49 383.736 269.341 383.285 268.189C 383.386 267.89 383.536 267.689 383.786 267.54L 390.541 263.691C 390.641 263.64 390.742 263.541 390.641 263.29C 390.442 262.641 390.139 261.941 389.841 261.191L 389.788 261.141L 389.788 261.092C 389.439 260.29 389.14 259.64 388.888 258.991C 388.788 258.742 388.638 258.791 388.489 258.791L 380.985 260.841C 380.684 260.94 380.432 260.891 380.182 260.691C 379.682 259.591 379.131 258.541 378.584 257.492C 378.584 257.141 378.731 256.942 378.985 256.741L 385.138 252.043C 385.236 251.941 385.337 251.841 385.236 251.592C 384.888 250.993 384.536 250.342 384.136 249.642C 384.136 249.642 384.136 249.593 384.087 249.593L 384.087 249.545C 383.638 248.793 383.285 248.142 382.936 247.594C 382.786 247.344 382.635 247.394 382.485 247.444L 375.33 250.443C 375.029 250.593 374.78 250.543 374.481 250.392C 373.827 249.392 373.179 248.443 372.528 247.494C 372.427 247.142 372.528 246.894 372.778 246.644L 378.281 241.146C 378.383 241.045 378.483 240.945 378.332 240.695C 377.934 240.195 377.481 239.594 376.983 238.896L 376.932 238.896L 376.932 238.846L 376.883 238.846C 376.381 238.146 375.932 237.595 375.531 237.047C 375.33 236.845 375.18 236.895 375.08 236.995L 368.376 240.844C 368.073 241.045 367.777 241.045 367.476 240.895C 366.723 240.045 365.974 239.145 365.174 238.296C 365.074 237.995 365.123 237.695 365.324 237.445L 370.079 231.297C 370.177 231.197 370.228 231.047 370.027 230.845C 369.577 230.347 369.077 229.797 368.476 229.247L 368.476 229.196L 368.427 229.196L 368.427 229.147L 368.376 229.147C 367.825 228.547 367.277 228.047 366.776 227.596C 366.575 227.396 366.425 227.498 366.325 227.547L 360.174 232.297C 359.922 232.495 359.619 232.547 359.32 232.446C 358.47 231.696 357.571 230.896 356.716 230.197C 356.571 229.846 356.571 229.598 356.77 229.298L 360.672 222.549C 360.721 222.448 360.771 222.297 360.572 222.147C 360.021 221.698 359.471 221.248 358.771 220.748L 358.771 220.698L 358.72 220.698L 358.72 220.648C 358.019 220.149 357.419 219.699 356.919 219.298C 356.669 219.149 356.571 219.247 356.47 219.348L 350.968 224.847C 350.716 225.097 350.466 225.198 350.166 225.147C 349.166 224.448 348.215 223.799 347.213 223.148C 347.063 222.898 347.014 222.596 347.164 222.297L 350.166 215.149C 350.215 215 350.267 214.848 350.013 214.699C 349.465 214.349 348.815 214 348.066 213.549L 348.016 213.549C 348.016 213.549 348.016 213.5 347.967 213.5C 347.264 213.1 346.613 212.75 346.014 212.398C 345.764 212.3 345.664 212.398 345.565 212.5L 340.862 218.649C 340.659 218.95 340.458 219.049 340.11 219.049C 339.06 218.498 338.009 217.949 336.907 217.45C 336.706 217.2 336.659 216.949 336.759 216.649L 338.812 209.149C 338.812 209.05 338.858 208.849 338.61 208.752C 337.958 208.5 337.31 208.2 336.507 207.85L 336.458 207.85L 336.407 207.85C 335.655 207.501 334.958 207.252 334.307 207.001C 334.059 206.901 333.957 207.05 333.906 207.151L 330.057 213.849C 329.902 214.15 329.703 214.298 329.404 214.349C 328.252 213.9 327.103 213.5 325.901 213.149C 325.702 212.948 325.651 212.7 325.702 212.398L 326.754 204.7C 326.754 204.55 326.754 204.401 326.504 204.351C 325.85 204.151 325.1 203.95 324.302 203.751L 324.302 203.701L 324.249 203.701L 324.202 203.701C 323.401 203.501 322.698 203.301 322.048 203.151C 321.749 203.101 321.698 203.2 321.649 203.351L 318.647 210.501C 318.547 210.799 318.397 210.95 318.147 211.05C 316.898 210.799 315.697 210.55 314.496 210.3C 314.297 210.15 314.195 209.901 314.195 209.598L 314.195 201.85C 314.195 201.751 314.195 201.551 313.896 201.551C 313.246 201.401 312.494 201.302 311.691 201.201L 311.643 201.201L 311.596 201.201C 310.743 201.102 309.993 201.002 309.341 200.952C 309.042 200.903 308.991 201.052 308.991 201.151L 306.94 208.65C 306.889 208.949 306.741 209.149 306.489 209.299C 305.292 209.2 304.038 209.101 302.786 209.05C 302.587 208.9 302.436 208.65 302.436 208.35L 301.434 200.652C 301.387 200.551 301.336 200.402 301.086 200.402C 300.734 200.352 300.387 200.352 299.986 200.352L 299.887 200.352L 299.836 200.352L 299.735 200.352L 299.685 200.352L 299.635 200.352L 299.587 200.352L 299.536 200.352L 299.486 200.352L 299.435 200.352L 299.386 200.352L 299.287 200.352L 299.235 200.352L 299.085 200.352L 299.036 200.352L 298.987 200.352L 298.935 200.352L 298.885 200.352L 298.836 200.352L 298.784 200.352L 298.736 200.352L 298.686 200.352L 298.637 200.352L 298.585 200.352L 298.535 200.352L 298.485 200.352L 298.433 200.352L 298.386 200.352L 298.336 200.352L 298.285 200.352L 298.236 200.352L 298.184 200.352L 298.133 200.352L 298.085 200.352L 298.037 200.352L 297.984 200.352L 297.935 200.352L 297.883 200.352L 297.535 200.352C 297.135 200.352 296.784 200.352 296.433 200.402C 296.185 200.402 296.133 200.551 296.133 200.652L 295.133 208.35C 295.083 208.65 294.981 208.9 294.733 209.05C 293.48 209.101 292.279 209.2 291.03 209.299C 290.832 209.149 290.682 208.949 290.631 208.65L 288.63 201.151C 288.579 201.052 288.53 200.903 288.28 200.952C 287.58 201.002 286.829 201.102 286.027 201.201L 285.977 201.201L 285.928 201.201C 285.078 201.302 284.327 201.401 283.677 201.551C 283.426 201.551 283.377 201.751 283.377 201.85L 283.377 209.598C 283.426 209.901 283.328 210.15 283.125 210.3C 281.876 210.55 280.675 210.799 279.475 211.05C 279.175 210.95 279.025 210.799 278.925 210.501L 275.972 203.351C 275.923 203.2 275.821 203.101 275.573 203.151C 274.921 203.301 274.172 203.501 273.372 203.701L 273.321 203.701C 273.272 203.701 273.272 203.701 273.272 203.751C 272.471 203.95 271.72 204.151 271.12 204.351C 270.818 204.401 270.869 204.55 270.869 204.7L 271.87 212.398C 271.921 212.7 271.87 212.948 271.67 213.149C 270.519 213.5 269.318 213.9 268.168 214.349C 267.919 214.298 267.717 214.15 267.567 213.849L 263.666 207.151C 263.617 207.05 263.515 206.901 263.265 207.001C 262.615 207.252 261.964 207.501 261.163 207.85L 261.114 207.85L 261.064 207.85C 260.313 208.2 259.612 208.5 259.012 208.752C 258.763 208.849 258.763 209.05 258.813 209.149L 260.813 216.649C 260.913 216.949 260.864 217.2 260.714 217.45C 259.612 217.949 258.512 218.498 257.464 219.049C 257.163 219.049 256.913 218.95 256.712 218.649L 252.058 212.5C 251.959 212.398 251.859 212.3 251.609 212.398C 251.058 212.75 250.358 213.1 249.658 213.5L 249.658 213.549L 249.606 213.549L 249.558 213.549C 248.857 214 248.207 214.349 247.607 214.699C 247.406 214.848 247.457 215 247.507 215.149L 250.457 222.297C 250.607 222.596 250.607 222.898 250.408 223.148C 249.457 223.799 248.457 224.448 247.507 225.147C 247.156 225.198 246.906 225.097 246.657 224.847L 241.203 219.348C 241.104 219.247 240.952 219.149 240.752 219.298C 240.202 219.699 239.602 220.149 238.951 220.648L 238.901 220.698L 238.85 220.698L 238.85 220.748C 238.202 221.248 237.599 221.698 237.099 222.147C 236.851 222.297 236.951 222.448 237 222.549L 240.903 229.298C 241.053 229.598 241.104 229.846 240.952 230.197C 240.051 230.896 239.202 231.696 238.351 232.446C 238.001 232.547 237.699 232.495 237.449 232.297L 231.297 227.547C 231.196 227.498 231.047 227.396 230.846 227.596C 230.345 228.047 229.845 228.547 229.245 229.147L 229.196 229.196C 229.196 229.196 229.196 229.247 229.145 229.247C 228.594 229.797 228.044 230.347 227.594 230.845C 227.393 231.047 227.495 231.197 227.544 231.297L 232.297 237.445C 232.498 237.695 232.547 237.995 232.447 238.296C 231.697 239.145 230.944 240.045 230.196 240.895C 229.845 241.045 229.594 241.045 229.296 240.844L 222.542 236.995C 222.441 236.895 222.292 236.845 222.142 237.047C 221.69 237.595 221.24 238.146 220.74 238.846L 220.689 238.846L 220.689 238.896C 220.14 239.594 219.689 240.195 219.338 240.695C 219.139 240.945 219.239 241.045 219.338 241.146L 224.842 246.644C 225.092 246.894 225.193 247.142 225.144 247.494C 224.442 248.443 223.793 249.392 223.141 250.392C 222.891 250.543 222.591 250.593 222.292 250.443L 215.137 247.444C 215.038 247.394 214.888 247.344 214.736 247.594C 214.386 248.142 213.986 248.793 213.585 249.545L 213.536 249.545L 213.536 249.593L 213.536 249.642C 213.085 250.342 212.736 250.993 212.436 251.592C 212.285 251.841 212.385 251.941 212.486 252.043L 218.688 256.741C 218.939 256.942 219.04 257.141 219.04 257.492C 218.489 258.541 217.99 259.591 217.437 260.691C 217.187 260.891 216.939 260.94 216.638 260.841L 209.132 258.791C 209.034 258.791 208.883 258.742 208.732 258.991C 208.483 259.64 208.184 260.29 207.882 261.092L 207.834 261.092L 207.834 261.141L 207.834 261.191C 207.483 261.941 207.234 262.641 206.982 263.29C 206.882 263.541 207.033 263.64 207.132 263.691L 213.836 267.54C 214.135 267.689 214.287 267.89 214.336 268.189C 213.885 269.341 213.536 270.49 213.136 271.69C 212.936 271.889 212.685 271.94 212.385 271.889L 204.681 270.841C 204.581 270.841 204.38 270.841 204.33 271.089C 204.131 271.74 203.93 272.489 203.73 273.289L 203.681 273.289L 203.681 273.339L 203.681 273.39C 203.48 274.189 203.28 274.888 203.13 275.539C 203.08 275.838 203.23 275.889 203.331 275.939L 210.483 278.938C 210.784 279.039 210.935 279.188 211.035 279.438C 210.784 280.687 210.534 281.887 210.335 283.086C 210.135 283.338 209.883 283.386 209.585 283.386L 201.831 283.386C 201.729 283.386 201.58 283.386 201.529 283.685C 201.429 284.335 201.281 285.085 201.179 285.888L 201.179 285.935L 201.179 285.987C 201.078 286.836 200.979 287.585 200.928 288.236C 200.88 288.536 201.03 288.585 201.13 288.636L 208.635 290.637C 208.934 290.686 209.132 290.835 209.284 291.085C 209.185 292.285 209.085 293.536 209.034 294.785C 208.883 295.035 208.684 295.136 208.333 295.186L 200.628 296.184C 200.529 296.184 200.378 296.235 200.378 296.485C 200.33 297.186 200.33 297.935 200.33 298.733L 200.33 298.783L 200.33 298.835L 200.33 298.884C 200.33 299.683 200.33 300.434 200.378 301.133C 200.378 301.385 200.529 301.434 200.628 301.434L 208.333 302.433C 208.684 302.484 208.883 302.583 209.034 302.836C 209.085 304.083 209.185 305.283 209.284 306.534C 209.132 306.783 208.934 306.934 208.635 306.982L 201.13 308.982C 201.03 309.033 200.88 309.082 200.928 309.38C 200.979 310.032 201.078 310.783 201.179 311.582L 201.179 311.634L 201.179 311.684L 201.179 311.733C 201.281 312.532 201.378 313.282 201.529 313.933C 201.529 314.231 201.729 314.231 201.831 314.231L 209.585 314.231C 209.883 314.231 210.135 314.282 210.335 314.481C 210.534 315.731 210.784 316.931 211.035 318.184C 210.935 318.432 210.784 318.582 210.483 318.682L 203.331 321.68C 203.18 321.731 203.08 321.779 203.13 322.08C 203.28 322.68 203.48 323.431 203.681 324.23L 203.681 324.28L 203.681 324.33L 203.73 324.33C 203.93 325.13 204.131 325.881 204.33 326.529C 204.38 326.78 204.581 326.78 204.681 326.78L 212.385 325.73C 212.685 325.68 212.936 325.73 213.136 325.929C 213.486 327.13 213.885 328.281 214.336 329.429C 214.287 329.729 214.135 329.929 213.836 330.029L 207.132 333.927C 207.033 333.977 206.882 334.079 206.982 334.328C 207.234 334.978 207.483 335.677 207.834 336.427L 207.834 336.478L 207.834 336.527C 208.184 337.328 208.483 337.977 208.732 338.627C 208.833 338.828 209.034 338.828 209.132 338.777L 216.638 336.778C 216.939 336.68 217.187 336.727 217.437 336.927C 217.939 337.977 218.489 339.077 219.04 340.127C 219.04 340.476 218.939 340.677 218.639 340.878L 212.486 345.577C 212.385 345.677 212.285 345.774 212.385 346.026C 212.736 346.626 213.085 347.275 213.486 347.976C 213.536 347.976 213.536 348.025 213.536 348.025L 213.536 348.077L 213.585 348.077C 213.986 348.827 214.386 349.476 214.736 350.025C 214.837 350.226 214.987 350.226 215.137 350.175L 222.292 347.175C 222.591 347.026 222.891 347.075 223.141 347.226C 223.793 348.226 224.442 349.176 225.144 350.126C 225.193 350.478 225.092 350.727 224.842 350.977L 219.338 356.476C 219.239 356.575 219.139 356.675 219.338 356.926C 219.689 357.425 220.14 358.024 220.64 358.727L 220.689 358.727L 220.689 358.774L 220.74 358.774C 221.24 359.474 221.69 360.024 222.142 360.573C 222.292 360.775 222.441 360.723 222.542 360.626L 229.296 356.775C 229.594 356.575 229.845 356.575 230.196 356.723C 230.944 357.577 231.697 358.475 232.447 359.325C 232.547 359.625 232.498 359.925 232.297 360.176L 227.544 366.322C 227.495 366.425 227.393 366.574 227.594 366.773C 228.044 367.275 228.544 367.823 229.145 368.373C 229.145 368.373 229.145 368.422 229.196 368.422L 229.196 368.472L 229.245 368.472C 229.845 369.071 230.345 369.571 230.846 370.022C 231.047 370.222 231.196 370.124 231.297 370.072L 237.449 365.323C 237.699 365.121 238.001 365.073 238.299 365.172C 239.151 365.922 240.051 366.724 240.903 367.423C 241.053 367.772 241.053 368.071 240.852 368.322L 237 375.071C 236.898 375.172 236.851 375.322 237.048 375.522C 237.599 375.922 238.202 376.371 238.85 376.871L 238.85 376.922L 238.901 376.922L 238.901 376.97C 239.602 377.47 240.202 377.921 240.752 378.32C 240.952 378.47 241.053 378.371 241.153 378.272L 246.657 372.771C 246.906 372.522 247.156 372.422 247.507 372.471C 248.457 373.172 249.408 373.82 250.408 374.472C 250.556 374.72 250.607 375.022 250.457 375.322L 247.457 382.47C 247.406 382.621 247.406 382.771 247.607 382.921C 248.158 383.273 248.806 383.62 249.558 384.07L 249.606 384.07C 249.606 384.12 249.658 384.12 249.658 384.12C 250.358 384.521 251.008 384.87 251.609 385.22C 251.859 385.321 251.959 385.22 252.058 385.12L 256.712 378.97C 256.913 378.672 257.112 378.57 257.464 378.57C 258.512 379.121 259.612 379.669 260.663 380.171C 260.864 380.42 260.913 380.671 260.813 380.97L 258.813 388.42C 258.763 388.571 258.763 388.72 259.012 388.819C 259.612 389.071 260.262 389.368 261.064 389.721L 261.114 389.721C 261.163 389.721 261.163 389.721 261.163 389.77C 261.915 390.07 262.615 390.368 263.265 390.568C 263.515 390.67 263.617 390.568 263.666 390.42L 267.567 383.771C 267.668 383.471 267.867 383.321 268.168 383.273C 269.318 383.721 270.468 384.12 271.67 384.471C 271.87 384.67 271.921 384.921 271.87 385.22L 270.818 392.871C 270.818 393.02 270.818 393.169 271.07 393.219C 271.72 393.418 272.471 393.618 273.272 393.868L 273.321 393.868L 273.372 393.868C 274.172 394.117 274.921 394.269 275.522 394.419C 275.821 394.52 275.873 394.371 275.923 394.269L 278.925 387.068C 279.025 386.819 279.175 386.671 279.426 386.569C 280.675 386.819 281.876 387.068 283.125 387.271C 283.328 387.419 283.377 387.67 283.377 387.969L 283.377 395.72C 283.377 395.868 283.377 396.02 283.677 396.068C 284.327 396.168 285.078 396.268 285.881 396.368L 285.928 396.368L 285.977 396.368L 286.027 396.368C 286.829 396.518 287.58 396.57 288.229 396.668C 288.53 396.668 288.579 396.518 288.63 396.419L 290.631 388.919C 290.682 388.62 290.832 388.42 291.03 388.32C 292.231 388.42 293.48 388.471 294.733 388.519C 294.981 388.72 295.083 388.919 295.133 389.22L 296.133 396.918C 296.133 397.018 296.185 397.168 296.433 397.217L 297.883 397.217L 297.935 397.217L 297.984 397.217L 298.037 397.217L 298.085 397.217L 298.133 397.217L 298.184 397.217L 298.236 397.217L 298.285 397.217L 298.336 397.217L 298.386 397.217L 298.433 397.217L 298.485 397.217L 298.535 397.217L 298.585 397.217L 298.637 397.217L 298.686 397.217L 298.736 397.217L 298.784 397.217L 298.836 397.217L 298.885 397.217L 298.935 397.217L 298.987 397.217L 299.036 397.217L 299.085 397.217L 299.235 397.217L 299.287 397.217L 299.386 397.217L 299.435 397.217L 299.486 397.217L 299.536 397.217L 299.587 397.217L 299.635 397.217L 299.685 397.217L 299.735 397.217L 299.836 397.217L 299.887 397.217L 299.986 397.217L 300.685 397.217L 300.785 397.217L 300.836 397.217L 301.086 397.217C 301.336 397.168 301.387 397.018 301.434 396.918L 302.436 389.22C 302.436 388.919 302.587 388.72 302.786 388.519C 304.038 388.471 305.292 388.42 306.489 388.32C 306.741 388.42 306.889 388.62 306.989 388.919L 308.991 396.419C 308.991 396.518 309.093 396.668 309.341 396.668C 309.993 396.57 310.743 396.518 311.596 396.368L 311.643 396.368L 311.691 396.368C 312.543 396.268 313.246 396.168 313.947 396.068C 314.195 396.02 314.195 395.868 314.195 395.72L 314.195 387.969C 314.195 387.67 314.297 387.419 314.496 387.271C 315.697 387.068 316.945 386.819 318.147 386.569C 318.397 386.671 318.596 386.819 318.698 387.068L 321.649 394.269C 321.698 394.371 321.8 394.52 322.048 394.419C 322.698 394.269 323.401 394.117 324.249 393.868L 324.302 393.868L 324.35 393.868C 325.153 393.618 325.85 393.418 326.504 393.219C 326.754 393.169 326.754 393.02 326.754 392.871L 325.702 385.22C 325.651 384.921 325.751 384.67 325.901 384.471C 327.103 384.12 328.252 383.721 329.404 383.273C 329.703 383.321 329.902 383.471 330.057 383.771L 333.906 390.42C 334.006 390.568 334.106 390.67 334.357 390.568C 334.958 390.368 335.655 390.07 336.458 389.77L 336.458 389.721L 336.507 389.721C 337.31 389.368 338.009 389.071 338.61 388.819C 338.858 388.72 338.812 388.571 338.812 388.42L 336.759 380.97C 336.706 380.671 336.706 380.42 336.907 380.171C 338.009 379.669 339.06 379.121 340.159 378.57C 340.458 378.57 340.712 378.672 340.862 378.97L 345.615 385.12C 345.664 385.22 345.815 385.321 346.014 385.22C 346.613 384.87 347.264 384.521 348.016 384.12L 348.016 384.07L 348.066 384.07C 348.815 383.62 349.465 383.273 350.013 382.921C 350.267 382.771 350.215 382.621 350.166 382.47L 347.213 375.322C 347.063 375.022 347.063 374.72 347.213 374.472C 348.215 373.82 349.215 373.172 350.166 372.471C 350.466 372.422 350.765 372.522 350.968 372.771L 356.47 378.272C 356.571 378.371 356.669 378.47 356.919 378.32C 357.47 377.921 358.07 377.47 358.72 376.97L 358.72 376.922L 358.771 376.922C 358.771 376.922 358.771 376.871 358.819 376.871C 359.471 376.371 360.072 375.922 360.572 375.522C 360.771 375.322 360.721 375.172 360.672 375.071L 356.77 368.322C 356.571 368.071 356.571 367.772 356.716 367.423C 357.621 366.724 358.47 365.922 359.32 365.172C 359.67 365.073 359.922 365.121 360.223 365.323L 366.376 370.072C 366.476 370.124 366.575 370.222 366.776 370.022C 367.277 369.571 367.825 369.071 368.427 368.472L 368.427 368.422L 368.476 368.422L 368.476 368.373C 369.077 367.823 369.628 367.275 370.079 366.773C 370.228 366.574 370.177 366.425 370.079 366.322L 365.373 360.176C 365.123 359.925 365.074 359.625 365.174 359.325C 365.974 358.475 366.723 357.577 367.476 356.723C 367.777 356.575 368.073 356.575 368.376 356.775L 375.08 360.626C 375.18 360.723 375.33 360.775 375.531 360.573C 375.932 360.024 376.381 359.474 376.932 358.774L 376.932 358.727L 376.983 358.727C 377.481 358.024 377.934 357.425 378.332 356.926C 378.483 356.675 378.383 356.575 378.281 356.476L 372.778 350.977C 372.528 350.727 372.478 350.478 372.528 350.126C 373.179 349.176 373.827 348.226 374.481 347.226C 374.78 347.075 375.029 347.026 375.33 347.175L 382.534 350.175C 382.635 350.226 382.786 350.226 382.936 350.025C 383.285 349.476 383.638 348.827 384.087 348.077L 384.087 348.025L 384.136 348.025L 384.136 347.976C 384.536 347.275 384.937 346.626 385.236 346.026C 385.386 345.774 385.236 345.677 385.138 345.577L 378.985 340.878C 378.731 340.677 378.584 340.476 378.584 340.127C 379.131 339.077 379.682 337.977 380.182 336.927C 380.432 336.727 380.684 336.68 380.985 336.778L 388.489 338.777C 388.638 338.828 388.788 338.828 388.888 338.627C 389.191 337.977 389.489 337.328 389.788 336.527L 389.788 336.478L 389.841 336.427C 390.139 335.677 390.442 334.978 390.641 334.328C 390.742 334.079 390.641 333.977 390.541 333.927L 383.786 330.029C 383.536 329.929 383.386 329.729 383.335 329.429C 383.736 328.281 384.136 327.13 384.486 325.929C 384.738 325.73 384.937 325.68 385.236 325.73L 392.94 326.78C 393.092 326.78 393.24 326.78 393.34 326.529C 393.49 325.881 393.692 325.13 393.942 324.33L 393.942 324.28L 393.942 324.23C 394.192 323.431 394.342 322.68 394.492 322.08C 394.592 321.779 394.442 321.731 394.342 321.68L 387.136 318.682C 386.837 318.582 386.689 318.432 386.585 318.184C 386.888 316.931 387.087 315.731 387.337 314.481C 387.488 314.282 387.738 314.231 388.036 314.231L 395.791 314.231C 395.944 314.231 396.094 314.231 396.143 313.933C 396.242 313.282 396.342 312.532 396.444 311.733L 396.444 311.684L 396.444 311.634L 396.444 311.582C 396.594 310.783 396.643 310.032 396.742 309.38C 396.742 309.082 396.594 309.033 396.492 308.982L 388.988 306.982C 388.691 306.934 388.489 306.783 388.39 306.534C 388.489 305.283 388.536 304.083 388.589 302.836C 388.788 302.583 388.988 302.484 389.29 302.433L 396.992 301.434C 397.092 301.434 397.242 301.385 397.295 301.133L 397.295 298.884L 397.295 298.835L 397.295 298.783L 397.295 298.733L 397.295 296.485C 397.242 296.235 397.092 296.184 396.992 296.184z"/>
<path style="stroke:none; fill:#0033ff" d="M 291.548 351.464C 291.548 351.821 291.223 352.12 290.831 352.12L 283.765 352.12C 283.37 352.12 283.051 351.825 283.051 351.464L 283.051 350.037C 283.051 349.675 283.37 349.383 283.765 349.383L 290.831 349.383C 291.229 349.383 291.548 349.675 291.548 350.037L 291.548 351.464zM 283.167 345.408C 283.167 345.05 283.488 344.759 283.883 344.759L 290.714 344.759C 291.114 344.759 291.437 345.05 291.437 345.408L 291.437 346.796C 291.437 347.153 291.114 347.445 290.714 347.445L 283.883 347.445C 283.488 347.445 283.167 347.153 283.167 346.796L 283.167 345.408zM 293.867 348.38L 293.774 348.342L 293.538 348.254L 293.766 348.146L 293.854 348.103C 294.416 347.831 294.776 347.23 294.776 346.572L 294.776 344.454C 294.776 343.562 293.956 342.779 293.025 342.779L 281.438 342.779C 280.519 342.779 279.772 343.529 279.772 344.454L 279.772 346.572C 279.772 347.228 280.131 347.827 280.688 348.103L 280.777 348.148L 281.003 348.256L 280.768 348.344L 280.675 348.38C 280.044 348.615 279.621 349.254 279.621 349.967L 279.621 352.424C 279.621 353.347 280.315 354.098 281.168 354.098L 293.378 354.098C 294.234 354.098 294.93 353.347 294.93 352.424L 294.93 349.967C 294.93 349.254 294.505 348.615 293.867 348.38z"/>
<path style="stroke:none; fill:#0033ff" d="M 275.095 354.089L 271.51 354.089L 271.51 345.561C 271.501 345.23 271.233 345.218 271.104 345.213C 270.923 345.213 270.721 345.258 270.53 345.3L 267.862 345.923L 267.862 343.874L 270.678 343.161C 270.801 343.13 270.928 343.096 271.053 343.061C 271.536 342.928 272.035 342.793 272.504 342.79L 274.653 342.79C 274.941 342.793 275.093 342.953 275.095 343.256L 275.095 354.089z"/>
<path style="stroke:none; fill:#0033ff" d="M 193.631 239.78C 192.749 238.808 194.539 236.006 195.432 237.752C 195.56 238.926 194.439 240.063 193.631 239.78zM 212.303 226.632C 210.744 226.681 205.368 227.467 204.218 228.089C 201.477 229.573 200.391 231.013 198.694 233.57C 198.003 234.603 197.255 236.021 196.066 234.955C 195.185 234.167 194.327 235.37 193.307 235.066C 192.202 234.738 192.245 233.756 191.812 232.916C 191.195 231.717 189.757 233.025 188.942 233.166C 188.297 232.72 188.729 230.891 188.086 230.443C 185.978 230.414 185.507 231.726 185.988 233.449C 186.494 235.263 184.802 236.312 184.923 238.044C 185.501 238.603 186.375 238.419 186.981 238.044C 187.778 238.397 188.073 239.311 188.328 240.058C 188.755 241.307 189.302 240.637 190.297 240.597C 195.337 240.378 191.826 246.603 191.158 249.039C 190.799 250.354 190.304 252.245 191.025 253.527C 191.465 254.314 192.706 256.716 192.959 257.24C 194.111 259.199 199.761 261.941 197.788 257.659C 196.506 254.878 193.917 253.19 194.415 249.847C 194.995 245.934 195.714 243.051 197.335 239.452C 198.675 236.488 201.468 234.008 203.966 232.055C 205.194 231.093 206.474 230.294 208.089 230.271C 209.71 230.25 211.437 230.826 213.002 230.146C 213.712 229.179 213.051 227.367 212.303 226.632zM 203.824 245.713C 203.823 245.724 203.821 245.732 203.82 245.741C 203.657 247.885 201.736 247.974 201.519 247.279C 201.353 246.788 202.468 244.346 203.566 244.974C 203.653 245.025 203.841 245.368 203.838 245.461C 203.838 245.514 203.836 245.572 203.83 245.627C 203.827 245.656 203.825 245.684 203.824 245.713zM 199.902 244.652C 198.885 243.155 200.696 241.343 201.102 239.872C 201.28 239.629 201.377 239.299 201.798 239.27C 202.22 239.243 201.877 239.227 202.622 239.68C 203.368 240.132 200.917 246.152 199.902 244.652zM 207.532 234.119C 207.424 234.14 207.257 234.325 207.227 234.397C 206.505 236.056 208.068 241.359 205.407 241.389C 204.483 239.922 206.108 236.883 203.948 235.911C 202.319 235.175 201.161 236.191 200.377 237.538C 198.709 240.409 196.815 243.663 197.15 247.314C 197.691 248.28 199.09 248.147 199.682 249.055C 199.306 250.222 197.824 250.529 198.256 252.324C 198.275 252.402 198.472 252.633 198.544 252.661C 202.963 254.434 202.922 248.577 206.108 249.018C 206.69 249.493 205.895 251.342 206.743 252.025C 209.27 252.293 210.547 248.668 209.415 246.776C 207.711 243.928 209.072 243.067 209.903 240.308C 210.132 238.385 212.123 236.595 210.469 234.577C 210.124 234.083 208.174 233.989 207.532 234.119zM 189.793 228.982C 190.412 228.551 190.659 228.579 191.006 227.84C 191.349 227.111 191.883 226.549 192.736 226.514C 193.787 227.74 191.612 229.785 193.277 230.822C 194.921 230.956 194.292 229.323 195.937 229.458C 197.251 231.232 194.685 231.788 195.464 233.889C 198.074 234.762 198.862 231.019 198.794 229.19C 198.75 227.965 198.478 226.144 197.508 225.299C 196.456 224.385 195.02 223.183 193.71 222.684C 191.835 221.969 190.716 223.284 189.925 224.811C 189.172 226.262 187.741 227.553 187.834 229.323C 187.899 230.538 189.37 229.274 189.793 228.982zM 190.299 242.549C 190.236 242.455 189.755 242.301 189.613 242.334C 187.903 242.694 187.78 245.912 186.859 245.26C 185.936 244.607 187.453 242.537 186.381 241.462C 183.276 240.748 185.13 244.593 183.06 245.737C 182.564 245.578 182.209 245.552 182.082 245.084C 181.952 244.618 184.184 240.904 183.436 240.544C 181.456 239.253 181.292 241.26 181.15 242.784C 181.096 243.385 180.691 244.408 180.615 244.536C 179.458 246.531 181.025 247.725 182.967 248.494C 184.487 249.096 187.739 250.09 188.914 248.547C 189.996 247.124 191.499 244.279 190.299 242.549z"/>
<path style="stroke:none; fill:#0033ff" d="M 351.907 186.364C 351.872 186.355 351.687 186.191 351.626 186.12C 350.24 184.506 347.334 183.385 345.213 183.248C 345.096 183.241 344.887 183.191 344.752 183.143C 344.752 183.143 344.619 183.052 344.611 183.037C 344.176 182.553 343.49 180.633 345.051 181.13C 346.768 181.674 346.758 181.799 348.031 182.254C 349.17 182.661 351.044 183.268 352.056 183.751C 352.093 183.768 352.13 183.785 352.165 183.803C 352.239 183.842 352.31 183.88 352.374 183.913L 352.353 183.912C 352.532 184.015 352.702 184.132 352.86 184.279C 354.202 185.504 353.73 186.843 351.907 186.364zM 347.052 190.91C 347.393 188.865 350.002 191.062 349.377 192.421C 349.343 192.491 349.131 192.599 349.074 192.584C 348.723 192.474 348.467 192.246 348.227 192.002C 347.883 191.655 347.041 190.988 347.052 190.91zM 350.233 196.852C 349.795 198.113 346.416 195.872 346.484 194.296C 346.486 194.233 346.568 194.094 346.6 194.091C 347.649 193.947 350.676 195.568 350.233 196.852zM 347.65 202.369C 347.59 202.45 347.283 202.625 347.191 202.631C 345.369 202.708 342.552 201.753 342.503 199.662C 342.478 198.471 343.399 197.757 344.508 197.618C 344.908 197.569 345.236 197.679 345.541 197.84C 346.033 198.103 346.559 198.278 347.049 198.614C 347.158 198.686 347.26 198.762 347.354 198.841C 348.541 199.823 348.551 201.153 347.65 202.369zM 341.214 193.662C 340.694 193.426 338.823 192.434 339.05 191.651C 339.278 191.038 340.327 190.643 342.399 192.031C 342.484 192.089 342.626 192.47 342.611 192.602C 342.516 193.426 342.372 194.197 341.214 193.662zM 337.476 198.578C 336.364 197.878 335.528 196.657 335.792 196.078C 336.935 194.156 340.995 194.452 341.013 197.055C 341.023 198.596 338.569 199.267 337.476 198.578zM 341.908 189.001C 342.296 187.938 343.906 188.524 344.121 189.436C 344.137 189.51 343.99 189.686 343.916 189.699C 343.203 189.834 342.588 189.86 341.933 189.253C 341.908 189.229 341.889 189.056 341.908 189.001zM 330.814 193.614C 331.213 193.23 331.877 192.763 333.086 193.765C 333.148 193.817 333.307 194.093 333.316 194.169C 333.797 197.736 328.273 196.163 330.814 193.614zM 325.396 195.588C 324.274 195.103 325.965 188.712 328.059 190.129C 330.148 191.545 326.511 196.072 325.396 195.588zM 356.212 183.254C 352.23 180.997 348.147 179.272 343.619 178.471C 341.413 178.083 339.271 182.866 341.493 184.159C 342.376 184.673 345.838 184.526 345.709 186L 345.707 186.005C 345.547 186.927 342.16 185.179 339.493 186.662C 339.329 186.753 339.208 186.835 339.126 186.906C 338.329 187.447 337.669 188.408 336.925 189.093C 336.165 189.794 335.069 191.377 333.862 191.176C 332.9 191.01 331.248 189.438 331.354 189.223C 331.789 188.367 333.02 188.908 333.784 187.925C 335.173 186.135 334.876 184.052 335.661 182.085C 336.505 179.969 339.917 180.568 339.956 177.524C 339.974 176.286 338.815 175.583 337.967 174.754L 336.915 174.001C 336.411 173.69 334.332 173.719 334.667 175.261C 334.829 176.011 336.185 178.09 334.821 178.43C 332.973 178.894 330.4 178.072 328.611 177.616C 328.299 177.535 326.052 176.742 325.71 176.798C 325.433 176.841 325.196 176.915 325.046 177.055C 324.298 177.811 324.358 179.139 324.972 179.876C 324.983 179.886 324.993 179.9 325.005 179.911C 325.034 179.947 325.147 180.038 325.196 180.051C 325.595 180.155 327.059 180.246 327.091 180.246C 327.93 180.238 329.408 180.576 330.486 181.05L 330.486 181.042C 331.654 181.592 332.299 182.013 331.025 182.4C 331.004 182.408 330.981 182.411 330.959 182.421C 330.953 182.423 330.947 182.424 330.941 182.426C 329.1 183.056 325.793 181.431 323.96 182.358C 323.901 182.388 323.774 182.482 323.749 182.525C 323.583 182.806 323.079 183.843 323.667 184.156C 324.222 184.453 325.009 184.626 325.462 184.669C 325.821 184.7 328.16 184.659 329.246 184.615C 329.564 184.603 329.988 184.485 330.088 184.442C 330.287 184.356 330.502 184.283 330.742 184.248C 331.523 184.136 332.178 184.286 331.818 185.24C 331.369 186.431 327.057 187.619 325.918 187.345C 324.776 187.074 323.509 188.575 323.465 188.8C 323.265 189.853 323.366 191.016 322.878 192.131C 322.231 193.618 320.886 195.661 321.62 197.322C 321.813 197.863 325.171 198.029 329.022 198.566C 329.283 198.604 329.545 198.645 329.805 198.679C 332.242 199.05 334.804 199.581 336.833 200.46C 337.622 200.801 338.274 201.065 338.817 201.271C 341.618 202.698 344.506 204.49 344.959 205.012C 347.186 207.59 350.631 211.827 351.958 210.013C 351.862 208.205 350.826 206.888 350.052 205.338C 349.729 204.68 350.616 204.393 350.964 203.942C 352.261 202.272 352.591 199.728 353.023 197.724C 353.386 196.049 353.626 194.342 354.06 192.687C 354.564 190.783 351.972 189.483 350.272 188.994C 350.047 188.93 349.65 188.509 349.682 188.376C 349.994 187.02 352.485 188.114 354.028 189.093C 354.62 189.468 356.15 189.384 356.47 188.839C 356.95 188.015 357.265 186.979 357.685 186.321C 358.699 184.734 357.501 183.985 356.212 183.254z"/>
<path style="stroke:none; fill:#0033ff" d="M 174.654 306.167C 174.597 305.316 174.627 303.322 174.629 301.969C 175.448 302.058 176.423 302.111 177.418 302.12L 177.426 302.236C 176.569 303.313 176.032 304.771 176.134 306.332C 176.223 307.701 176.958 308.555 178.149 308.477C 179.003 308.42 179.498 308.033 180.053 307.213C 180.878 305.997 181.35 304.567 182.325 303.246C 183.426 301.773 184.533 301.395 185.906 301.305C 187.254 301.216 189.914 301.802 190.242 306.857C 190.304 307.802 190.355 309.293 190.304 310.555C 189.594 310.411 188.567 310.265 187.613 310.161L 187.605 310.043C 188.327 309.355 188.885 308.56 188.77 306.789C 188.66 305.11 187.683 304.344 186.695 304.408C 185.503 304.485 184.838 304.697 183.47 307.63C 181.766 311.301 180.647 311.468 179.23 311.562C 177.521 311.672 174.963 310.892 174.654 306.167z"/>
<path style="stroke:none; fill:#0033ff" d="M 185.183 325.984C 183.428 326.287 179.452 327.1 177.805 327.743C 177.707 326.846 177.647 326.52 177.525 325.87C 177.43 325.358 177.343 324.892 177.069 323.787C 179.187 323.585 182.353 323.092 183.993 322.788C 183.832 321.684 183.755 321.146 183.599 320.307C 183.443 319.47 183.271 318.659 183.052 317.735C 180.596 318.219 178.472 318.638 176.238 319.319C 176.149 318.468 176.026 317.816 175.957 317.445C 175.858 316.909 175.776 316.467 175.503 315.385C 177.61 315.233 181.305 314.643 182.967 314.333C 184.587 314.032 189.91 313.185 190.392 312.326L 190.481 312.308C 190.606 313.223 190.691 313.809 190.812 314.462C 190.938 315.136 191.086 315.807 191.26 316.498C 189.746 316.491 187.574 316.895 184.759 317.42C 184.912 318.619 185.003 319.107 185.163 319.969C 185.32 320.805 185.394 321.203 185.699 322.469C 189.085 321.815 190.646 321.573 191.974 320.7L 192.045 320.71C 192.118 321.466 192.217 322.003 192.377 322.864C 192.498 323.514 192.68 324.371 192.829 324.921C 190.829 325.029 187.226 325.629 185.183 325.984z"/>
<path style="stroke:none; fill:#0033ff" d="M 192.006 333.063L 191.978 332.971C 190.02 332.942 188.323 332.972 186.52 333.041C 186.659 333.618 186.778 334.053 186.948 334.57C 187.192 335.313 187.317 335.621 187.537 336.147C 189.025 335.186 190.591 334.098 192.006 333.063zM 182.202 341.731C 181.974 341.032 181.773 340.425 181.465 339.705C 183.009 339.125 185.2 337.709 186.234 337.022C 186.048 336.31 185.85 335.628 185.634 334.976C 185.42 334.324 185.143 333.617 184.959 333.128C 183.685 333.148 180.949 333.346 179.608 334.036C 179.379 333.264 179.305 332.889 179.12 332.327C 178.922 331.719 178.724 331.186 178.475 330.571C 179.415 330.76 181.107 330.929 181.808 330.973C 183.284 331.063 185.358 331.156 186.983 331.196C 188.444 331.24 190.801 331.266 192.62 331.243C 193.144 331.246 194.003 331.262 194.465 330.936L 194.594 330.894C 194.83 331.615 195.035 332.168 195.204 332.613C 195.441 333.257 195.689 333.875 195.976 334.528C 195.546 334.743 194.755 335.226 194.072 335.675C 192.706 336.57 191.019 337.721 189.744 338.612C 187.603 340.11 186.393 340.98 185.333 341.801C 184.877 342.15 183.768 343.036 182.874 344.001C 182.607 343.043 182.416 342.383 182.202 341.731z"/>
<path style="stroke:none; fill:#0033ff" d="M 195.598 353.965C 194.662 354.413 190.78 356.221 189.142 357.19C 188.734 356.281 188.263 355.458 187.763 354.728C 188.929 352.882 191.18 349.597 192.196 348.167L 195.258 343.812L 195.227 343.747L 191.264 345.648C 190.511 346.007 186.536 348.199 185.255 349.235C 185.052 348.7 184.867 348.264 184.632 347.775C 184.408 347.303 184.13 346.78 183.876 346.351C 186.083 345.898 191.443 343.409 192.479 342.912C 193.271 342.532 196.544 341.068 197.61 339.902L 197.712 339.854C 197.958 340.469 198.265 341.164 198.593 341.847C 198.93 342.551 199.266 343.204 199.573 343.738C 198.802 344.632 197.098 346.762 196.296 347.96C 194.724 350.316 193.709 351.747 192.839 353.055L 192.868 353.12L 195.511 351.855C 197.036 351.123 200.939 348.988 201.681 348.135C 201.824 348.54 202.101 349.169 202.326 349.637C 202.632 350.279 202.663 350.342 203.05 350.999C 201.11 351.484 196.676 353.448 195.598 353.965z"/>
<path style="stroke:none; fill:#0033ff" d="M 201.076 369.639C 200.555 369.952 199.512 370.582 198.504 371.388C 196.967 369.792 196.118 368.708 195.011 367.029C 192.329 362.954 192.764 359.721 197.509 356.596C 200.428 354.675 204.658 353.475 208.33 359.052C 209.333 360.574 210.41 362.414 210.908 363.333C 209.859 363.626 209.034 363.973 208.071 364.436L 207.979 364.299C 208.339 363.04 208.083 361.34 206.988 359.678C 205.283 357.089 202.562 357.548 199.494 359.571C 195.2 362.396 195.216 364.427 196.79 366.822C 197.505 367.908 198.167 367.641 198.752 367.257L 200.107 366.364C 200.729 365.954 201.482 365.458 201.972 364.483L 202.08 364.441C 202.408 365.02 202.805 365.663 203.183 366.239C 203.678 366.991 203.82 367.207 204.332 367.864C 203.584 368.158 202.068 369.014 201.076 369.639z"/>
<path style="stroke:none; fill:#0033ff" d="M 214.57 379.266C 213.216 380.424 210.214 383.157 209.128 384.55C 208.585 383.83 208.366 383.58 207.929 383.081C 207.585 382.69 207.272 382.333 206.47 381.523C 208.19 380.268 210.658 378.228 211.912 377.127C 211.212 376.262 210.87 375.837 210.307 375.199C 209.745 374.556 209.181 373.949 208.523 373.267C 206.658 374.936 205.047 376.383 203.472 378.109C 202.962 377.424 202.525 376.926 202.275 376.641C 201.916 376.232 201.619 375.894 200.835 375.103C 202.566 373.898 205.44 371.499 206.713 370.385C 207.949 369.299 212.091 365.85 212.066 364.864L 212.134 364.804C 212.71 365.53 213.083 365.99 213.52 366.487C 213.973 367.002 214.443 367.502 214.945 368.008C 213.639 368.775 211.979 370.233 209.828 372.121C 210.573 373.074 210.901 373.449 211.478 374.105C 212.041 374.747 212.306 375.049 213.216 375.982C 215.795 373.688 217.011 372.682 217.707 371.253L 217.773 371.226C 218.221 371.841 218.58 372.248 219.158 372.908C 219.595 373.407 220.189 374.05 220.597 374.448C 218.935 375.56 216.145 377.916 214.57 379.266z"/>
<path style="stroke:none; fill:#0033ff" d="M 224.062 381.876L 223.991 381.813C 222.291 382.784 220.848 383.679 219.332 384.658C 219.748 385.081 220.071 385.396 220.48 385.753C 221.068 386.269 221.332 386.468 221.79 386.81C 222.58 385.224 223.374 383.489 224.062 381.876zM 220.05 394.333C 219.498 393.852 219.018 393.43 218.385 392.967C 219.415 391.681 220.579 389.344 221.116 388.226C 220.593 387.709 220.074 387.225 219.557 386.772C 219.04 386.32 218.441 385.855 218.035 385.53C 216.948 386.196 214.697 387.763 213.895 389.037C 213.304 388.491 213.049 388.207 212.603 387.818C 212.122 387.397 211.68 387.04 211.152 386.638C 212.056 386.322 213.598 385.603 214.224 385.282C 215.54 384.606 217.369 383.63 218.789 382.834C 220.068 382.126 222.107 380.946 223.661 379.997C 224.113 379.732 224.86 379.309 225.091 378.793L 225.181 378.69C 225.75 379.189 226.211 379.562 226.582 379.857C 227.114 380.293 227.643 380.695 228.221 381.112C 227.963 381.514 227.529 382.333 227.17 383.068C 226.452 384.536 225.588 386.387 224.947 387.804C 223.87 390.186 223.272 391.55 222.781 392.797C 222.565 393.329 222.064 394.657 221.789 395.943C 221.069 395.256 220.567 394.786 220.05 394.333z"/>
<path style="stroke:none; fill:#0033ff" d="M 225.793 398.634C 225.217 398.22 224.82 397.959 223.987 397.414C 225.784 395.487 227.689 392.887 228.729 391.442C 230.218 389.374 232.352 386.576 232.652 384.903L 232.692 384.847C 233.261 385.314 233.748 385.693 234.303 386.093C 234.86 386.495 235.502 386.902 236.187 387.366C 234.772 388.763 232.301 392.236 231.799 392.93C 230.969 394.083 228.576 397.362 227.328 399.825C 226.509 399.179 226.139 398.884 225.793 398.634z"/>
<path style="stroke:none; fill:#0033ff" d="M 243.589 400.657C 242.572 402.491 241.446 404.572 241.031 405.322C 239.785 407.571 237.772 408.568 232.849 406.512L 233.29 405.133C 235.293 405.959 236.488 405.952 237.791 403.991C 238.268 403.276 239.337 401.394 240.124 399.974C 241.489 397.509 243.729 393.904 243.724 392.253L 243.779 392.154C 244.482 392.594 245.093 392.959 245.671 393.278C 246.252 393.6 246.822 393.89 247.528 394.23C 246.083 395.957 244.407 399.178 243.589 400.657z"/>
<path style="stroke:none; fill:#0033ff" d="M 247.535 411.244C 246.61 410.76 246.191 410.539 245.805 410.359C 245.161 410.056 244.723 409.877 243.804 409.496C 245.213 407.269 246.602 404.358 247.357 402.745C 248.437 400.438 250.015 397.293 250 395.594L 250.028 395.532C 250.674 395.885 251.223 396.165 251.844 396.457C 252.465 396.748 253.17 397.028 253.93 397.359C 252.797 398.996 251.014 402.864 250.648 403.639C 250.049 404.928 248.306 408.593 247.533 411.244L 247.535 411.244z"/>
<path style="stroke:none; fill:#0033ff" d="M 260.125 403.267L 260.036 403.237C 258.812 404.762 257.796 406.122 256.744 407.591C 257.286 407.832 257.701 408.005 258.214 408.188C 258.95 408.452 259.27 408.541 259.819 408.692C 259.973 406.927 260.075 405.023 260.125 403.267zM 260.958 416.33C 260.268 416.082 259.667 415.868 258.907 415.667C 259.395 414.095 259.622 411.494 259.712 410.257C 259.036 409.966 258.376 409.706 257.729 409.475C 257.083 409.245 256.354 409.032 255.856 408.877C 255.088 409.896 253.568 412.178 253.291 413.66C 252.541 413.366 252.199 413.196 251.643 412.997C 251.04 412.782 250.497 412.611 249.858 412.431C 250.586 411.805 251.756 410.572 252.221 410.042C 253.197 408.932 254.542 407.353 255.569 406.094C 256.501 404.964 257.966 403.119 259.063 401.667C 259.386 401.256 259.927 400.587 259.953 400.023L 259.999 399.895C 260.712 400.151 261.276 400.329 261.729 400.468C 262.384 400.678 263.022 400.858 263.715 401.035C 263.623 401.502 263.519 402.423 263.455 403.237C 263.324 404.869 263.199 406.907 263.121 408.458C 262.992 411.07 262.935 412.558 262.935 413.899C 262.931 414.474 262.95 415.892 263.166 417.191C 262.243 416.813 261.604 416.561 260.958 416.33z"/>
<path style="stroke:none; fill:#0033ff" d="M 270.166 411.236C 269.418 414.719 269.849 417.326 272.487 417.893C 275.589 418.561 276.775 415.634 277.421 412.634C 278.027 409.814 278.231 406.399 275.221 405.753C 272.19 405.098 270.873 407.953 270.166 411.236zM 280.948 413.348C 280.209 416.787 278.345 420.72 272.167 419.392C 268.416 418.586 265.293 416.785 266.654 410.457C 267.445 406.777 269.295 402.908 275.451 404.233C 280.729 405.368 281.996 408.478 280.948 413.348z"/>
<path style="stroke:none; fill:#0033ff" d="M 300.19 408.994L 300.05 408.988C 299.537 408.722 297.941 408.348 295.977 408.276C 295.96 408.749 295.778 411.808 295.66 415.056C 295.542 418.254 295.731 421.532 295.831 422.055C 294.888 421.976 294.626 421.943 293.798 421.915C 293.088 421.888 292.568 421.868 291.69 421.905C 292.095 419.933 292.293 415.745 292.351 414.212C 292.41 412.59 292.467 409.66 292.5 408.15C 290.843 408.09 288.708 408.191 288.08 408.553L 287.937 408.548C 288.103 407.899 288.278 406.98 288.299 406.395C 290.496 406.609 292.292 406.698 294.301 406.771C 296.48 406.849 298.585 406.927 300.742 406.849C 300.511 407.358 300.338 408.232 300.19 408.994z"/>
<path style="stroke:none; fill:#0033ff" d="M 304.583 414.517C 304.882 418.066 306.056 420.434 308.743 420.206C 311.904 419.942 312.188 416.796 311.93 413.742C 311.689 410.865 310.887 407.537 307.819 407.795C 304.728 408.057 304.302 411.168 304.583 414.517zM 315.512 413.393C 315.807 416.899 315.172 421.206 308.874 421.735C 305.052 422.057 301.538 421.244 300.997 414.795C 300.681 411.042 301.32 406.807 307.597 406.276C 312.977 405.825 315.094 408.429 315.512 413.393z"/>
<path style="stroke:none; fill:#0033ff" d="M 329.871 410.675C 330.096 411.688 330.982 415.879 331.555 417.692C 330.582 417.885 329.672 418.158 328.846 418.482C 327.311 416.929 324.618 413.994 323.454 412.683L 319.903 408.717L 319.833 408.734L 320.79 413.024C 320.974 413.839 322.212 418.204 322.931 419.684C 322.366 419.764 321.899 419.846 321.368 419.963C 320.86 420.076 320.286 420.227 319.812 420.381C 319.866 418.127 318.651 412.346 318.399 411.224C 318.209 410.365 317.52 406.846 316.623 405.544L 316.598 405.434C 317.256 405.334 318.001 405.192 318.74 405.027C 319.501 404.858 320.214 404.676 320.804 404.497C 321.501 405.451 323.192 407.592 324.177 408.641C 326.119 410.703 327.283 412.014 328.365 413.16L 328.43 413.143L 327.795 410.283C 327.425 408.635 326.229 404.35 325.563 403.434C 325.99 403.387 326.665 403.26 327.171 403.147C 327.867 402.991 327.938 402.975 328.658 402.744C 328.693 404.745 329.611 409.509 329.871 410.675z"/>
<path style="stroke:none; fill:#0033ff" d="M 346.383 408.932C 346.568 409.512 346.941 410.671 347.498 411.836C 345.59 412.967 344.34 413.545 342.45 414.239C 337.872 415.913 334.823 414.748 332.869 409.413C 331.666 406.132 331.471 401.74 337.741 399.445C 339.452 398.817 341.491 398.19 342.499 397.915C 342.547 399.005 342.693 399.887 342.924 400.931L 342.768 400.989C 341.626 400.349 339.911 400.209 338.044 400.892C 335.132 401.959 334.956 404.712 336.22 408.163C 337.985 412.991 339.966 413.44 342.657 412.456C 343.879 412.009 343.774 411.303 343.531 410.647L 342.973 409.122C 342.719 408.426 342.408 407.578 341.569 406.876L 341.554 406.762C 342.19 406.577 342.909 406.337 343.557 406.101C 344.402 405.792 344.645 405.703 345.399 405.354C 345.516 406.153 346.002 407.823 346.383 408.932z"/>
<path style="stroke:none; fill:#0033ff" d="M 362.629 392.324C 363.465 393.82 364.455 395.618 365.344 397.109C 366.8 399.549 366.85 402.039 362.785 404.463C 358.516 407.01 356.581 405.984 354.966 403.274C 354.55 402.577 353.482 400.694 352.732 399.435C 352.2 398.545 350.43 395.346 349.238 394.692L 349.205 394.634C 349.758 394.356 350.439 393.976 351.052 393.611C 351.659 393.248 352.148 392.957 352.905 392.427C 353.534 394.308 355.632 397.782 356.175 398.694C 357.524 400.958 358.423 402.419 358.995 402.917C 359.801 403.618 361.043 403.717 362.223 403.013C 365.01 401.352 364.209 399.596 362.455 396.654C 359.996 392.529 359.133 390.944 357.562 389.649C 358.011 389.435 358.409 389.221 359.121 388.798C 359.752 388.422 360.084 388.197 360.551 387.867C 361.149 389.795 362.119 391.422 362.629 392.324z"/>
<path style="stroke:none; fill:#0033ff" d="M 376.266 385.692C 376.912 386.504 379.543 389.882 380.852 391.263C 380.061 391.865 379.363 392.506 378.76 393.158C 376.703 392.434 372.997 390.974 371.376 390.305L 366.446 388.294L 366.391 388.338L 369.13 391.777C 369.65 392.429 372.675 395.812 373.969 396.831C 373.495 397.147 373.111 397.424 372.683 397.763C 372.278 398.089 371.827 398.475 371.468 398.819C 370.532 396.769 366.909 392.104 366.192 391.205C 365.645 390.517 363.486 387.653 362.11 386.875L 362.039 386.787C 362.588 386.409 363.193 385.954 363.787 385.483C 364.397 384.997 364.957 384.522 365.41 384.104C 366.456 384.656 368.911 385.84 370.257 386.354C 372.905 387.36 374.526 388.028 376 388.586L 376.055 388.542L 374.229 386.248C 373.175 384.926 370.226 381.597 369.226 381.066C 369.585 380.836 370.138 380.425 370.546 380.102C 371.101 379.66 371.157 379.615 371.708 379.091C 372.616 380.877 375.524 384.756 376.266 385.692z"/>
<path style="stroke:none; fill:#0033ff" d="M 385.611 386.718C 385.101 387.212 384.779 387.559 384.093 388.284C 382.51 386.177 380.281 383.846 379.039 382.57C 377.266 380.74 374.885 378.152 373.288 377.564L 373.241 377.515C 373.797 377.035 374.255 376.623 374.748 376.146C 375.241 375.667 375.754 375.108 376.334 374.514C 377.461 376.153 380.445 379.192 381.043 379.806C 382.032 380.826 384.843 383.754 387.049 385.413C 386.271 386.108 385.915 386.421 385.611 386.718z"/>
<path style="stroke:none; fill:#0033ff" d="M 387.388 366.235C 388.122 367.489 389.284 369.389 390.286 371.06C 391.291 372.73 393.28 376.058 394.17 377.477C 393.6 378.109 393.049 378.854 392.582 379.607C 390.154 378.524 387.679 377.495 385.126 376.456C 383.137 375.657 381.25 374.88 379.916 374.389C 379.1 374.095 377.969 373.752 377.416 373.775L 377.348 373.716C 377.846 373.238 378.371 372.659 378.863 372.051C 379.385 371.44 379.879 370.835 380.307 370.265C 380.785 370.676 381.645 371.163 382.25 371.495C 383.245 372.036 385.017 372.808 386.939 373.614C 388.359 374.209 389.364 374.666 390.565 375.102L 390.626 375.031C 390.015 373.976 388.698 371.943 388.044 370.975C 386.417 368.614 385.15 366.871 383.866 366.114C 384.286 365.693 384.626 365.333 385.029 364.864C 385.413 364.416 385.722 364.056 386.087 363.527C 386.448 364.524 386.956 365.49 387.388 366.235z"/>
<path style="stroke:none; fill:#0033ff" d="M 404.829 363.023C 403.478 364.852 402.698 366.04 401.847 367.294C 400.945 368.626 400.677 369.017 399.284 371.189C 397.51 369.587 395.696 368.325 393.254 366.667C 390.734 364.956 387.65 362.717 386.575 362.817L 386.519 362.779C 387.491 361.465 388.714 359.665 389.405 358.646C 389.964 357.823 390.918 356.379 392.145 354.496C 392.434 354.95 393.211 355.65 393.678 355.967L 393.625 356.045C 392.625 356.796 391.364 358.373 390.046 360.311C 391.166 361.272 393.244 362.626 394.233 363.296C 395.072 362.064 395.717 361.072 396.364 359.678C 396.801 360.118 397.418 360.653 397.984 361.065C 396.795 362.089 396.096 363.161 395.457 364.101L 397.678 365.608C 399.786 367.04 400.275 367 401.06 365.843C 402.058 364.374 402.882 362.76 403.062 361.452L 403.141 361.334C 403.714 362.095 404.234 362.534 404.829 363.023z"/>
<path style="stroke:none; fill:#0033ff" d="M 396.942 348.62C 396.614 349.25 396.406 349.701 396.256 350.131C 397.153 350.704 398.335 351.319 398.674 351.495C 399.556 351.953 400.044 352.233 400.863 352.661C 401.148 352.167 401.32 351.883 401.505 351.526C 402.213 350.16 402.107 348.901 400.025 347.821C 398.266 346.905 397.391 347.759 396.942 348.62zM 411.434 350.659C 411.108 351.29 410.883 351.815 410.5 352.601C 409.323 352.229 408.039 351.962 406.589 351.716C 405.142 351.471 404.068 351.337 403.499 351.602C 402.927 351.866 402.632 352.486 402.204 353.356C 403.325 353.887 407.069 355.78 408.631 356.193C 408.285 356.761 407.928 357.4 407.598 358.032C 407.272 358.661 406.987 359.26 406.733 359.848C 404.943 358.545 401.212 356.631 400.032 356.017C 398.012 354.966 394.344 352.977 393.141 352.995L 393.082 352.963C 393.67 351.881 394.106 351.042 394.664 349.97C 395.309 348.729 395.77 347.795 396.459 346.474C 397.878 343.743 399.702 343.651 401.365 344.516C 403.083 345.41 404.048 347.219 403.236 349.464L 403.277 349.485C 403.896 348.392 404.741 348.085 405.755 348.186C 406.457 348.259 406.669 348.288 407.907 348.45C 409.498 348.664 411.434 348.95 412.389 348.675L 412.508 348.736C 412.022 349.578 411.696 350.154 411.434 350.659z"/>
<path style="stroke:none; fill:#0033ff" d="M 414.796 343.062C 414.491 343.858 413.631 345.657 413.063 346.885C 412.356 346.462 411.494 346.003 410.594 345.581L 410.637 345.471C 411.862 344.852 412.961 343.752 413.522 342.294C 414.016 341.011 413.703 339.929 412.588 339.501C 411.791 339.194 411.178 339.339 410.33 339.851C 409.074 340.611 408.047 341.712 406.608 342.504C 404.99 343.38 403.827 343.263 402.544 342.77C 401.281 342.286 399.112 340.64 400.927 335.912C 401.267 335.028 401.843 333.651 402.419 332.528C 403.003 332.957 403.872 333.518 404.698 334.013L 404.657 334.123C 403.712 334.445 402.872 334.935 402.236 336.592C 401.634 338.161 402.198 339.265 403.124 339.621C 404.241 340.048 404.931 340.136 407.403 338.042C 410.485 335.423 411.573 335.738 412.897 336.247C 414.497 336.862 416.493 338.642 414.796 343.062z"/>
<path style="stroke:none; fill:#0033ff" d="M 418.222 332.472C 418.023 333.156 417.913 333.617 417.679 334.583C 415.261 333.535 412.17 332.612 410.461 332.115C 408.014 331.403 404.661 330.33 402.986 330.607L 402.921 330.589C 403.169 329.896 403.363 329.311 403.554 328.653C 403.745 327.993 403.915 327.255 404.124 326.451C 405.913 327.319 410.014 328.485 410.836 328.724C 412.2 329.119 416.091 330.277 418.829 330.628C 418.495 331.616 418.339 332.063 418.222 332.472z"/>
<path style="stroke:none; fill:#0033ff" d="M 408.916 314.056L 408.887 314.196C 408.543 314.658 407.918 316.174 407.535 318.103C 408 318.195 410.992 318.864 414.176 319.497C 417.316 320.124 420.581 320.46 421.113 320.447C 420.884 321.367 420.812 321.617 420.648 322.429C 420.509 323.126 420.409 323.636 420.304 324.508C 418.423 323.796 414.319 322.93 412.815 322.63C 411.223 322.313 408.342 321.786 406.856 321.515C 406.532 323.14 406.292 325.263 406.546 325.944L 406.521 326.082C 405.907 325.815 405.029 325.495 404.45 325.381C 405.013 323.248 405.388 321.488 405.781 319.515C 406.206 317.379 406.618 315.313 406.885 313.169C 407.352 313.479 408.188 313.79 408.916 314.056z"/>
<path style="stroke:none; fill:#0033ff" d="M 409.735 301.87C 410.903 302.799 412.119 303.684 416.435 306.468C 417.917 306.59 418.726 306.658 419.81 306.679C 420.825 306.691 422.092 306.703 422.827 306.574C 422.689 307.418 422.643 307.982 422.59 308.621C 422.534 309.281 422.505 309.636 422.48 310.726C 421.824 310.481 420.351 310.214 419.589 310.15C 418.511 310.06 417.685 309.922 416.2 309.797C 412.571 311.275 409.457 312.821 408.678 313.208C 408.182 313.45 407.274 314.017 406.925 314.392L 406.836 314.384C 406.949 313.586 407.037 312.81 407.103 312.007C 407.169 311.206 407.217 310.377 407.247 309.477C 407.811 309.501 408.387 309.383 408.875 309.209C 410.086 308.788 411.758 308.286 414.41 307.13L 414.417 307.059C 412.998 306.156 410.918 305.08 409.698 304.503C 409.112 304.218 408.272 303.98 407.707 303.98C 407.799 303.395 407.856 302.996 407.924 302.17C 407.975 301.556 408.024 300.968 408.004 300.419C 408.588 301.015 409.397 301.628 409.735 301.87z"/>
<path style="stroke:none; fill:#0033ff" d="M 408.735 238.551C 408.606 240.731 406.301 242.199 404.478 243.221C 402.697 244.215 400.327 241.87 399.929 240.383C 399.732 239.66 399.54 237.39 400.185 236.869C 400.929 236.271 401.999 236.74 402.753 236.117C 402.822 236.064 402.904 235.73 402.892 235.64C 402.632 233.491 405.892 234.843 407.598 236.191C 408.114 236.597 408.755 238.159 408.735 238.551zM 413.141 252.572C 413 251.954 412.545 250.304 412.491 249.224L 412.489 249.228C 412.432 246.4 411.752 243.937 411.371 241.142C 411.207 239.929 410.549 235.419 412.657 235.454C 412.785 235.456 413.168 234.989 413.18 234.845C 413.369 232.624 411.93 231.749 409.949 232.556C 408.85 233.002 408.229 233.151 407.18 232.466C 406.959 232.323 404.822 231.107 402.861 229.802C 401.622 228.983 397.842 226.1 397.842 226.1C 396.119 225.07 394.405 222.461 393.383 225.444C 394.703 228.094 397.677 229.041 399.716 230.89C 400.718 231.767 401.404 233.688 399.362 233.008C 397.365 232.294 395.082 229.831 393.858 229.129C 392.711 228.465 390.063 228.206 390.977 230.314C 391.515 231.554 392.512 232.65 393.752 233.226C 394.438 233.545 396.844 234.334 396.985 234.874C 397.358 235.643 397.194 237.566 396.647 238.239C 395.752 239.34 393.356 237.587 392.203 236.681C 392.137 236.628 391.639 236.308 390.952 235.901C 390.196 235.446 388.54 234.666 387.433 234.163C 386.863 233.907 385.687 233.491 385.345 233.39C 384.13 233.028 380.274 232.077 381.033 234.805C 381.045 234.847 381.143 234.99 381.274 235.079C 381.666 235.356 382.599 235.964 383.654 236.543C 384.667 237.099 389.298 238.529 390.998 239.444C 392.598 240.307 394.442 240.746 395.805 242.019C 396.378 242.559 396.588 243.026 396.703 243.521C 396.821 244.016 397.418 246.995 397.418 248.058C 397.418 250.763 396.723 253.956 396.09 256.001C 395.438 258.116 393.565 261.606 396.985 261.733C 400.396 261.862 400.267 250.652 400.462 248.185C 400.521 247.434 400.781 244.059 402.263 245.297C 404.732 247.368 404.089 250.729 404.388 253.493C 404.47 254.284 405.163 254.496 405.852 254.703C 406.079 254.773 406.967 254.733 407.071 254.57C 407.633 253.672 407.719 252.529 407.66 251.491C 407.563 249.689 406.705 247.181 407.414 245.383C 407.908 244.352 408.686 244.004 409.047 245.262C 409.063 245.317 409.078 245.356 409.096 245.4C 409.199 245.779 409.356 246.958 409.35 247.207C 409.305 249.23 410.074 254.596 410.178 254.731C 410.975 255.787 412.438 256.366 413.464 254.968C 413.813 254.547 413.278 253.19 413.141 252.572z"/>
<path style="stroke:none; fill:#0033ff" d="M 311.117 347.008C 311.117 347.366 310.795 347.658 310.4 347.658L 303.409 347.658C 303.008 347.658 302.684 347.366 302.684 347.008L 302.684 345.404C 302.684 345.05 303.008 344.758 303.409 344.758L 303.409 344.764L 310.4 344.764C 310.787 344.764 311.117 345.06 311.117 345.411L 311.117 347.008zM 313.012 342.779L 300.796 342.779C 299.941 342.779 299.249 343.531 299.249 344.46L 299.249 348.028C 299.249 348.949 299.941 349.701 300.796 349.701L 305.591 349.703L 310.4 349.707C 310.787 349.707 311.117 350.005 311.117 350.355L 311.117 351.471C 311.117 351.827 310.795 352.117 310.4 352.117L 303.402 352.117C 303.12 352.117 302.881 351.97 302.764 351.757L 299.249 351.757L 299.249 352.427C 299.249 353.349 299.941 354.101 300.796 354.101L 313.012 354.101C 313.863 354.101 314.557 353.349 314.557 352.423L 314.557 344.46C 314.557 343.531 313.863 342.779 313.012 342.779z"/>
<path style="stroke:none; fill:#0033ff" d="M 322.317 349.868C 322.317 349.512 322.636 349.22 323.03 349.22L 330.022 349.22C 330.42 349.22 330.748 349.512 330.748 349.868L 330.748 351.473C 330.748 351.83 330.42 352.122 330.022 352.122L 330.022 352.114L 323.03 352.114C 322.642 352.114 322.317 351.817 322.317 351.466L 322.317 349.868zM 320.417 354.101L 332.635 354.101C 333.486 354.101 334.182 353.347 334.182 352.421L 334.182 348.852C 334.182 347.929 333.486 347.177 332.635 347.177L 327.84 347.175L 323.03 347.173C 322.642 347.173 322.317 346.874 322.317 346.522L 322.317 345.409C 322.317 345.052 322.636 344.761 323.03 344.761L 330.029 344.761C 330.311 344.761 330.551 344.909 330.666 345.124L 334.182 345.124L 334.182 344.451C 334.182 343.528 333.486 342.778 332.635 342.778L 320.417 342.778C 319.569 342.778 318.875 343.53 318.875 344.457L 318.875 352.421C 318.875 353.347 319.569 354.101 320.417 354.101z"/>
</g>
</g>
</g>
<g>
</g>
</svg>